<svg xmlns="http://www.w3.org/2000/svg" width="98.87" height="105.01" viewBox="0 0 98.87 105.01">
  <g id="Grupo_1238" data-name="Grupo 1238" transform="translate(0)">
    <path id="Trazado_1311" data-name="Trazado 1311" d="M362.155,73.282c-2.465,5.1-5.273,11.216-5.906,16.862-.111.983,1.144,1.5,1.907,1.077,5.294-2.915,6.074-10.479,8.319-15.454C367.761,72.919,363.552,70.395,362.155,73.282Z" transform="translate(-331.742 -43.825)" fill="#ffc10b"/>
    <path id="Trazado_1312" data-name="Trazado 1312" d="M338.979,88.128a.016.016,0,0,0,0,.032A.016.016,0,0,0,338.979,88.128Z" transform="translate(-333.774 -41.93)" fill="#ffc10b"/>
    <path id="Trazado_1313" data-name="Trazado 1313" d="M370.694,83.194c-2.475-1.654-5.462-2.56-8.172-3.784a51.664,51.664,0,0,1-7.874-4.422c-1.835-1.252-3.458,1.638-1.728,2.91,4.74,3.482,11.006,7.455,17.052,7.924C371.5,85.938,371.769,83.911,370.694,83.194Z" transform="translate(-332.219 -43.511)" fill="#ffc10b"/>
    <path id="Trazado_1314" data-name="Trazado 1314" d="M369.784,96.009c-1.4,3.1-2.556,6.285-3.718,9.472-1.067,2.927-2.265,6.105-1.835,9.243a1.828,1.828,0,0,0,2.66,1.065c2.628-1.751,3.811-4.94,4.693-7.832,1.014-3.33,1.838-6.655,3.163-9.89C375.887,95.284,371.031,93.242,369.784,96.009Z" transform="translate(-330.814 -41.158)" fill="#ffc10b"/>
    <path id="Trazado_1315" data-name="Trazado 1315" d="M380.114,106.929c-1.9-1.922-4.693-3-7.12-4.151-2.662-1.259-5.4-2.364-8.1-3.524-3.241-1.388-6.116,3.236-2.824,4.756,2.738,1.263,5.464,2.554,8.259,3.687,2.664,1.08,5.464,2.474,8.371,2.605A1.993,1.993,0,0,0,380.114,106.929Z" transform="translate(-331.229 -40.652)" fill="#ffc10b"/>
    <path id="Trazado_1316" data-name="Trazado 1316" d="M377.949,122.966c-.943,3.26-2.119,6.453-3.025,9.723-.778,2.806-1.654,6.217-.762,9.07a1.442,1.442,0,0,0,2.587.333c1.487-2.564,2.062-5.773,2.855-8.6.875-3.12,1.789-6.232,2.566-9.377C382.834,121.418,378.722,120.292,377.949,122.966Z" transform="translate(-329.68 -38.013)" fill="#ffc10b"/>
    <path id="Trazado_1317" data-name="Trazado 1317" d="M387.548,136.078c-3.876-3.007-8.754-5.086-13.1-7.376-2.653-1.4-5.022,2.6-2.358,3.973,4.43,2.285,9.333,5.475,14.453,5.781C387.7,138.525,388.514,136.828,387.548,136.078Z" transform="translate(-330.016 -37.194)" fill="#ffc10b"/>
    <path id="Trazado_1318" data-name="Trazado 1318" d="M376.622,48.234c-1.61,4.177-3.259,9.832-1.977,14.27a1.224,1.224,0,0,0,2.195.283c2.591-3.778,2.338-9.179,3.972-13.415C381.8,46.8,377.607,45.681,376.622,48.234Z" transform="translate(-329.633 -46.79)" fill="#ffc10b"/>
    <path id="Trazado_1319" data-name="Trazado 1319" d="M386.26,58.157a50.361,50.361,0,0,0-12.751-7.074c-2.546-1-3.62,3.026-1.129,4.03,4.229,1.705,8.039,4.223,12.487,5.4C386.149,60.852,387.432,59.073,386.26,58.157Z" transform="translate(-330.011 -46.304)" fill="#ffc10b"/>
    <path id="Trazado_1320" data-name="Trazado 1320" d="M384.572,76.749c-.375,2.706-.673,5.421-1.035,8.129-.314,2.341-1.191,4.918-.221,7.168a1.393,1.393,0,0,0,1.869.483c2.284-1.242,2.681-4.277,3.032-6.595.431-2.846.536-5.73.816-8.591C389.275,74.861,384.918,74.25,384.572,76.749Z" transform="translate(-328.612 -43.455)" fill="#ffc10b"/>
    <path id="Trazado_1321" data-name="Trazado 1321" d="M395.845,87.265C392.1,84.189,387,82.21,382.5,80.432c-2.57-1.015-3.7,3.1-1.147,4.094,4.337,1.69,8.77,4.747,13.524,5.035A1.354,1.354,0,0,0,395.845,87.265Z" transform="translate(-328.959 -42.853)" fill="#ffc10b"/>
    <path id="Trazado_1322" data-name="Trazado 1322" d="M395.264,105.677c-.753,2.558-1.314,5.167-2.065,7.725-.725,2.47-2.04,4.82-2.1,7.428a2.632,2.632,0,0,0,3.925,2.218c4.921-2.813,5.221-10.786,6.559-15.658C402.681,103.378,396.438,101.692,395.264,105.677Z" transform="translate(-327.645 -40.134)" fill="#ffc10b"/>
    <path id="Trazado_1323" data-name="Trazado 1323" d="M404.1,116.84c-3.023-3.29-7.953-5.293-11.853-7.395-2.864-1.544-5.433,2.789-2.558,4.308,4.095,2.165,8.528,5.367,13.259,5.825C404.449,119.725,404.957,117.778,404.1,116.84Z" transform="translate(-327.958 -39.462)" fill="#ffc10b"/>
    <path id="Trazado_1324" data-name="Trazado 1324" d="M400.861,58.1c-.5,2.863-.949,5.717-1.584,8.557-.5,2.256-1.632,5.26-.218,7.379a1.748,1.748,0,0,0,1.857.744c5.5-.748,5.1-11.24,5.657-15.131C407.093,56.018,401.513,54.362,400.861,58.1Z" transform="translate(-326.789 -45.708)" fill="#ffc10b"/>
    <path id="Trazado_1325" data-name="Trazado 1325" d="M413.189,67.365c-3.454-3.928-9.643-5.429-14.114-7.968-2.612-1.483-5,2.548-2.359,3.973,2.472,1.334,5.044,2.452,7.624,3.563a44.763,44.763,0,0,0,7.407,2.869A1.473,1.473,0,0,0,413.189,67.365Z" transform="translate(-327.119 -45.345)" fill="#ffc10b"/>
    <path id="Trazado_1326" data-name="Trazado 1326" d="M412.085,86.11c-.455,2.509-.7,5.054-.956,7.588-.219,2.161-1.025,4.614.168,6.606a1.58,1.58,0,0,0,1.747.7c4.849-1.614,3.61-10.284,4.115-14.218C417.522,83.963,412.595,83.293,412.085,86.11Z" transform="translate(-325.345 -42.379)" fill="#ffc10b"/>
    <path id="Trazado_1327" data-name="Trazado 1327" d="M424.208,96.357c-3.388-3.958-8.984-6.084-13.746-7.962-2.624-1.035-4.563,3.432-1.94,4.531,4.8,2.009,9.214,5.7,14.545,6.141C424.588,99.192,425.022,97.307,424.208,96.357Z" transform="translate(-325.742 -41.916)" fill="#ffc10b"/>
    <path id="Trazado_1328" data-name="Trazado 1328" d="M341.322,96.971c-.814,4.357-2.7,10.552-.264,14.628a1.983,1.983,0,0,0,3.354,0c2.4-3.448,1.872-9.11,2.5-13.112C347.463,94.929,342,93.325,341.322,96.971Z" transform="translate(-333.669 -41.133)" fill="#ffc10b"/>
    <path id="Trazado_1329" data-name="Trazado 1329" d="M353.212,106.275c-1.886-1.987-5.1-2.9-7.6-3.968-2.689-1.149-5.381-2.288-8.107-3.35-2.628-1.025-4.552,3.4-1.94,4.531,2.785,1.2,5.524,2.5,8.272,3.778,2.406,1.124,5.125,2.748,7.831,2.688A2.176,2.176,0,0,0,353.212,106.275Z" transform="translate(-334.32 -40.675)" fill="#ffc10b"/>
    <path id="Trazado_1330" data-name="Trazado 1330" d="M350.671,124.666c-.69,2.959-1.675,5.856-2.256,8.838-.514,2.64-1.181,5.637-.162,8.213.377.952,1.771,1.65,2.585.673,1.762-2.113,2.32-4.811,2.973-7.421.74-2.954,1.216-5.968,1.907-8.933C356.468,122.809,351.425,121.431,350.671,124.666Z" transform="translate(-332.744 -37.851)" fill="#ffc10b"/>
    <path id="Trazado_1331" data-name="Trazado 1331" d="M362.4,137.973c-4.316-4.581-10.9-7.822-16.744-10.037-2.119-.8-3.669,2.756-1.559,3.642,5.812,2.441,10.858,6.936,16.831,8.886A1.505,1.505,0,0,0,362.4,137.973Z" transform="translate(-333.289 -37.263)" fill="#ffc10b"/>
  </g>
</svg>
