<svg id="Grupo_2045" data-name="Grupo 2045" xmlns="http://www.w3.org/2000/svg" xmlns:xlink="http://www.w3.org/1999/xlink" width="126.408" height="40.662" viewBox="0 0 126.408 40.662">
  <defs>
    <clipPath id="clip-path">
      <rect id="Rectángulo_462" data-name="Rectángulo 462" width="126.408" height="40.662" fill="none"/>
    </clipPath>
    <clipPath id="clip-path-3">
      <rect id="Rectángulo_460" data-name="Rectángulo 460" width="126.409" height="40.662" fill="none"/>
    </clipPath>
  </defs>
  <g id="Grupo_2044" data-name="Grupo 2044" clip-path="url(#clip-path)">
    <path id="Trazado_2139" data-name="Trazado 2139" d="M10.823,48.129,16.651,65.35l2.57-.639L16.314,46.765Z" transform="translate(-5.802 -25.069)" fill="#fff"/>
    <g id="Grupo_2043" data-name="Grupo 2043" transform="translate(0 0)">
      <g id="Grupo_2042" data-name="Grupo 2042" clip-path="url(#clip-path)">
        <path id="Trazado_2140" data-name="Trazado 2140" d="M8.6,22.933a5.721,5.721,0,0,0,1.717-.674,4.235,4.235,0,0,0,1.84-2.994,4.8,4.8,0,0,0-.626-3.2l-.267-.47a6.422,6.422,0,0,0,4.6-4.482,5.212,5.212,0,0,1-5.91.835c.234-1.338,1.833-1.854,3.143-2.216,2.639-.73,3.911-.785,5.947-2.616s2.6-3.574,2.88-6.3c-3.372,3.378-3.89,3.959-8.8,4.473-2.586.27-5.445-.225-8.517,1.785,0,0-6.47,4.662-1.688,11.311,0,0-1.69.161-2.1-.91,0,0,.557,7.088,7.778,5.453" transform="translate(-0.44 -0.44)" fill="#fff"/>
        <rect id="Rectángulo_458" data-name="Rectángulo 458" width="8.06" height="2.054" transform="matrix(0.971, -0.241, 0.241, 0.971, 3.419, 22.03)" fill="#fff"/>
        <path id="Trazado_2141" data-name="Trazado 2141" d="M21.651.036a.38.38,0,0,0-.433.075l-.141.141c-3.227,3.233-3.723,3.731-8.429,4.223-.6.062-1.21.083-1.857.1a12.157,12.157,0,0,0-6.843,1.75c-.065.047-6.315,4.664-2.2,11.209A1.213,1.213,0,0,1,.736,16.9.381.381,0,0,0,0,17.069a7.416,7.416,0,0,0,2.613,4.976,5.065,5.065,0,0,0,.495.315l.436,1.754a.381.381,0,0,0,.369.289.392.392,0,0,0,.092-.011l.982-.244,5.5,16.255a.381.381,0,0,0,.36.258.392.392,0,0,0,.092-.011l2.571-.638a.381.381,0,0,0,.284-.431L11.052,22.642l.776-.193a.381.381,0,0,0,.277-.461l-.428-1.721a4.829,4.829,0,0,0,.416-1.39,5.177,5.177,0,0,0-.672-3.439L11.4,15.4a6.842,6.842,0,0,0,4.394-4.611.38.38,0,0,0-.629-.385,4.883,4.883,0,0,1-5.195.9c.354-.9,1.617-1.319,2.793-1.645.448-.124.856-.228,1.235-.325A9.556,9.556,0,0,0,18.862,6.96c2.154-1.936,2.717-3.793,3-6.541a.381.381,0,0,0-.215-.383M12.989,39.357l-1.891.47L5.729,23.964l4.58-1.138Zm-8.8-15.8L3.88,22.308l7.084-1.76.311,1.254ZM18.353,6.394a8.845,8.845,0,0,1-4.544,2.2c-.384.1-.8.2-1.25.329-1.17.324-3.128.865-3.416,2.517a.381.381,0,0,0,.2.4,5.6,5.6,0,0,0,5.222-.069,5.822,5.822,0,0,1-3.819,3.008.38.38,0,0,0-.249.56l.264.466a4.412,4.412,0,0,1,.582,2.965,4.057,4.057,0,0,1-.26.961L3.394,21.644a3.835,3.835,0,0,1-.324-.208,6.073,6.073,0,0,1-2.1-3.329,3.58,3.58,0,0,0,1.547.222.381.381,0,0,0,.273-.6c-4.5-6.255,1.351-10.6,1.587-10.771a11.371,11.371,0,0,1,6.438-1.616c.66-.022,1.284-.043,1.91-.109,4.626-.484,5.533-1.1,8.242-3.8a7.508,7.508,0,0,1-2.617,4.958" transform="translate(0 0)" fill="#fff"/>
        <path id="Trazado_2142" data-name="Trazado 2142" d="M46.683,37.462V23.132l-1.794-.173v-.843H56.041l.194,2.918-.821.021L54.939,23.2,48.3,23.067v6.57l4.949-.087.346-1.578h.865V32.3H53.49l-.259-1.643L48.3,30.567V37.5l3.112.173V38.5H44.759v-.757Z" transform="translate(-23.994 -11.856)" fill="#fff"/>
        <path id="Trazado_2143" data-name="Trazado 2143" d="M75.9,36.7V21.981l-1.729-.3V20.9l2.94-.367.389.238V36.721l1.88.173v.757H74.061v-.757Z" transform="translate(-39.702 -11.007)" fill="#fff"/>
        <path id="Trazado_2144" data-name="Trazado 2144" d="M98.192,32.416a3.513,3.513,0,0,1,1.1,2.961l-.021,7.414h1.362v.6a4.012,4.012,0,0,1-1.816.389,1.468,1.468,0,0,1-.7-.13.609.609,0,0,1-.291-.422,4.475,4.475,0,0,1-.065-.9,4.537,4.537,0,0,1-3.718,1.47,3.542,3.542,0,0,1-1.7-.411,3.08,3.08,0,0,1-1.21-1.145,3.159,3.159,0,0,1-.443-1.664,2.838,2.838,0,0,1,1.145-2.345,7.007,7.007,0,0,1,2.756-1.275,13.649,13.649,0,0,1,3.123-.378V35.572a2.643,2.643,0,0,0-.8-2.226,3.738,3.738,0,0,0-2.291-.605,6.169,6.169,0,0,0-1.567.249,7.739,7.739,0,0,0-1.61.616l-.3-.778a5.209,5.209,0,0,1,1.967-.918,8.5,8.5,0,0,1,2.14-.335,4.719,4.719,0,0,1,2.94.843m-4.215,5.738a2.22,2.22,0,0,0-1.707,2.129q0,2.42,2.745,2.42a3.588,3.588,0,0,0,1.524-.346,4.293,4.293,0,0,0,1.134-.713l.022-4.128a10.548,10.548,0,0,0-3.718.637" transform="translate(-48.617 -16.925)" fill="#fff"/>
        <path id="Trazado_2145" data-name="Trazado 2145" d="M119.293,42.609V33.489l-1.535-.67v-.54l2.551-.692.389.216v1.448a8.768,8.768,0,0,1,2.053-1.145,6.4,6.4,0,0,1,2.291-.54,3.723,3.723,0,0,1,1.794.291,2.359,2.359,0,0,1,1.059,1.157,7.682,7.682,0,0,1,2.01-.984,7.526,7.526,0,0,1,2.269-.464,3.483,3.483,0,0,1,2.075.421,2.7,2.7,0,0,1,1.081,1.589,11.161,11.161,0,0,1,.324,3.026v6.008l1.794.194v.757h-4.884V42.8l1.491-.194V36.9a11.382,11.382,0,0,0-.194-2.377,2.218,2.218,0,0,0-.735-1.3,2.48,2.48,0,0,0-1.577-.432,7.068,7.068,0,0,0-3.372,1.016,11.672,11.672,0,0,1,.259,2.7v6.117l1.664.173v.757h-4.841V42.8l1.6-.194v-5.9a10.348,10.348,0,0,0-.194-2.269,2.082,2.082,0,0,0-.713-1.221,2.444,2.444,0,0,0-1.513-.4,5.224,5.224,0,0,0-1.675.324,8.076,8.076,0,0,0-1.848.93v8.537l1.621.194v.757h-4.712V42.8Z" transform="translate(-63.126 -16.917)" fill="#fff"/>
        <path id="Trazado_2146" data-name="Trazado 2146" d="M163.272,21.614v-.757l3.069-.324.367.173v6.246a7.649,7.649,0,0,1,1.653-1.059,4.717,4.717,0,0,1,2.021-.411,4.569,4.569,0,0,1,2.258.584,4.287,4.287,0,0,1,1.707,1.88,7.337,7.337,0,0,1,.659,3.328,7.494,7.494,0,0,1-.746,3.339,6.129,6.129,0,0,1-2.086,2.432,5.345,5.345,0,0,1-3.069.907,11.361,11.361,0,0,1-1.8-.141,9.786,9.786,0,0,1-1.47-.335,1.611,1.611,0,0,1-.7-.346V21.916Zm4.3,15.161a6.3,6.3,0,0,0,1.729.206,3.725,3.725,0,0,0,2-.584,4.21,4.21,0,0,0,1.535-1.815,7.042,7.042,0,0,0,.594-3.069,5.167,5.167,0,0,0-1.081-3.621,3.5,3.5,0,0,0-2.658-1.156,4.188,4.188,0,0,0-1.7.346,4.4,4.4,0,0,0-1.286.821v8.256a1.175,1.175,0,0,0,.864.616" transform="translate(-87.524 -11.007)" fill="#fff"/>
        <path id="Trazado_2147" data-name="Trazado 2147" d="M202.865,32.333A4.934,4.934,0,0,1,204,35.607a9.625,9.625,0,0,1-.108,1.837h-8.062a5.423,5.423,0,0,0,1.092,3.631,3.884,3.884,0,0,0,3.166,1.34,8.584,8.584,0,0,0,1.859-.216,4.212,4.212,0,0,0,1.383-.5l.346.757a4.235,4.235,0,0,1-1.772.843,9.481,9.481,0,0,1-2.464.324,4.664,4.664,0,0,1-3.825-1.664,6.851,6.851,0,0,1-1.362-4.474,6.817,6.817,0,0,1,.734-3.188,5.672,5.672,0,0,1,2.043-2.237A5.763,5.763,0,0,1,200,31.2a3.558,3.558,0,0,1,2.864,1.135m-5.793.886a5.132,5.132,0,0,0-1.2,3.166h6.419l.021-.627q0-2.615-1.426-3.393a4.512,4.512,0,0,0-1.383-.195,3.246,3.246,0,0,0-2.431,1.049" transform="translate(-104.131 -16.724)" fill="#fff"/>
        <path id="Trazado_2148" data-name="Trazado 2148" d="M228.911,32.416a3.512,3.512,0,0,1,1.1,2.961l-.022,7.414h1.362v.6a4.013,4.013,0,0,1-1.815.389,1.468,1.468,0,0,1-.7-.13.611.611,0,0,1-.292-.422,4.517,4.517,0,0,1-.064-.9,4.537,4.537,0,0,1-3.718,1.47,3.542,3.542,0,0,1-1.7-.411,3.08,3.08,0,0,1-1.21-1.145,3.159,3.159,0,0,1-.443-1.664,2.837,2.837,0,0,1,1.145-2.345,7.007,7.007,0,0,1,2.756-1.275,13.651,13.651,0,0,1,3.123-.378V35.572a2.641,2.641,0,0,0-.8-2.226,3.738,3.738,0,0,0-2.291-.605,6.168,6.168,0,0,0-1.567.249,7.738,7.738,0,0,0-1.61.616l-.3-.778a5.206,5.206,0,0,1,1.967-.918,8.5,8.5,0,0,1,2.14-.335,4.717,4.717,0,0,1,2.939.843M224.7,38.154a2.22,2.22,0,0,0-1.707,2.129q0,2.42,2.745,2.42a3.588,3.588,0,0,0,1.524-.346,4.286,4.286,0,0,0,1.134-.713l.022-4.128a10.548,10.548,0,0,0-3.718.637" transform="translate(-118.69 -16.925)" fill="#fff"/>
        <path id="Trazado_2149" data-name="Trazado 2149" d="M248.011,32.7v-.67l2.356-.454.324.195v7.24a8.7,8.7,0,0,0,.194,2.086,1.864,1.864,0,0,0,.724,1.113,2.7,2.7,0,0,0,1.545.367A4.306,4.306,0,0,0,255.1,42.1a5.435,5.435,0,0,0,1.383-.908V33l-1.318-.216V32.07l2.615-.5.259.173V42.791h1.319V43.5a4.366,4.366,0,0,1-.832.27,3.989,3.989,0,0,1-.9.119q-.994,0-.994-.821V42.1a6.446,6.446,0,0,1-4.128,1.686,3.479,3.479,0,0,1-2.313-.638,2.71,2.71,0,0,1-.907-1.642,19.478,19.478,0,0,1-.195-2.886V32.913Z" transform="translate(-132.95 -16.925)" fill="#fff"/>
        <path id="Trazado_2150" data-name="Trazado 2150" d="M46.84,74.028c0-2.1.893-3.239,2.427-3.239a2.15,2.15,0,0,1,2.061,1.33l-.437.259a1.679,1.679,0,0,0-1.624-1.106c-1.16,0-1.856.874-1.856,2.409v.705c0,1.526.7,2.365,1.856,2.365a1.7,1.7,0,0,0,1.669-1.169l.437.259a2.2,2.2,0,0,1-2.106,1.392c-1.535,0-2.427-1.1-2.427-3.2" transform="translate(-25.109 -37.947)" fill="#fff"/>
        <path id="Trazado_2151" data-name="Trazado 2151" d="M65.982,77.248,65.3,75.312h-2.65l-.678,1.936H61.44l2.2-6.229h.687l2.213,6.229Zm-1.99-5.72h-.036l-1.169,3.319h2.374Z" transform="translate(-32.936 -38.071)" fill="#fff"/>
        <path id="Trazado_2152" data-name="Trazado 2152" d="M78.31,77.248V71.019h2.445a1.747,1.747,0,0,1,0,3.49h-1.91v2.74Zm.535-3.213h1.91a1,1,0,0,0,1.1-1.062v-.428a1,1,0,0,0-1.1-1.053h-1.91Z" transform="translate(-41.979 -38.071)" fill="#fff"/>
        <path id="Trazado_2153" data-name="Trazado 2153" d="M92.641,77.249V76.8h.91V71.466h-.91V71.02H95v.446h-.91V76.8H95v.446Z" transform="translate(-49.662 -38.071)" fill="#fff"/>
        <path id="Trazado_2154" data-name="Trazado 2154" d="M105.326,71.493v5.756h-.535V71.493H102.7v-.473h4.712v.473Z" transform="translate(-55.055 -38.071)" fill="#fff"/>
        <path id="Trazado_2155" data-name="Trazado 2155" d="M120.671,77.248l-.678-1.936h-2.65l-.678,1.936h-.535l2.2-6.229h.687l2.213,6.229Zm-1.99-5.72h-.036l-1.169,3.319h2.374Z" transform="translate(-62.253 -38.071)" fill="#fff"/>
        <path id="Trazado_2156" data-name="Trazado 2156" d="M133,77.249V71.02h.535v5.756h2.748v.473Z" transform="translate(-71.296 -38.071)" fill="#fff"/>
        <path id="Trazado_2157" data-name="Trazado 2157" d="M153.909,77.248V71.019h2.445a1.747,1.747,0,0,1,0,3.49h-1.91v2.74Zm.535-3.213h1.91a1,1,0,0,0,1.1-1.062v-.428a1,1,0,0,0-1.1-1.053h-1.91Z" transform="translate(-82.505 -38.071)" fill="#fff"/>
        <path id="Trazado_2158" data-name="Trazado 2158" d="M171.3,77.248l-.679-1.936h-2.65l-.678,1.936h-.536l2.2-6.229h.687l2.213,6.229Zm-1.99-5.72h-.036l-1.169,3.319h2.374Z" transform="translate(-89.393 -38.071)" fill="#fff"/>
        <path id="Trazado_2159" data-name="Trazado 2159" d="M184.165,77.248h-.535V71.019h2.445a1.553,1.553,0,0,1,1.669,1.731,1.537,1.537,0,0,1-1.374,1.7l1.535,2.793h-.6l-1.49-2.758h-1.651Zm1.91-3.213a1,1,0,0,0,1.1-1.062v-.428a1,1,0,0,0-1.1-1.053h-1.91v2.543Z" transform="translate(-98.437 -38.071)" fill="#fff"/>
        <path id="Trazado_2160" data-name="Trazado 2160" d="M199.969,71.493v5.756h-.535V71.493h-2.088v-.473h4.712v.473Z" transform="translate(-105.79 -38.071)" fill="#fff"/>
        <path id="Trazado_2161" data-name="Trazado 2161" d="M213.8,71.752h-.026v5.5h-.518V71.02h.669l3.275,5.5h.026v-5.5h.518v6.229h-.669Z" transform="translate(-114.318 -38.071)" fill="#fff"/>
        <path id="Trazado_2162" data-name="Trazado 2162" d="M230.2,77.249V71.02h3.641v.473h-3.106v2.356h2.954v.473h-2.954v2.454h3.106v.473Z" transform="translate(-123.402 -38.071)" fill="#fff"/>
        <path id="Trazado_2163" data-name="Trazado 2163" d="M245.24,77.248h-.535V71.019h2.445a1.553,1.553,0,0,1,1.669,1.731,1.537,1.537,0,0,1-1.374,1.7l1.535,2.793h-.6l-1.49-2.758H245.24Zm1.91-3.213a1,1,0,0,0,1.1-1.062v-.428a1,1,0,0,0-1.1-1.053h-1.91v2.543Z" transform="translate(-131.177 -38.071)" fill="#fff"/>
        <path id="Trazado_2164" data-name="Trazado 2164" d="M259.3,76.17l.4-.33a2.067,2.067,0,0,0,1.776.919c.964,0,1.5-.482,1.5-1.3,0-.767-.464-1.062-1.258-1.231l-.553-.116c-1.178-.241-1.7-.8-1.7-1.669,0-1.088.8-1.651,2-1.651a2.23,2.23,0,0,1,1.972.955l-.4.295a1.814,1.814,0,0,0-1.6-.777c-.892,0-1.446.393-1.446,1.16,0,.741.5,1.026,1.276,1.187l.553.116c1.241.267,1.678.848,1.678,1.7,0,1.133-.777,1.8-2.044,1.8a2.519,2.519,0,0,1-2.16-1.062" transform="translate(-139.004 -37.947)" fill="#fff"/>
        <g id="Grupo_2041" data-name="Grupo 2041" transform="translate(0 0)" opacity="0.8">
          <g id="Grupo_2040" data-name="Grupo 2040">
            <g id="Grupo_2039" data-name="Grupo 2039" clip-path="url(#clip-path-3)">
              <path id="Trazado_2165" data-name="Trazado 2165" d="M19.222,64.712l-2.57.638L10.823,48.129l5.491-1.364Z" transform="translate(-5.802 -25.069)" fill="#fff"/>
              <path id="Trazado_2166" data-name="Trazado 2166" d="M8.6,22.933a5.721,5.721,0,0,0,1.717-.674,4.235,4.235,0,0,0,1.84-2.994,4.8,4.8,0,0,0-.626-3.2l-.267-.47a6.422,6.422,0,0,0,4.6-4.482,5.212,5.212,0,0,1-5.91.835c.234-1.338,1.833-1.854,3.143-2.216,2.639-.73,3.911-.785,5.947-2.616s2.6-3.574,2.88-6.3c-3.372,3.378-3.89,3.959-8.8,4.473-2.586.27-5.445-.225-8.517,1.785,0,0-6.47,4.662-1.688,11.311,0,0-1.69.161-2.1-.91,0,0,.557,7.088,7.778,5.453" transform="translate(-0.44 -0.44)" fill="#fff"/>
              <rect id="Rectángulo_459" data-name="Rectángulo 459" width="8.06" height="2.054" transform="matrix(0.971, -0.241, 0.241, 0.971, 3.419, 22.03)" fill="#fff"/>
              <path id="Trazado_2167" data-name="Trazado 2167" d="M21.651.036a.38.38,0,0,0-.433.075l-.141.141c-3.227,3.233-3.723,3.731-8.429,4.223-.6.062-1.21.083-1.857.1a12.157,12.157,0,0,0-6.843,1.75c-.065.047-6.315,4.664-2.2,11.209A1.213,1.213,0,0,1,.736,16.9.381.381,0,0,0,0,17.069a7.416,7.416,0,0,0,2.613,4.976,5.065,5.065,0,0,0,.495.315l.436,1.754a.381.381,0,0,0,.369.289.392.392,0,0,0,.092-.011l.982-.244,5.5,16.255a.381.381,0,0,0,.36.258.392.392,0,0,0,.092-.011l2.571-.638a.381.381,0,0,0,.284-.431L11.052,22.642l.776-.193a.381.381,0,0,0,.277-.461l-.428-1.721a4.829,4.829,0,0,0,.416-1.39,5.177,5.177,0,0,0-.672-3.439L11.4,15.4a6.842,6.842,0,0,0,4.394-4.611.38.38,0,0,0-.629-.385,4.883,4.883,0,0,1-5.195.9c.354-.9,1.617-1.319,2.793-1.645.448-.124.856-.228,1.235-.325A9.556,9.556,0,0,0,18.862,6.96c2.154-1.936,2.717-3.793,3-6.541a.381.381,0,0,0-.215-.383M12.989,39.357l-1.891.47L5.729,23.964l4.58-1.138Zm-8.8-15.8L3.88,22.308l7.084-1.76.311,1.254ZM18.353,6.394a8.845,8.845,0,0,1-4.544,2.2c-.384.1-.8.2-1.25.329-1.17.324-3.128.865-3.416,2.517a.381.381,0,0,0,.2.4,5.6,5.6,0,0,0,5.222-.069,5.822,5.822,0,0,1-3.819,3.008.38.38,0,0,0-.249.56l.264.466a4.412,4.412,0,0,1,.582,2.965,4.057,4.057,0,0,1-.26.961L3.394,21.644a3.835,3.835,0,0,1-.324-.208,6.073,6.073,0,0,1-2.1-3.329,3.58,3.58,0,0,0,1.547.222.381.381,0,0,0,.273-.6c-4.5-6.255,1.351-10.6,1.587-10.771a11.371,11.371,0,0,1,6.438-1.616c.66-.022,1.284-.043,1.91-.109,4.626-.484,5.533-1.1,8.242-3.8a7.508,7.508,0,0,1-2.617,4.958" transform="translate(0 0)" fill="#919191"/>
              <path id="Trazado_2168" data-name="Trazado 2168" d="M46.683,37.462V23.132l-1.794-.173v-.843H56.041l.194,2.918-.821.021L54.939,23.2,48.3,23.067v6.57l4.949-.087.346-1.578h.865V32.3H53.49l-.259-1.643L48.3,30.567V37.5l3.112.173V38.5H44.759v-.757Z" transform="translate(-23.994 -11.856)" fill="#5b5b5b"/>
              <path id="Trazado_2169" data-name="Trazado 2169" d="M75.9,36.7V21.981l-1.729-.3V20.9l2.94-.367.389.238V36.721l1.88.173v.757H74.061v-.757Z" transform="translate(-39.702 -11.007)" fill="#5b5b5b"/>
              <path id="Trazado_2170" data-name="Trazado 2170" d="M98.192,32.416a3.513,3.513,0,0,1,1.1,2.961l-.021,7.414h1.362v.6a4.012,4.012,0,0,1-1.816.389,1.468,1.468,0,0,1-.7-.13.609.609,0,0,1-.291-.422,4.475,4.475,0,0,1-.065-.9,4.537,4.537,0,0,1-3.718,1.47,3.542,3.542,0,0,1-1.7-.411,3.08,3.08,0,0,1-1.21-1.145,3.159,3.159,0,0,1-.443-1.664,2.838,2.838,0,0,1,1.145-2.345,7.007,7.007,0,0,1,2.756-1.275,13.649,13.649,0,0,1,3.123-.378V35.572a2.643,2.643,0,0,0-.8-2.226,3.738,3.738,0,0,0-2.291-.605,6.169,6.169,0,0,0-1.567.249,7.739,7.739,0,0,0-1.61.616l-.3-.778a5.209,5.209,0,0,1,1.967-.918,8.5,8.5,0,0,1,2.14-.335,4.719,4.719,0,0,1,2.94.843m-4.215,5.738a2.22,2.22,0,0,0-1.707,2.129q0,2.42,2.745,2.42a3.588,3.588,0,0,0,1.524-.346,4.293,4.293,0,0,0,1.134-.713l.022-4.128a10.548,10.548,0,0,0-3.718.637" transform="translate(-48.617 -16.925)" fill="#5b5b5b"/>
              <path id="Trazado_2171" data-name="Trazado 2171" d="M119.293,42.609V33.489l-1.535-.67v-.54l2.551-.692.389.216v1.448a8.768,8.768,0,0,1,2.053-1.145,6.4,6.4,0,0,1,2.291-.54,3.723,3.723,0,0,1,1.794.291,2.359,2.359,0,0,1,1.059,1.157,7.682,7.682,0,0,1,2.01-.984,7.526,7.526,0,0,1,2.269-.464,3.483,3.483,0,0,1,2.075.421,2.7,2.7,0,0,1,1.081,1.589,11.161,11.161,0,0,1,.324,3.026v6.008l1.794.194v.757h-4.884V42.8l1.491-.194V36.9a11.382,11.382,0,0,0-.194-2.377,2.218,2.218,0,0,0-.735-1.3,2.48,2.48,0,0,0-1.577-.432,7.068,7.068,0,0,0-3.372,1.016,11.672,11.672,0,0,1,.259,2.7v6.117l1.664.173v.757h-4.841V42.8l1.6-.194v-5.9a10.348,10.348,0,0,0-.194-2.269,2.082,2.082,0,0,0-.713-1.221,2.444,2.444,0,0,0-1.513-.4,5.224,5.224,0,0,0-1.675.324,8.076,8.076,0,0,0-1.848.93v8.537l1.621.194v.757h-4.712V42.8Z" transform="translate(-63.126 -16.917)" fill="#5b5b5b"/>
              <path id="Trazado_2172" data-name="Trazado 2172" d="M163.272,21.614v-.757l3.069-.324.367.173v6.246a7.649,7.649,0,0,1,1.653-1.059,4.717,4.717,0,0,1,2.021-.411,4.569,4.569,0,0,1,2.258.584,4.287,4.287,0,0,1,1.707,1.88,7.337,7.337,0,0,1,.659,3.328,7.494,7.494,0,0,1-.746,3.339,6.129,6.129,0,0,1-2.086,2.432,5.345,5.345,0,0,1-3.069.907,11.361,11.361,0,0,1-1.8-.141,9.786,9.786,0,0,1-1.47-.335,1.611,1.611,0,0,1-.7-.346V21.916Zm4.3,15.161a6.3,6.3,0,0,0,1.729.206,3.725,3.725,0,0,0,2-.584,4.21,4.21,0,0,0,1.535-1.815,7.042,7.042,0,0,0,.594-3.069,5.167,5.167,0,0,0-1.081-3.621,3.5,3.5,0,0,0-2.658-1.156,4.188,4.188,0,0,0-1.7.346,4.4,4.4,0,0,0-1.286.821v8.256a1.175,1.175,0,0,0,.864.616" transform="translate(-87.524 -11.007)" fill="#5b5b5b"/>
              <path id="Trazado_2173" data-name="Trazado 2173" d="M202.865,32.333A4.934,4.934,0,0,1,204,35.607a9.625,9.625,0,0,1-.108,1.837h-8.062a5.423,5.423,0,0,0,1.092,3.631,3.884,3.884,0,0,0,3.166,1.34,8.584,8.584,0,0,0,1.859-.216,4.212,4.212,0,0,0,1.383-.5l.346.757a4.235,4.235,0,0,1-1.772.843,9.481,9.481,0,0,1-2.464.324,4.664,4.664,0,0,1-3.825-1.664,6.851,6.851,0,0,1-1.362-4.474,6.817,6.817,0,0,1,.734-3.188,5.672,5.672,0,0,1,2.043-2.237A5.763,5.763,0,0,1,200,31.2a3.558,3.558,0,0,1,2.864,1.135m-5.793.886a5.132,5.132,0,0,0-1.2,3.166h6.419l.021-.627q0-2.615-1.426-3.393a4.512,4.512,0,0,0-1.383-.195,3.246,3.246,0,0,0-2.431,1.049" transform="translate(-104.131 -16.723)" fill="#5b5b5b"/>
              <path id="Trazado_2174" data-name="Trazado 2174" d="M228.911,32.416a3.512,3.512,0,0,1,1.1,2.961l-.022,7.414h1.362v.6a4.013,4.013,0,0,1-1.815.389,1.468,1.468,0,0,1-.7-.13.611.611,0,0,1-.292-.422,4.517,4.517,0,0,1-.064-.9,4.537,4.537,0,0,1-3.718,1.47,3.542,3.542,0,0,1-1.7-.411,3.08,3.08,0,0,1-1.21-1.145,3.159,3.159,0,0,1-.443-1.664,2.837,2.837,0,0,1,1.145-2.345,7.007,7.007,0,0,1,2.756-1.275,13.651,13.651,0,0,1,3.123-.378V35.572a2.641,2.641,0,0,0-.8-2.226,3.738,3.738,0,0,0-2.291-.605,6.168,6.168,0,0,0-1.567.249,7.738,7.738,0,0,0-1.61.616l-.3-.778a5.206,5.206,0,0,1,1.967-.918,8.5,8.5,0,0,1,2.14-.335,4.717,4.717,0,0,1,2.939.843M224.7,38.154a2.22,2.22,0,0,0-1.707,2.129q0,2.42,2.745,2.42a3.588,3.588,0,0,0,1.524-.346,4.286,4.286,0,0,0,1.134-.713l.022-4.128a10.548,10.548,0,0,0-3.718.637" transform="translate(-118.69 -16.925)" fill="#5b5b5b"/>
              <path id="Trazado_2175" data-name="Trazado 2175" d="M248.011,32.7v-.67l2.356-.454.324.195v7.24a8.7,8.7,0,0,0,.194,2.086,1.864,1.864,0,0,0,.724,1.113,2.7,2.7,0,0,0,1.545.367A4.306,4.306,0,0,0,255.1,42.1a5.435,5.435,0,0,0,1.383-.908V33l-1.318-.216V32.07l2.615-.5.259.173V42.791h1.319V43.5a4.366,4.366,0,0,1-.832.27,3.989,3.989,0,0,1-.9.119q-.994,0-.994-.821V42.1a6.446,6.446,0,0,1-4.128,1.686,3.479,3.479,0,0,1-2.313-.638,2.71,2.71,0,0,1-.907-1.642,19.478,19.478,0,0,1-.195-2.886V32.913Z" transform="translate(-132.95 -16.925)" fill="#5b5b5b"/>
              <path id="Trazado_2176" data-name="Trazado 2176" d="M46.84,74.028c0-2.1.893-3.239,2.427-3.239a2.15,2.15,0,0,1,2.061,1.33l-.437.259a1.679,1.679,0,0,0-1.624-1.106c-1.16,0-1.856.874-1.856,2.409v.705c0,1.526.7,2.365,1.856,2.365a1.7,1.7,0,0,0,1.669-1.169l.437.259a2.2,2.2,0,0,1-2.106,1.392c-1.535,0-2.427-1.1-2.427-3.2" transform="translate(-25.109 -37.947)" fill="#5b5b5b"/>
              <path id="Trazado_2177" data-name="Trazado 2177" d="M65.982,77.248,65.3,75.312h-2.65l-.678,1.936H61.44l2.2-6.229h.687l2.213,6.229Zm-1.99-5.72h-.036l-1.169,3.319h2.374Z" transform="translate(-32.936 -38.071)" fill="#5b5b5b"/>
              <path id="Trazado_2178" data-name="Trazado 2178" d="M78.31,77.248V71.019h2.445a1.747,1.747,0,0,1,0,3.49h-1.91v2.74Zm.535-3.213h1.91a1,1,0,0,0,1.1-1.062v-.428a1,1,0,0,0-1.1-1.053h-1.91Z" transform="translate(-41.979 -38.071)" fill="#5b5b5b"/>
              <path id="Trazado_2179" data-name="Trazado 2179" d="M92.641,77.249V76.8h.91V71.466h-.91V71.02H95v.446h-.91V76.8H95v.446Z" transform="translate(-49.662 -38.071)" fill="#5b5b5b"/>
              <path id="Trazado_2180" data-name="Trazado 2180" d="M105.326,71.493v5.756h-.535V71.493H102.7v-.473h4.712v.473Z" transform="translate(-55.055 -38.071)" fill="#5b5b5b"/>
              <path id="Trazado_2181" data-name="Trazado 2181" d="M120.671,77.248l-.678-1.936h-2.65l-.678,1.936h-.535l2.2-6.229h.687l2.213,6.229Zm-1.99-5.72h-.036l-1.169,3.319h2.374Z" transform="translate(-62.253 -38.071)" fill="#5b5b5b"/>
              <path id="Trazado_2182" data-name="Trazado 2182" d="M133,77.249V71.02h.535v5.756h2.748v.473Z" transform="translate(-71.296 -38.071)" fill="#5b5b5b"/>
              <path id="Trazado_2183" data-name="Trazado 2183" d="M153.909,77.248V71.019h2.445a1.747,1.747,0,0,1,0,3.49h-1.91v2.74Zm.535-3.213h1.91a1,1,0,0,0,1.1-1.062v-.428a1,1,0,0,0-1.1-1.053h-1.91Z" transform="translate(-82.505 -38.071)" fill="#5b5b5b"/>
              <path id="Trazado_2184" data-name="Trazado 2184" d="M171.3,77.248l-.679-1.936h-2.65l-.678,1.936h-.536l2.2-6.229h.687l2.213,6.229Zm-1.99-5.72h-.036l-1.169,3.319h2.374Z" transform="translate(-89.393 -38.071)" fill="#5b5b5b"/>
              <path id="Trazado_2185" data-name="Trazado 2185" d="M184.165,77.248h-.535V71.019h2.445a1.553,1.553,0,0,1,1.669,1.731,1.537,1.537,0,0,1-1.374,1.7l1.535,2.793h-.6l-1.49-2.758h-1.651Zm1.91-3.213a1,1,0,0,0,1.1-1.062v-.428a1,1,0,0,0-1.1-1.053h-1.91v2.543Z" transform="translate(-98.437 -38.071)" fill="#5b5b5b"/>
              <path id="Trazado_2186" data-name="Trazado 2186" d="M199.969,71.493v5.756h-.535V71.493h-2.088v-.473h4.712v.473Z" transform="translate(-105.79 -38.071)" fill="#5b5b5b"/>
              <path id="Trazado_2187" data-name="Trazado 2187" d="M213.8,71.752h-.026v5.5h-.518V71.02h.669l3.275,5.5h.026v-5.5h.518v6.229h-.669Z" transform="translate(-114.318 -38.071)" fill="#5b5b5b"/>
              <path id="Trazado_2188" data-name="Trazado 2188" d="M230.2,77.249V71.02h3.641v.473h-3.106v2.356h2.954v.473h-2.954v2.454h3.106v.473Z" transform="translate(-123.402 -38.071)" fill="#5b5b5b"/>
              <path id="Trazado_2189" data-name="Trazado 2189" d="M245.24,77.248h-.535V71.019h2.445a1.553,1.553,0,0,1,1.669,1.731,1.537,1.537,0,0,1-1.374,1.7l1.535,2.793h-.6l-1.49-2.758H245.24Zm1.91-3.213a1,1,0,0,0,1.1-1.062v-.428a1,1,0,0,0-1.1-1.053h-1.91v2.543Z" transform="translate(-131.177 -38.071)" fill="#5b5b5b"/>
              <path id="Trazado_2190" data-name="Trazado 2190" d="M259.3,76.17l.4-.33a2.067,2.067,0,0,0,1.776.919c.964,0,1.5-.482,1.5-1.3,0-.767-.464-1.062-1.258-1.231l-.553-.116c-1.178-.241-1.7-.8-1.7-1.669,0-1.088.8-1.651,2-1.651a2.23,2.23,0,0,1,1.972.955l-.4.295a1.814,1.814,0,0,0-1.6-.777c-.892,0-1.446.393-1.446,1.16,0,.741.5,1.026,1.276,1.187l.553.116c1.241.267,1.678.848,1.678,1.7,0,1.133-.777,1.8-2.044,1.8a2.519,2.519,0,0,1-2.16-1.062" transform="translate(-139.004 -37.947)" fill="#5b5b5b"/>
            </g>
          </g>
        </g>
      </g>
    </g>
  </g>
</svg>
