<svg id="Grupo_2080" data-name="Grupo 2080" xmlns="http://www.w3.org/2000/svg" xmlns:xlink="http://www.w3.org/1999/xlink" width="110.331" height="37.702" viewBox="0 0 110.331 37.702">
  <defs>
    <clipPath id="clip-path">
      <rect id="Rectángulo_487" data-name="Rectángulo 487" width="110.331" height="37.702" fill="none"/>
    </clipPath>
  </defs>
  <g id="Grupo_2079" data-name="Grupo 2079" clip-path="url(#clip-path)">
    <g id="Grupo_2078" data-name="Grupo 2078" transform="translate(0 0)">
      <g id="Grupo_2077" data-name="Grupo 2077" clip-path="url(#clip-path)">
        <path id="Trazado_2257" data-name="Trazado 2257" d="M109.878,7.114l-5.65-4.5L99.081,7.105a1.321,1.321,0,0,0-.515,1.281,1.52,1.52,0,0,0,1.016,1.082,1.23,1.23,0,0,0,1.249-.287l1.287-1.2a.425.425,0,0,1,.715.316l-.127,8.381a3.124,3.124,0,0,1-1.517,3.08.425.425,0,0,1-.552-.144,3.068,3.068,0,0,0-3.677-1.225A2.833,2.833,0,0,0,94.8,20.94a.425.425,0,0,1-.183.378,4.023,4.023,0,0,0-1.883,2.929c-.2,1.688-1,1.744-1.234,1.722-.679-.065-1.112-.935-1.031-2.068l.26-11.067A1.394,1.394,0,0,0,90,11.595a1.949,1.949,0,0,0-1.9-.052,1.8,1.8,0,0,0-.82,1.686c0,.016-.012,1.214-.039,2.4-.016.7-.034,1.253-.054,1.653-.038.766-.057,1.15-.505,1.15a.423.423,0,0,1-.121-.018,4.065,4.065,0,0,0-4.772,1.727,7.656,7.656,0,0,0-.706,4.444l0,.021c.173,1.142-.206,1.6-.448,1.77a.827.827,0,0,1-.884.045,1.741,1.741,0,0,1-.716-1.638,20.032,20.032,0,0,0-.2-4.179,3.1,3.1,0,0,0-2.067-2.134A3.575,3.575,0,0,0,73.3,19.481a.425.425,0,0,1-.634-.072,2.529,2.529,0,0,0-2.316-1.226,4.607,4.607,0,0,0-3.414,2.38c-.145.3-.3.686-.469,1.1-.869,2.136-2.183,5.364-5.556,4.882a.425.425,0,0,1-.107-.811,5.3,5.3,0,0,0,2.833-3.779,3.125,3.125,0,0,0-.6-2.837A4.692,4.692,0,0,0,59.5,17.678a4.437,4.437,0,0,0-3.227,1.959c-1.269,1.715-1.017,4.66-.7,5.817a.425.425,0,0,1-.145.447c-.757.6-1.406.777-1.928.525-.611-.3-.909-1.111-.909-2.493.008-.433.023-.893.037-1.363a19.715,19.715,0,0,0-.1-4.162,1.8,1.8,0,0,0-1.6-.448,1.165,1.165,0,0,0-1.014,1.265c-.01.182-.007.508,0,.885.02,1.827,0,3.677-.49,4.476-1.6,2.689-4.281,3.335-5.989,2.576A3.1,3.1,0,0,1,41.52,24.44a3.593,3.593,0,0,1,1.563-3.2,2.176,2.176,0,0,1,2.339.015c1.078.675,1.845.313,2.176-.2A1.46,1.46,0,0,0,47.072,19a5.053,5.053,0,0,0-6.878,1,8.068,8.068,0,0,0-1.343,3.624c-.081.405-.157.788-.245,1.107-.459,1.786-3,2.993-4.631,2.62a.425.425,0,0,1-.14-.768c2.512-1.666,3.206-3.454,3.345-4.66a3.638,3.638,0,0,0-.538-2.558,4.364,4.364,0,0,0-5.744-.56,6.447,6.447,0,0,0-2,7.117.424.424,0,0,1-.109.414c-.863.861-1.48.853-1.846.693-.521-.226-.8-.86-.773-1.737a12.53,12.53,0,0,1,.182-1.916,7.507,7.507,0,0,0,.119-2.1c-.308-2.109-2.377-3.02-4.294-2.982a.426.426,0,0,1-.427-.357A2.615,2.615,0,0,0,20.253,15.8a2.213,2.213,0,0,0-2.134.272,3.17,3.17,0,0,0-1.105,2.173,2.275,2.275,0,0,0,.831,1.893.427.427,0,0,1,.142.32,6.147,6.147,0,0,1-3.9,6.076c-2.565,1.041-5.83.578-7.434-1.054-1.958-1.953-3.725-4.542-3.387-10.2A15.843,15.843,0,0,1,7.575,5.906c3.578-4.015,7.523-2.966,10.2-1.379a1.168,1.168,0,0,0,1.68-.465,1.553,1.553,0,0,0-.112-2.038C16.64.154,14.169-.4,11.57.278A12.542,12.542,0,0,0,4.433,4.835a16.885,16.885,0,0,0-3.9,7.759c-.314,1.371-1.208,6.129.409,9.885a12.2,12.2,0,0,0,4.545,5.714,9.983,9.983,0,0,0,9.891,1.332c3.092-1.341,5-4.181,5.378-8a.425.425,0,0,1,.423-.383,2.34,2.34,0,0,1,2.037.714,2.964,2.964,0,0,1-.041,2.593,5.556,5.556,0,0,0,.757,4.432A3.36,3.36,0,0,0,26.3,30.311a4.972,4.972,0,0,0,3.752-1.456.424.424,0,0,1,.585.025A5.03,5.03,0,0,0,34.6,30.32,6.488,6.488,0,0,0,39.236,28.1a.426.426,0,0,1,.335-.163h0a.424.424,0,0,1,.335.164c2.257,2.9,6.393,2.988,10.293.217a.425.425,0,0,1,.65.214,2.44,2.44,0,0,0,1.829,1.721c1.276.275,2.816-.41,4.12-1.834a.434.434,0,0,1,.322-.138.425.425,0,0,1,.316.151,4.723,4.723,0,0,0,4.547,1.854c2.716-.47,5.449-3.214,6.8-6.829a.819.819,0,0,1,.856-.633c.145.021.617.15.617.939,0,1.26-.028,2.379-.053,3.367-.019.778-.036,1.449-.036,2.046.015.65.972,1.134,1.822,1.157.413.01,1.379-.07,1.454-1.058.133-1.682.1-3.306.078-4.491a14.309,14.309,0,0,1,.013-1.589c.118-1.064.793-1.518,1.369-1.487s1.194.553,1.194,1.624c0,.518-.016,1.018-.031,1.5a14.831,14.831,0,0,0,.028,2.225,3.625,3.625,0,0,0,2.585,3.177,3.252,3.252,0,0,0,3.409-1.145.425.425,0,0,1,.652-.022c1.445,1.614,3.322,1.743,5.283.364a.425.425,0,0,1,.557.06,3.245,3.245,0,0,0,2.4.871,3.319,3.319,0,0,0,2.536-1.4.425.425,0,0,1,.337-.167h0a.426.426,0,0,1,.338.168,4.019,4.019,0,0,0,3.046,1.435,4.65,4.65,0,0,0,3.685-1.708c1.141-1.308,1.663-3.143,1.746-6.138a.425.425,0,0,1,.166-.326c2.712-2.08,2.731-3.631,2.749-5,0-.133,0-.262.007-.39l.215-8.508a.425.425,0,0,1,.68-.329l1.763,1.33a1.151,1.151,0,0,0,1.707-.261,1.364,1.364,0,0,0-.083-1.952M31.953,24.666a.555.555,0,0,1-.207-.04c-.422-.168-.422-.725-.422-.992V23.61a3.732,3.732,0,0,1,1.05-2.492L32.4,21.1a1.092,1.092,0,0,1,1.378.092,1.244,1.244,0,0,1,.145,1.626,9.283,9.283,0,0,1-1.213,1.406,1.17,1.17,0,0,1-.753.442m27.47-.9-.088.085a1.126,1.126,0,0,1-.733.434.55.55,0,0,1-.221-.047c-.421-.183-.387-.746-.368-1a3.466,3.466,0,0,1,1.053-2.5,1.047,1.047,0,0,1,1.34.053,1.213,1.213,0,0,1,.2,1.6,7.132,7.132,0,0,1-1.185,1.38m28.238.726c0,1.357-.705,2.233-1.8,2.233h-.042a1.882,1.882,0,0,1-1.76-2.1c0-.007,0-.013,0-.019l.045-1.03a1.9,1.9,0,0,1,1.715-2.085h.042c1.126,0,1.8.8,1.8,2.146Zm11.557,1.078a1.824,1.824,0,0,1-1.886,1.561,2.312,2.312,0,0,1-.315-.021,1.748,1.748,0,0,1-1.351-1.186,1.156,1.156,0,0,1,.356-1.231.425.425,0,0,1,.46-.065,4.444,4.444,0,0,0,2.3.435.425.425,0,0,1,.435.508" transform="translate(0 0)" fill="#fff" fill-rule="evenodd"/>
        <path id="Trazado_2258" data-name="Trazado 2258" d="M105.314,23.189a2.437,2.437,0,0,1,2.513-2.364,2.5,2.5,0,0,1,2.59,2.364,2.459,2.459,0,0,1-2.59,2.169,2.39,2.39,0,0,1-2.513-2.169" transform="translate(-56.168 -11.107)" fill="#fff" fill-rule="evenodd"/>
        <path id="Trazado_2259" data-name="Trazado 2259" d="M112.135,70.155s-37.964.8-53.061,4.156c0,0-4.454,1.053,1.719.726s49.382-3.313,51.3-2.815,3.327-2.456.043-2.066" transform="translate(-30.678 -37.398)" fill="#fff" fill-rule="evenodd"/>
        <g id="Grupo_2076" data-name="Grupo 2076" transform="translate(0 0)" opacity="0.8">
          <g id="Grupo_2075" data-name="Grupo 2075">
            <g id="Grupo_2074" data-name="Grupo 2074" clip-path="url(#clip-path)">
              <path id="Trazado_2260" data-name="Trazado 2260" d="M109.878,7.114l-5.65-4.5L99.081,7.105a1.321,1.321,0,0,0-.515,1.281,1.52,1.52,0,0,0,1.016,1.082,1.23,1.23,0,0,0,1.249-.287l1.287-1.2a.425.425,0,0,1,.715.316l-.127,8.381a3.124,3.124,0,0,1-1.517,3.08.425.425,0,0,1-.552-.144,3.068,3.068,0,0,0-3.677-1.225A2.833,2.833,0,0,0,94.8,20.94a.425.425,0,0,1-.183.378,4.023,4.023,0,0,0-1.883,2.929c-.2,1.688-1,1.744-1.234,1.722-.679-.065-1.112-.935-1.031-2.068l.26-11.067A1.394,1.394,0,0,0,90,11.595a1.949,1.949,0,0,0-1.9-.052,1.8,1.8,0,0,0-.82,1.686c0,.016-.012,1.214-.039,2.4-.016.7-.034,1.253-.054,1.653-.038.766-.057,1.15-.505,1.15a.423.423,0,0,1-.121-.018,4.065,4.065,0,0,0-4.772,1.727,7.656,7.656,0,0,0-.706,4.444l0,.021c.173,1.142-.206,1.6-.448,1.77a.827.827,0,0,1-.884.045,1.741,1.741,0,0,1-.716-1.638,20.032,20.032,0,0,0-.2-4.179,3.1,3.1,0,0,0-2.067-2.134A3.575,3.575,0,0,0,73.3,19.481a.425.425,0,0,1-.634-.072,2.529,2.529,0,0,0-2.316-1.226,4.607,4.607,0,0,0-3.414,2.38c-.145.3-.3.686-.469,1.1-.869,2.136-2.183,5.364-5.556,4.882a.425.425,0,0,1-.107-.811,5.3,5.3,0,0,0,2.833-3.779,3.125,3.125,0,0,0-.6-2.837A4.692,4.692,0,0,0,59.5,17.678a4.437,4.437,0,0,0-3.227,1.959c-1.269,1.715-1.017,4.66-.7,5.817a.425.425,0,0,1-.145.447c-.757.6-1.406.777-1.928.525-.611-.3-.909-1.111-.909-2.493.008-.433.023-.893.037-1.363a19.715,19.715,0,0,0-.1-4.162,1.8,1.8,0,0,0-1.6-.448,1.165,1.165,0,0,0-1.014,1.265c-.01.182-.007.508,0,.885.02,1.827,0,3.677-.49,4.476-1.6,2.689-4.281,3.335-5.989,2.576A3.1,3.1,0,0,1,41.52,24.44a3.593,3.593,0,0,1,1.563-3.2,2.176,2.176,0,0,1,2.339.015c1.078.675,1.845.313,2.176-.2A1.46,1.46,0,0,0,47.072,19a5.053,5.053,0,0,0-6.878,1,8.068,8.068,0,0,0-1.343,3.624c-.081.405-.157.788-.245,1.107-.459,1.786-3,2.993-4.631,2.62a.425.425,0,0,1-.14-.768c2.512-1.666,3.206-3.454,3.345-4.66a3.638,3.638,0,0,0-.538-2.558,4.364,4.364,0,0,0-5.744-.56,6.447,6.447,0,0,0-2,7.117.424.424,0,0,1-.109.414c-.863.861-1.48.853-1.846.693-.521-.226-.8-.86-.773-1.737a12.53,12.53,0,0,1,.182-1.916,7.507,7.507,0,0,0,.119-2.1c-.308-2.109-2.377-3.02-4.294-2.982a.426.426,0,0,1-.427-.357A2.615,2.615,0,0,0,20.253,15.8a2.213,2.213,0,0,0-2.134.272,3.17,3.17,0,0,0-1.105,2.173,2.275,2.275,0,0,0,.831,1.893.427.427,0,0,1,.142.32,6.147,6.147,0,0,1-3.9,6.076c-2.565,1.041-5.83.578-7.434-1.054-1.958-1.953-3.725-4.542-3.387-10.2A15.843,15.843,0,0,1,7.575,5.906c3.578-4.015,7.523-2.966,10.2-1.379a1.168,1.168,0,0,0,1.68-.465,1.553,1.553,0,0,0-.112-2.038C16.64.154,14.169-.4,11.57.278A12.542,12.542,0,0,0,4.433,4.835a16.885,16.885,0,0,0-3.9,7.759c-.314,1.371-1.208,6.129.409,9.885a12.2,12.2,0,0,0,4.545,5.714,9.983,9.983,0,0,0,9.891,1.332c3.092-1.341,5-4.181,5.378-8a.425.425,0,0,1,.423-.383,2.34,2.34,0,0,1,2.037.714,2.964,2.964,0,0,1-.041,2.593,5.556,5.556,0,0,0,.757,4.432A3.36,3.36,0,0,0,26.3,30.311a4.972,4.972,0,0,0,3.752-1.456.424.424,0,0,1,.585.025A5.03,5.03,0,0,0,34.6,30.32,6.488,6.488,0,0,0,39.236,28.1a.426.426,0,0,1,.335-.163h0a.424.424,0,0,1,.335.164c2.257,2.9,6.393,2.988,10.293.217a.425.425,0,0,1,.65.214,2.44,2.44,0,0,0,1.829,1.721c1.276.275,2.816-.41,4.12-1.834a.434.434,0,0,1,.322-.138.425.425,0,0,1,.316.151,4.723,4.723,0,0,0,4.547,1.854c2.716-.47,5.449-3.214,6.8-6.829a.819.819,0,0,1,.856-.633c.145.021.617.15.617.939,0,1.26-.028,2.379-.053,3.367-.019.778-.036,1.449-.036,2.046.015.65.972,1.134,1.822,1.157.413.01,1.379-.07,1.454-1.058.133-1.682.1-3.306.078-4.491a14.309,14.309,0,0,1,.013-1.589c.118-1.064.793-1.518,1.369-1.487s1.194.553,1.194,1.624c0,.518-.016,1.018-.031,1.5a14.831,14.831,0,0,0,.028,2.225,3.625,3.625,0,0,0,2.585,3.177,3.252,3.252,0,0,0,3.409-1.145.425.425,0,0,1,.652-.022c1.445,1.614,3.322,1.743,5.283.364a.425.425,0,0,1,.557.06,3.245,3.245,0,0,0,2.4.871,3.319,3.319,0,0,0,2.536-1.4.425.425,0,0,1,.337-.167h0a.426.426,0,0,1,.338.168,4.019,4.019,0,0,0,3.046,1.435,4.65,4.65,0,0,0,3.685-1.708c1.141-1.308,1.663-3.143,1.746-6.138a.425.425,0,0,1,.166-.326c2.712-2.08,2.731-3.631,2.749-5,0-.133,0-.262.007-.39l.215-8.508a.425.425,0,0,1,.68-.329l1.763,1.33a1.151,1.151,0,0,0,1.707-.261,1.364,1.364,0,0,0-.083-1.952M31.953,24.666a.555.555,0,0,1-.207-.04c-.422-.168-.422-.725-.422-.992V23.61a3.732,3.732,0,0,1,1.05-2.492L32.4,21.1a1.092,1.092,0,0,1,1.378.092,1.244,1.244,0,0,1,.145,1.626,9.283,9.283,0,0,1-1.213,1.406,1.17,1.17,0,0,1-.753.442m27.47-.9-.088.085a1.126,1.126,0,0,1-.733.434.55.55,0,0,1-.221-.047c-.421-.183-.387-.746-.368-1a3.466,3.466,0,0,1,1.053-2.5,1.047,1.047,0,0,1,1.34.053,1.213,1.213,0,0,1,.2,1.6,7.132,7.132,0,0,1-1.185,1.38m28.238.726c0,1.357-.705,2.233-1.8,2.233h-.042a1.882,1.882,0,0,1-1.76-2.1c0-.007,0-.013,0-.019l.045-1.03a1.9,1.9,0,0,1,1.715-2.085h.042c1.126,0,1.8.8,1.8,2.146Zm11.557,1.078a1.824,1.824,0,0,1-1.886,1.561,2.312,2.312,0,0,1-.315-.021,1.748,1.748,0,0,1-1.351-1.186,1.156,1.156,0,0,1,.356-1.231.425.425,0,0,1,.46-.065,4.444,4.444,0,0,0,2.3.435.425.425,0,0,1,.435.508" transform="translate(0 0)" fill="#595959" fill-rule="evenodd"/>
              <path id="Trazado_2261" data-name="Trazado 2261" d="M105.314,23.189a2.437,2.437,0,0,1,2.513-2.364,2.5,2.5,0,0,1,2.59,2.364,2.459,2.459,0,0,1-2.59,2.169,2.39,2.39,0,0,1-2.513-2.169" transform="translate(-56.168 -11.107)" fill="#9b9b9b" fill-rule="evenodd"/>
              <path id="Trazado_2262" data-name="Trazado 2262" d="M112.135,70.155s-37.964.8-53.061,4.156c0,0-4.454,1.053,1.719.726s49.382-3.313,51.3-2.815,3.327-2.456.043-2.066" transform="translate(-30.678 -37.398)" fill="#c7c7c7" fill-rule="evenodd"/>
            </g>
          </g>
        </g>
      </g>
    </g>
  </g>
</svg>
