<svg id="Capa_1" data-name="Capa 1" xmlns="http://www.w3.org/2000/svg" viewBox="0 0 1080 424.93"><defs><style>.cls-1{fill:#410099;}</style></defs><path class="cls-1" d="M70.17,84.77h-43a14.42,14.42,0,0,1-14.4-14.4V46a14.42,14.42,0,0,1,14.4-14.41h43A14.42,14.42,0,0,1,84.57,46V70.37A14.42,14.42,0,0,1,70.17,84.77Zm-43-49A10.19,10.19,0,0,0,17,46V70.37A10.18,10.18,0,0,0,27.15,80.54h43A10.18,10.18,0,0,0,80.34,70.37V46A10.19,10.19,0,0,0,70.17,35.78Z"/><path class="cls-1" d="M48.56,70.05a2.12,2.12,0,0,1-2.12-2.12V47.68a2.12,2.12,0,0,1,4.23,0V67.93A2.11,2.11,0,0,1,48.56,70.05Z"/><path class="cls-1" d="M58.68,59.92H38.43a2.12,2.12,0,0,1,0-4.23H58.68a2.12,2.12,0,1,1,0,4.23Z"/><path class="cls-1" d="M58.09,35.9A2.12,2.12,0,0,1,56,33.79V26.88a4.08,4.08,0,0,0-4.08-4.08H45.23a4.09,4.09,0,0,0-4.09,4.08v6.91a2.12,2.12,0,0,1-4.23,0V26.88a8.32,8.32,0,0,1,8.32-8.31h6.66a8.32,8.32,0,0,1,8.31,8.31v6.91A2.12,2.12,0,0,1,58.09,35.9Z"/><path class="cls-1" d="M215.19,85H174.61a16,16,0,0,1-16-16V39.76a2.11,2.11,0,0,1,2.11-2.12H229a2.12,2.12,0,0,1,2.12,2.12V69.05A16,16,0,0,1,215.19,85ZM162.87,41.87V69.05a11.75,11.75,0,0,0,11.74,11.74h40.58a11.76,11.76,0,0,0,11.74-11.74V41.87Z"/><path class="cls-1" d="M229,41.87H160.75a2.1,2.1,0,0,1-2.11-2.11V34.07a15.77,15.77,0,0,1,15.75-15.75h8.23a5.32,5.32,0,0,1,2.77.78l10.37,6.37H216.9a14.25,14.25,0,0,1,14.26,14.29A2.11,2.11,0,0,1,229,41.87Zm-66.17-4.23h63.84a10,10,0,0,0-9.81-7.94H195.16a2.12,2.12,0,0,1-1.1-.31l-10.88-6.68a1.13,1.13,0,0,0-.56-.16h-8.23a11.54,11.54,0,0,0-11.52,11.52Z"/><path class="cls-1" d="M369.14,85.91H313a7.83,7.83,0,0,1-7.82-7.82V47a14.56,14.56,0,0,1,14.55-14.54h14.37a2.12,2.12,0,0,1,0,4.23H319.77A10.32,10.32,0,0,0,309.45,47v31.1A3.59,3.59,0,0,0,313,81.68h56.1a3.59,3.59,0,0,0,3.58-3.59V47a10.32,10.32,0,0,0-10.31-10.31H348.17a2.12,2.12,0,1,1,0-4.23h14.24A14.55,14.55,0,0,1,377,47v31.1A7.83,7.83,0,0,1,369.14,85.91Z"/><path class="cls-1" d="M374.84,48.72H362.7a10.37,10.37,0,0,1-7.38-3.06L342,32.33a1,1,0,0,0-1.39,0L327.25,45.66a10.37,10.37,0,0,1-7.38,3.06H307.34a2.12,2.12,0,1,1,0-4.23h12.53a6.17,6.17,0,0,0,4.39-1.82L337.6,29.33a5.22,5.22,0,0,1,7.37,0l13.34,13.34a6.17,6.17,0,0,0,4.39,1.82h12.14a2.12,2.12,0,0,1,0,4.23Z"/><path class="cls-1" d="M340.16,25.82V19.34a1.91,1.91,0,0,1,2.75-1.71l6.38,3.14a1.9,1.9,0,0,1,0,3.4L343,27.52A1.91,1.91,0,0,1,340.16,25.82Z"/><circle class="cls-1" cx="341.02" cy="50.44" r="6.11"/><path class="cls-1" d="M348,85.91a2.12,2.12,0,0,1-2.12-2.12V72.11a4.93,4.93,0,0,0-9.86,0V83.79a2.12,2.12,0,1,1-4.23,0V72.11a9.16,9.16,0,1,1,18.32,0V83.79A2.12,2.12,0,0,1,348,85.91Z"/><path class="cls-1" d="M322.82,61.76h-4a2.12,2.12,0,1,1,0-4.23h4a2.12,2.12,0,1,1,0,4.23Z"/><path class="cls-1" d="M322.82,74.06h-4a2.12,2.12,0,1,1,0-4.23h4a2.12,2.12,0,1,1,0,4.23Z"/><path class="cls-1" d="M362.86,61.76h-4a2.12,2.12,0,0,1,0-4.23h4a2.12,2.12,0,0,1,0,4.23Z"/><path class="cls-1" d="M362.86,74.06h-4a2.12,2.12,0,0,1,0-4.23h4a2.12,2.12,0,0,1,0,4.23Z"/><path class="cls-1" d="M342,31a2.11,2.11,0,0,1-2.12-2.11V19.56a2.12,2.12,0,1,1,4.23,0v9.33A2.1,2.1,0,0,1,342,31Z"/><path class="cls-1" d="M481.17,75.61a30.16,30.16,0,1,1,30.16-30.16A30.19,30.19,0,0,1,481.17,75.61Zm0-56.09A25.93,25.93,0,1,0,507.1,45.45,26,26,0,0,0,481.17,19.52Z"/><path class="cls-1" d="M521.82,88.05a2.15,2.15,0,0,1-1.5-.62L500.17,67.28a2.11,2.11,0,1,1,3-3l20.15,20.15a2.12,2.12,0,0,1-1.49,3.61Z"/><path class="cls-1" d="M618.67,62.77A20.7,20.7,0,0,1,598,42.09V30.79a15.2,15.2,0,0,1,15.18-15.18,2.12,2.12,0,0,1,0,4.23,11,11,0,0,0-10.95,11v11.3a16.45,16.45,0,1,0,32.89,0V30.79a11,11,0,0,0-11-10.95,2.12,2.12,0,0,1,0-4.23,15.2,15.2,0,0,1,15.18,15.18v11.3A20.7,20.7,0,0,1,618.67,62.77Z"/><path class="cls-1" d="M640.26,87.73A23.59,23.59,0,0,1,616.7,64.17V60.65a2.12,2.12,0,0,1,4.23,0v3.52a19.33,19.33,0,1,0,38.66,0V48.36a2.12,2.12,0,1,1,4.23,0V64.17A23.59,23.59,0,0,1,640.26,87.73Z"/><path class="cls-1" d="M661.65,49.81a7.15,7.15,0,1,1,7.15-7.14A7.15,7.15,0,0,1,661.65,49.81Zm0-10.06a2.92,2.92,0,1,0,2.92,2.92A2.92,2.92,0,0,0,661.65,39.75Z"/><path class="cls-1" d="M732.52,408.05a5.27,5.27,0,0,1-5.17-6.15l3.16-18.43a1,1,0,0,0-.29-.9l-13.39-13.06a5.25,5.25,0,0,1,2.91-9l18.5-2.69a1,1,0,0,0,.77-.56l8.28-16.77a5.25,5.25,0,0,1,9.42,0h0L765,357.3a1,1,0,0,0,.77.56l18.51,2.69a5.25,5.25,0,0,1,2.91,9l-13.39,13.06a1,1,0,0,0-.3.9l3.17,18.43a5.26,5.26,0,0,1-7.63,5.54l-16.55-8.7a1,1,0,0,0-1,0L735,407.44A5.2,5.2,0,0,1,732.52,408.05ZM752,394.39a5.2,5.2,0,0,1,2.45.61L771,403.7a1,1,0,0,0,1.49-1.08l-3.17-18.43a5.25,5.25,0,0,1,1.52-4.65l13.39-13.05a1,1,0,0,0,.26-1.06,1,1,0,0,0-.83-.69l-18.51-2.69a5.25,5.25,0,0,1-3.95-2.88l-8.28-16.76a1,1,0,0,0-1.84,0l-8.27,16.76a5.28,5.28,0,0,1-4,2.88l-18.5,2.69a1,1,0,0,0-.83.69,1,1,0,0,0,.26,1.06l13.39,13.05a5.24,5.24,0,0,1,1.51,4.65l-3.16,18.43a1,1,0,0,0,.41,1,1,1,0,0,0,1.08.08l16.55-8.7A5.13,5.13,0,0,1,752,394.39Z"/><path class="cls-1" d="M755.75,76.77a2.1,2.1,0,0,1-2.11-2.13l.13-13.92a13.74,13.74,0,0,1,4.05-9.65l18-18a15.14,15.14,0,0,1,21.42,21.41l-18,18a13.74,13.74,0,0,1-9.57,4l-13.86.21Zm30.78-43.91a10.85,10.85,0,0,0-7.72,3.2l-18,18a9.53,9.53,0,0,0-2.81,6.7l-.11,11.75,11.68-.18a9.52,9.52,0,0,0,6.65-2.81l18-18h0a10.92,10.92,0,0,0-7.72-18.63Z"/><path class="cls-1" d="M745,87.55a2.15,2.15,0,0,1-1.5-.62,2.12,2.12,0,0,1,0-3l10.78-10.78a2.11,2.11,0,0,1,3,3L746.47,86.93A2.11,2.11,0,0,1,745,87.55Z"/><path class="cls-1" d="M796.78,35.75a2.12,2.12,0,0,1-1.5-3.61L803,24.42a2.11,2.11,0,1,1,3,3l-7.72,7.72A2.11,2.11,0,0,1,796.78,35.75Z"/><path class="cls-1" d="M812.64,34.76a2.14,2.14,0,0,1-1.5-.61L796.4,19.41a2.12,2.12,0,0,1,3-3l14.73,14.74a2.12,2.12,0,0,1,0,3A2.1,2.1,0,0,1,812.64,34.76Z"/><path class="cls-1" d="M784.28,46.56a2.11,2.11,0,0,1-1.49-.62l-7.86-7.86a2.12,2.12,0,0,1,3-3L785.78,43a2.11,2.11,0,0,1,0,3A2.13,2.13,0,0,1,784.28,46.56Z"/><path class="cls-1" d="M776.7,54.14a2.11,2.11,0,0,1-1.49-.62l-7.86-7.86a2.12,2.12,0,0,1,3-3l7.86,7.87a2.12,2.12,0,0,1-1.5,3.61Z"/><path class="cls-1" d="M769.12,61.72a2.11,2.11,0,0,1-1.49-.62l-7.86-7.86a2.12,2.12,0,0,1,3-3l7.86,7.87a2.12,2.12,0,0,1-1.5,3.61Z"/><path class="cls-1" d="M911.05,87.67a14.84,14.84,0,0,1-14.82-14.82V17.79a2.12,2.12,0,0,1,2.11-2.12h25.42a2.12,2.12,0,0,1,2.11,2.12V72.85A14.84,14.84,0,0,1,911.05,87.67ZM900.46,19.9v53a10.59,10.59,0,0,0,21.18,0V19.9Z"/><path class="cls-1" d="M931.17,19.9H890.93a2.12,2.12,0,0,1,0-4.23h40.24a2.12,2.12,0,0,1,0,4.23Z"/><path class="cls-1" d="M923.76,41.87H898.34a2.12,2.12,0,0,1,0-4.23h25.42a2.12,2.12,0,0,1,0,4.23Z"/><path class="cls-1" d="M1059.4,88a2.12,2.12,0,0,1-2.11-2.12,22.86,22.86,0,0,0-45.71,0,2.12,2.12,0,1,1-4.23,0,27.09,27.09,0,0,1,54.17,0A2.12,2.12,0,0,1,1059.4,88Z"/><path class="cls-1" d="M1034.43,50.54a17.6,17.6,0,1,1,17.6-17.6A17.62,17.62,0,0,1,1034.43,50.54Zm0-31a13.37,13.37,0,1,0,13.37,13.37A13.39,13.39,0,0,0,1034.43,19.57Z"/><path class="cls-1" d="M1033.37,251a35.89,35.89,0,1,1,35.89-35.88A35.92,35.92,0,0,1,1033.37,251Zm0-67.54A31.66,31.66,0,1,0,1065,215.16,31.69,31.69,0,0,0,1033.37,183.5Z"/><path class="cls-1" d="M1043.9,227.8a2.13,2.13,0,0,1-1.5-.62l-21-21.05a2.11,2.11,0,0,1,3-3l21,21a2.12,2.12,0,0,1-1.49,3.62Z"/><path class="cls-1" d="M1022.85,227.8a2.12,2.12,0,0,1-1.49-3.62l21-21a2.11,2.11,0,0,1,3,3l-21,21.05A2.13,2.13,0,0,1,1022.85,227.8Z"/><polygon class="cls-1" points="883.74 343.08 883.74 361.03 865.79 361.03 883.74 343.08"/><path class="cls-1" d="M883.74,363.15h-18a2.11,2.11,0,0,1-1.5-3.61l18-18a2.11,2.11,0,0,1,3.61,1.49V361A2.11,2.11,0,0,1,883.74,363.15Zm-12.85-4.23h10.73V348.19Z"/><line class="cls-1" x1="861.1" y1="338.39" x2="876.63" y2="353.93"/><path class="cls-1" d="M876.63,356a2.06,2.06,0,0,1-1.49-.62L859.6,339.89a2.11,2.11,0,0,1,3-3l15.54,15.53a2.11,2.11,0,0,1,0,3A2.07,2.07,0,0,1,876.63,356Z"/><polygon class="cls-1" points="907.33 402.58 907.33 384.62 925.28 384.62 907.33 402.58"/><path class="cls-1" d="M907.33,404.69a2.09,2.09,0,0,1-.81-.16,2.12,2.12,0,0,1-1.31-1.95v-18a2.12,2.12,0,0,1,2.12-2.11h17.95a2.12,2.12,0,0,1,2,1.3,2.15,2.15,0,0,1-.46,2.31l-17.95,17.95A2.11,2.11,0,0,1,907.33,404.69Zm2.12-17.95v10.73l10.72-10.73Z"/><line class="cls-1" x1="929.97" y1="407.26" x2="914.43" y2="391.73"/><path class="cls-1" d="M930,409.38a2.15,2.15,0,0,1-1.5-.62l-15.53-15.54a2.11,2.11,0,1,1,3-3l15.53,15.54a2.12,2.12,0,0,1-1.49,3.61Z"/><polygon class="cls-1" points="925.28 361.03 907.33 361.03 907.33 343.08 925.28 361.03"/><path class="cls-1" d="M925.28,363.15H907.33a2.12,2.12,0,0,1-2.12-2.12V343.08a2.12,2.12,0,0,1,3.62-1.49l17.95,18a2.11,2.11,0,0,1-1.5,3.61Zm-15.83-4.23h10.72l-10.72-10.73Z"/><line class="cls-1" x1="929.97" y1="338.39" x2="914.43" y2="353.93"/><path class="cls-1" d="M914.43,356a2.06,2.06,0,0,1-1.49-.62,2.11,2.11,0,0,1,0-3l15.53-15.53a2.11,2.11,0,0,1,3,3l-15.53,15.53A2.09,2.09,0,0,1,914.43,356Z"/><polygon class="cls-1" points="865.79 384.62 883.74 384.62 883.74 402.58 865.79 384.62"/><path class="cls-1" d="M883.74,404.69a2.11,2.11,0,0,1-1.5-.62l-18-17.95a2.11,2.11,0,0,1,1.5-3.61h18a2.11,2.11,0,0,1,2.11,2.11v18a2.11,2.11,0,0,1-1.3,1.95A2.09,2.09,0,0,1,883.74,404.69Zm-12.85-17.95,10.73,10.73V386.74Z"/><line class="cls-1" x1="861.1" y1="407.26" x2="876.63" y2="391.73"/><path class="cls-1" d="M861.1,409.38a2.15,2.15,0,0,1-1.5-.62,2.12,2.12,0,0,1,0-3l15.54-15.54a2.11,2.11,0,0,1,3,3l-15.54,15.54A2.11,2.11,0,0,1,861.1,409.38Z"/><path class="cls-1" d="M918.73,251H890a35.87,35.87,0,1,1,35.87-35.86v28.76A7.11,7.11,0,0,1,918.73,251ZM890,183.53a31.63,31.63,0,1,0,0,63.26h28.76a2.88,2.88,0,0,0,2.88-2.87V215.16A31.68,31.68,0,0,0,890,183.53Z"/><path class="cls-1" d="M890.37,204.7H876.08a2.12,2.12,0,1,1,0-4.23h14.29a2.12,2.12,0,0,1,0,4.23Z"/><path class="cls-1" d="M902.81,217.14H876.08a2.12,2.12,0,1,1,0-4.23h26.73a2.12,2.12,0,0,1,0,4.23Z"/><path class="cls-1" d="M902.81,229.85H876.08a2.12,2.12,0,1,1,0-4.23h26.73a2.12,2.12,0,0,1,0,4.23Z"/><path class="cls-1" d="M774.24,225a8.22,8.22,0,1,1,8.21-8.21A8.22,8.22,0,0,1,774.24,225Zm0-12.2a4,4,0,1,0,4,4A4,4,0,0,0,774.24,212.81Z"/><path class="cls-1" d="M774.24,249.76a8.22,8.22,0,1,1,8.21-8.21A8.22,8.22,0,0,1,774.24,249.76Zm0-12.2a4,4,0,1,0,4,4A4,4,0,0,0,774.24,237.56Z"/><path class="cls-1" d="M749.36,237.45a8.22,8.22,0,1,1,8.21-8.21A8.22,8.22,0,0,1,749.36,237.45Zm0-12.2a4,4,0,1,0,4,4A4,4,0,0,0,749.36,225.25Z"/><path class="cls-1" d="M755.23,228.52a2.12,2.12,0,0,1-1-4l13.2-7.15a2.12,2.12,0,0,1,2,3.73l-13.21,7.14A2,2,0,0,1,755.23,228.52Z"/><path class="cls-1" d="M768.43,240.53a2,2,0,0,1-.95-.23l-13.2-6.65a2.12,2.12,0,1,1,1.9-3.78l13.2,6.65a2.12,2.12,0,0,1-1,4Z"/><path class="cls-1" d="M743.61,246.44H726.35a15.82,15.82,0,0,1-6.2-30.38,23.28,23.28,0,1,1,42.94-15,2.11,2.11,0,1,1-4.2.5,19.06,19.06,0,1,0-33.71,14.31,2.1,2.1,0,0,1-1.21,3.4,11.6,11.6,0,0,0,2.38,23h17.26a2.12,2.12,0,1,1,0,4.23Z"/><path class="cls-1" d="M642.91,408.89H587a14.51,14.51,0,0,1-14.5-14.5V338.88a2.12,2.12,0,0,1,4.23,0v55.51A10.29,10.29,0,0,0,587,404.66h55.91a2.12,2.12,0,0,1,0,4.23Z"/><path class="cls-1" d="M590.1,397.38a2.12,2.12,0,0,1-2.12-2.12V372a2.12,2.12,0,0,1,4.23,0v23.23A2.11,2.11,0,0,1,590.1,397.38Z"/><path class="cls-1" d="M605.58,397.38a2.12,2.12,0,0,1-2.11-2.12V366.48a2.12,2.12,0,1,1,4.23,0v28.78A2.12,2.12,0,0,1,605.58,397.38Z"/><path class="cls-1" d="M621.07,397.38a2.12,2.12,0,0,1-2.12-2.12V375.21a2.12,2.12,0,0,1,4.23,0v20.05A2.11,2.11,0,0,1,621.07,397.38Z"/><path class="cls-1" d="M636.75,397.38a2.11,2.11,0,0,1-2.11-2.12V363.1a2.12,2.12,0,0,1,4.23,0v32.16A2.12,2.12,0,0,1,636.75,397.38Z"/><path class="cls-1" d="M589.7,362.83a2.12,2.12,0,0,1-1.49-3.61l12.32-12.32a7.69,7.69,0,0,1,10.89,0l7.79,7.78a3.41,3.41,0,0,0,2.45,1,3.45,3.45,0,0,0,2.46-1l17.29-17.29a2.11,2.11,0,0,1,3,3l-17.29,17.29a7.69,7.69,0,0,1-10.89,0l-7.79-7.78a3.46,3.46,0,0,0-4.91,0L591.2,362.21A2.15,2.15,0,0,1,589.7,362.83Z"/><path class="cls-1" d="M623.41,251.7H582.14a15.49,15.49,0,0,1-15.47-15.47V200.84a15.49,15.49,0,0,1,15.47-15.47h41.27a15.49,15.49,0,0,1,15.47,15.47v35.39A15.49,15.49,0,0,1,623.41,251.7Zm-41.27-62.1a11.25,11.25,0,0,0-11.24,11.24v35.39a11.25,11.25,0,0,0,11.24,11.23h41.27a11.25,11.25,0,0,0,11.24-11.23V200.84a11.26,11.26,0,0,0-11.24-11.24Z"/><path class="cls-1" d="M587.33,189.6a2.11,2.11,0,0,1-2.12-2.11v-6.75a2.12,2.12,0,1,1,4.23,0v6.75A2.1,2.1,0,0,1,587.33,189.6Z"/><path class="cls-1" d="M618.1,189.6a2.11,2.11,0,0,1-2.12-2.11v-6.75a2.12,2.12,0,1,1,4.23,0v6.75A2.1,2.1,0,0,1,618.1,189.6Z"/><path class="cls-1" d="M636.76,208.46h-66.9a2.12,2.12,0,1,1,0-4.23h66.9a2.12,2.12,0,1,1,0,4.23Z"/><circle class="cls-1" cx="587.4" cy="224.69" r="4.68"/><circle class="cls-1" cx="602.49" cy="224.69" r="4.68"/><circle class="cls-1" cx="618.03" cy="224.69" r="4.68"/><path class="cls-1" d="M479.55,248.32H438.28a15.49,15.49,0,0,1-15.47-15.47V197.46A15.49,15.49,0,0,1,438.28,182h41.27A15.49,15.49,0,0,1,495,197.46v35.39A15.49,15.49,0,0,1,479.55,248.32Zm-41.27-62.09A11.25,11.25,0,0,0,427,197.46v35.39a11.25,11.25,0,0,0,11.24,11.24h41.27a11.26,11.26,0,0,0,11.24-11.24V197.46a11.25,11.25,0,0,0-11.24-11.23Z"/><path class="cls-1" d="M492.9,205.09H426.07a2.12,2.12,0,1,1,0-4.23H492.9a2.12,2.12,0,1,1,0,4.23Z"/><circle class="cls-1" cx="433.42" cy="193.52" r="2.9"/><circle class="cls-1" cx="442.75" cy="193.52" r="2.9"/><circle class="cls-1" cx="452.37" cy="193.52" r="2.9"/><path class="cls-1" d="M478.41,220.17H439.3a2.12,2.12,0,1,1,0-4.23h39.11a2.12,2.12,0,0,1,0,4.23Z"/><path class="cls-1" d="M464.91,232.48H439.3a2.12,2.12,0,1,1,0-4.23h25.61a2.12,2.12,0,0,1,0,4.23Z"/><path class="cls-1" d="M326.83,251h-4.11a9.3,9.3,0,0,1-9.29-9.29,24.38,24.38,0,0,0-7.28-17.35,26.38,26.38,0,1,1,45-18.67,26.14,26.14,0,0,1-7.94,18.85,24.12,24.12,0,0,0-7.1,17.17A9.29,9.29,0,0,1,326.83,251Zm-2.05-67.46h-.66a22.15,22.15,0,0,0-15,37.82,28.59,28.59,0,0,1,8.52,20.34,5.07,5.07,0,0,0,5.06,5.06h4.11a5.07,5.07,0,0,0,5.06-5.06,28.38,28.38,0,0,1,8.37-20.19,22.14,22.14,0,0,0-15.48-38Z"/><path class="cls-1" d="M334,239.13H315.55a2.12,2.12,0,1,1,0-4.23H334a2.12,2.12,0,0,1,0,4.23Z"/><path class="cls-1" d="M324.78,211.05a8.74,8.74,0,0,1-8.73-8.73,2.12,2.12,0,0,1,4.24,0,4.49,4.49,0,1,0,9,0,2.12,2.12,0,0,1,4.23,0A8.74,8.74,0,0,1,324.78,211.05Z"/><path class="cls-1" d="M324.78,238.14a2.12,2.12,0,0,1-2.12-2.12V208.93a2.12,2.12,0,0,1,4.23,0V236A2.11,2.11,0,0,1,324.78,238.14Z"/><path class="cls-1" d="M219.1,208.47H161A7.64,7.64,0,0,1,157.6,194l28.24-14.08a9.07,9.07,0,0,1,8,0L222.48,194a7.64,7.64,0,0,1-3.38,14.49ZM189.88,183.2a4.88,4.88,0,0,0-2.15.5h0l-28.24,14.09a3.4,3.4,0,0,0,1.52,6.44H219.1a3.4,3.4,0,0,0,1.51-6.45L192,183.69A4.74,4.74,0,0,0,189.88,183.2Zm-3.09-1.39h0Z"/><path class="cls-1" d="M224.27,251.35H155.71a2.12,2.12,0,0,1,0-4.23h68.56a2.12,2.12,0,0,1,0,4.23Z"/><path class="cls-1" d="M221.23,238.91H159.29a2.12,2.12,0,0,1,0-4.24h61.94a2.12,2.12,0,0,1,0,4.24Z"/><path class="cls-1" d="M165.51,238.51a2.12,2.12,0,0,1-2.12-2.12v-29a2.12,2.12,0,1,1,4.23,0v29A2.11,2.11,0,0,1,165.51,238.51Z"/><path class="cls-1" d="M199.65,238.51a2.11,2.11,0,0,1-2.11-2.12v-29a2.12,2.12,0,1,1,4.23,0v29A2.12,2.12,0,0,1,199.65,238.51Z"/><path class="cls-1" d="M215,238.51a2.12,2.12,0,0,1-2.12-2.12v-29a2.12,2.12,0,1,1,4.23,0v29A2.12,2.12,0,0,1,215,238.51Z"/><path class="cls-1" d="M181,238.51a2.11,2.11,0,0,1-2.11-2.12v-29a2.12,2.12,0,1,1,4.23,0v29A2.12,2.12,0,0,1,181,238.51Z"/><path class="cls-1" d="M45.21,251.66a36.5,36.5,0,1,1,36.5-36.5A36.55,36.55,0,0,1,45.21,251.66Zm0-68.77a32.27,32.27,0,1,0,32.27,32.27A32.31,32.31,0,0,0,45.21,182.89Z"/><path class="cls-1" d="M45.21,230.38a2.12,2.12,0,0,1-2.11-2.12v-26.2a2.12,2.12,0,1,1,4.23,0v26.2A2.12,2.12,0,0,1,45.21,230.38Z"/><path class="cls-1" d="M58.32,217.27H32.11a2.12,2.12,0,0,1,0-4.23H58.32a2.12,2.12,0,0,1,0,4.23Z"/><path class="cls-1" d="M64.48,397.05H26.41a11.83,11.83,0,0,1-11.73-13.31l2.78-21.85a28.21,28.21,0,0,1,56,0l2.77,21.85a11.83,11.83,0,0,1-11.72,13.31Zm-19-55.59a24,24,0,0,0-23.78,21l-2.78,21.86a7.59,7.59,0,0,0,7.53,8.53H64.48A7.58,7.58,0,0,0,72,384.28l-2.77-21.86A24,24,0,0,0,45.44,341.46Z"/><path class="cls-1" d="M45.44,408.43a12.85,12.85,0,0,1-12.83-12.84,2.12,2.12,0,0,1,4.23,0,8.61,8.61,0,1,0,17.21,0,2.12,2.12,0,0,1,4.23,0A12.85,12.85,0,0,1,45.44,408.43Z"/><path class="cls-1" d="M182.25,408.57A35.75,35.75,0,1,1,218,372.83,35.78,35.78,0,0,1,182.25,408.57Zm0-67.26a31.52,31.52,0,1,0,31.52,31.52A31.55,31.55,0,0,0,182.25,341.31Z"/><path class="cls-1" d="M159.26,398.51a2.11,2.11,0,0,1-1.5-3.61l46.72-46.71a2.11,2.11,0,0,1,3,3L160.75,397.9A2.1,2.1,0,0,1,159.26,398.51Z"/><path class="cls-1" d="M311.66,368.33H295.72a7.52,7.52,0,0,1-7.51-7.52V344.87a7.52,7.52,0,0,1,7.51-7.51h15.94a7.52,7.52,0,0,1,7.51,7.51v15.94A7.52,7.52,0,0,1,311.66,368.33Zm-15.94-26.74a3.28,3.28,0,0,0-3.28,3.28v15.94a3.29,3.29,0,0,0,3.28,3.29h15.94a3.29,3.29,0,0,0,3.28-3.29V344.87a3.28,3.28,0,0,0-3.28-3.28Z"/><path class="cls-1" d="M311.66,408.3H295.72a7.52,7.52,0,0,1-7.51-7.52V384.84a7.52,7.52,0,0,1,7.51-7.51h15.94a7.52,7.52,0,0,1,7.51,7.51v15.94A7.52,7.52,0,0,1,311.66,408.3Zm-15.94-26.74a3.28,3.28,0,0,0-3.28,3.28v15.94a3.28,3.28,0,0,0,3.28,3.28h15.94a3.28,3.28,0,0,0,3.28-3.28V384.84a3.28,3.28,0,0,0-3.28-3.28Z"/><path class="cls-1" d="M352.16,408.3H336.22a7.52,7.52,0,0,1-7.51-7.52V384.84a7.52,7.52,0,0,1,7.51-7.51h15.94a7.52,7.52,0,0,1,7.51,7.51v15.94A7.52,7.52,0,0,1,352.16,408.3Zm-15.94-26.74a3.28,3.28,0,0,0-3.28,3.28v15.94a3.28,3.28,0,0,0,3.28,3.28h15.94a3.28,3.28,0,0,0,3.28-3.28V384.84a3.28,3.28,0,0,0-3.28-3.28Z"/><path class="cls-1" d="M342.65,369.12a2.12,2.12,0,0,1-2.12-2.12V341.06a2.12,2.12,0,0,1,4.23,0V367A2.12,2.12,0,0,1,342.65,369.12Z"/><path class="cls-1" d="M355.62,356.15H329.68a2.12,2.12,0,1,1,0-4.23h25.94a2.12,2.12,0,0,1,0,4.23Z"/><path class="cls-1" d="M466.12,408.65A32.91,32.91,0,1,1,499,375.74,32.95,32.95,0,0,1,466.12,408.65Zm0-61.59a28.68,28.68,0,1,0,28.68,28.68A28.72,28.72,0,0,0,466.12,347.06Z"/><path class="cls-1" d="M500.17,352.85a2.12,2.12,0,0,1-2.12-2.12,9.88,9.88,0,0,0-9.87-9.87,2.12,2.12,0,0,1,0-4.23,14.11,14.11,0,0,1,14.1,14.1A2.11,2.11,0,0,1,500.17,352.85Z"/><path class="cls-1" d="M432,352.85a2.11,2.11,0,0,1-2.11-2.12,14.11,14.11,0,0,1,14.1-14.1,2.12,2.12,0,0,1,0,4.23,9.88,9.88,0,0,0-9.87,9.87A2.12,2.12,0,0,1,432,352.85Z"/><path class="cls-1" d="M438.75,409a2.11,2.11,0,0,1-2.11-2.12,14,14,0,0,1,5.2-10.94,2.11,2.11,0,1,1,2.67,3.28,9.87,9.87,0,0,0-3.64,7.66A2.12,2.12,0,0,1,438.75,409Z"/><path class="cls-1" d="M493.57,409a2.11,2.11,0,0,1-2.11-2.12,9.84,9.84,0,0,0-3.65-7.66,2.11,2.11,0,0,1,2.67-3.28,14,14,0,0,1,5.21,10.94A2.12,2.12,0,0,1,493.57,409Z"/><path class="cls-1" d="M476,384.41a2.11,2.11,0,0,1-1.49-.62l-10-10a2.16,2.16,0,0,1-.62-1.5V356.88a2.12,2.12,0,0,1,4.23,0v14.51l9.41,9.41a2.12,2.12,0,0,1-1.5,3.61Z"/><path class="cls-1" d="M1041.45,412.26a27.42,27.42,0,0,1-24.82-39.1l20.23-38.54a4.21,4.21,0,0,1,3.77-2.38h.07a4.25,4.25,0,0,1,3.81,2.34l21.37,37.8a27.42,27.42,0,0,1-24.43,39.88Zm-.75-76.51h0a.76.76,0,0,0-.67.44l-20.23,38.53a23.91,23.91,0,1,0,43-.68l-21.37-37.8A.77.77,0,0,0,1040.7,335.75Z"/></svg>