<svg xmlns="http://www.w3.org/2000/svg" width="70.345" height="77.239" viewBox="0 0 70.345 77.239">
  <g id="Grupo_1241" data-name="Grupo 1241" transform="translate(-712.169 -1081.131)">
    <g id="Grupo_1241-2" data-name="Grupo 1241" transform="translate(712.169 1090.297)">
      <path id="Trazado_1336" data-name="Trazado 1336" d="M714.268,1106.7a2.1,2.1,0,0,1-1.705-3.325l.271-.389c.189-.275.38-.548.582-.813a42.823,42.823,0,0,1,66.958-1.1c.611.744,1.182,1.521,1.743,2.3a2.1,2.1,0,1,1-3.409,2.453c-.508-.708-1.021-1.411-1.575-2.081a38.619,38.619,0,0,0-60.393,1c-.16.2-.3.414-.447.624l-.317.456A2.1,2.1,0,0,1,714.268,1106.7Z" transform="translate(-712.169 -1085.495)" fill="#ffc10b"/>
    </g>
    <g id="Grupo_1242" data-name="Grupo 1242" transform="translate(720.317 1081.131)">
      <path id="Trazado_1337" data-name="Trazado 1337" d="M718.15,1091.7a2.1,2.1,0,0,1-1.008-3.945,54.121,54.121,0,0,1,51.879,0,2.1,2.1,0,1,1-2.018,3.684,49.921,49.921,0,0,0-47.846,0A2.093,2.093,0,0,1,718.15,1091.7Z" transform="translate(-716.048 -1081.131)" fill="#ffc10b"/>
    </g>
    <g id="Grupo_1243" data-name="Grupo 1243" transform="translate(715.425 1099.613)">
      <path id="Trazado_1338" data-name="Trazado 1338" d="M718.808,1136.777a2.1,2.1,0,0,1-1.888-1.18,31.464,31.464,0,0,1-3.2-13.906,31.761,31.761,0,0,1,63.522,0,2.1,2.1,0,0,1-4.2,0,27.561,27.561,0,1,0-52.347,12.066,2.1,2.1,0,0,1-1.886,3.02Z" transform="translate(-713.719 -1089.931)" fill="#ffc10b"/>
    </g>
    <g id="Grupo_1244" data-name="Grupo 1244" transform="translate(755.202 1127.799)">
      <path id="Trazado_1339" data-name="Trazado 1339" d="M744.59,1117.383a11.945,11.945,0,0,1-11.932-11.932,2.1,2.1,0,0,1,4.2,0,7.73,7.73,0,1,0,15.46,0,2.1,2.1,0,0,1,4.2,0A11.944,11.944,0,0,1,744.59,1117.383Z" transform="translate(-732.658 -1103.351)" fill="#ffc10b"/>
    </g>
    <g id="Grupo_1245" data-name="Grupo 1245" transform="translate(735.273 1118.471)">
      <path id="Trazado_1340" data-name="Trazado 1340" d="M745.789,1138.809a2.063,2.063,0,0,1-.639-.1c-11.264-3.592-16.638-10.816-19.167-16.243a29.277,29.277,0,0,1-2.8-11.125,11.9,11.9,0,0,1,23.779-1.151,2.1,2.1,0,0,1-4.2.223,7.7,7.7,0,0,0-15.384.806c.01.8.407,17.548,19.043,23.489a2.1,2.1,0,0,1-.638,4.1Z" transform="translate(-723.169 -1098.91)" fill="#ffc10b"/>
    </g>
    <g id="Grupo_1246" data-name="Grupo 1246" transform="translate(744.851 1127.853)">
      <path id="Trazado_1341" data-name="Trazado 1341" d="M750.556,1125.68c-6.8,0-12.263-1.877-16.269-5.6-6.351-5.9-6.551-14.221-6.557-14.574a2.1,2.1,0,0,1,2.069-2.132h.031a2.1,2.1,0,0,1,2.1,2.063c0,.145.235,6.973,5.249,11.6,3.577,3.3,8.777,4.772,15.443,4.381a2.1,2.1,0,0,1,.246,4.192Q751.69,1125.68,750.556,1125.68Z" transform="translate(-727.73 -1103.377)" fill="#ffc10b"/>
    </g>
    <g id="Grupo_1247" data-name="Grupo 1247" transform="translate(724.64 1109.375)">
      <path id="Trazado_1342" data-name="Trazado 1342" d="M732.141,1142.389a2.09,2.09,0,0,1-1.405-.538c-14.765-13.272-12.66-26.9-12.354-28.49.206-1.9,2.619-18.783,22.479-18.783,21.028,0,21.757,20.177,21.763,20.381a2.1,2.1,0,0,1-2.048,2.149,2.015,2.015,0,0,1-2.153-2.044c-.017-.668-.678-16.285-17.562-16.285-16.962,0-18.26,14.439-18.308,15.052l-.042.3c-.1.5-2.428,12.5,11.035,24.6a2.1,2.1,0,0,1-1.405,3.661Z" transform="translate(-718.107 -1094.579)" fill="#ffc10b"/>
    </g>
  </g>
</svg>
