<svg xmlns="http://www.w3.org/2000/svg" width="68.167" height="49.428" viewBox="0 0 68.167 49.428">
  <g id="Grupo_1239" data-name="Grupo 1239" transform="translate(-2958.868 215.152)">
    <path id="Trazado_1332" data-name="Trazado 1332" d="M2985.619-187.858a13.645,13.645,0,0,1,2.58,8.012q0,6.518-3.938,10.32t-11,3.8q-7.066,0-10.728-4.346t-3.666-11.406q0-8.415,6.654-16.566a142.447,142.447,0,0,1,16.974-17.11l7.876,5.16a115.177,115.177,0,0,0-11.678,16.838A14.484,14.484,0,0,1,2985.619-187.858Zm36.663,0a13.64,13.64,0,0,1,2.581,8.012q0,6.518-3.938,10.32t-11,3.8q-7.064,0-10.727-4.346t-3.666-11.406q0-8.415,6.654-16.566a142.451,142.451,0,0,1,16.974-17.11l7.876,5.16a115.254,115.254,0,0,0-11.678,16.838A14.482,14.482,0,0,1,3022.282-187.858Z" transform="translate(0)" fill="#00f6a1"/>
  </g>
</svg>
