<svg xmlns="http://www.w3.org/2000/svg" width="72.752" height="69.531" viewBox="0 0 72.752 69.531">
  <g id="Grupo_1260" data-name="Grupo 1260" transform="translate(-828.213 -1128.226)">
    <path id="Trazado_1353" data-name="Trazado 1353" d="M885.522,1135.457l-7.757,7.491-7.486-7.229,7.758-7.492-1.07,8.263Z" transform="translate(15.443 0)" fill="#ffc10b"/>
    <g id="Grupo_1256" data-name="Grupo 1256" transform="translate(828.213 1129.682)">
      <path id="Trazado_1354" data-name="Trazado 1354" d="M863.692,1197.366c-19.565,0-35.479-15.269-35.479-34.038s15.915-34.037,35.479-34.037h.133a36.094,36.094,0,0,1,21,6.691l.116.1.474.491-4.851,4.686,6.5,6.278,4.853-4.687.476.476a33.167,33.167,0,0,1,6.781,20C899.173,1182.1,883.256,1197.366,863.692,1197.366Zm.13-66.708H863.7c-18.813,0-34.115,14.655-34.115,32.67S844.882,1196,863.692,1196s34.113-14.656,34.113-32.671a31.8,31.8,0,0,0-5.98-18.486l-4.763,4.6-8.469-8.18,4.789-4.623A34.725,34.725,0,0,0,863.822,1130.658Zm-.13,55.137c-12.907,0-23.406-10.078-23.406-22.467s10.5-22.467,23.406-22.467h.117a23.684,23.684,0,0,1,16.628,6.767l0,0a21.9,21.9,0,0,1,6.661,15.7C887.1,1175.717,876.6,1185.795,863.692,1185.795Zm.115-43.567H863.7c-12.156,0-22.042,9.466-22.042,21.1s9.886,21.1,22.039,21.1,22.042-9.466,22.042-21.1a20.54,20.54,0,0,0-6.252-14.722A22.326,22.326,0,0,0,863.807,1142.228Z" transform="translate(-828.213 -1129.291)" fill="#ffc10b"/>
    </g>
    <path id="Trazado_1355" data-name="Trazado 1355" d="M878.589,1140.935l-1.3,1.255-1.77,1.708-7.483-7.229,1.791-1.731,1.275-1.232Z" transform="translate(14.619 2.012)" fill="#ffc10b"/>
    <g id="Grupo_1257" data-name="Grupo 1257" transform="translate(840.286 1141.252)">
      <path id="Trazado_1356" data-name="Trazado 1356" d="M860.45,1182.688c-12.907,0-23.406-10.078-23.406-22.467s10.5-22.467,23.406-22.467h.117a23.684,23.684,0,0,1,16.628,6.767l0,0a21.9,21.9,0,0,1,6.661,15.7C883.859,1172.61,873.357,1182.688,860.45,1182.688Zm.115-43.567h-.112c-12.156,0-22.042,9.466-22.042,21.1s9.886,21.1,22.039,21.1,22.042-9.466,22.042-21.1a20.541,20.541,0,0,0-6.252-14.724A22.333,22.333,0,0,0,860.565,1139.121Zm-.115,30.73a9.637,9.637,0,1,1,0-19.26h.055a10.225,10.225,0,0,1,7.259,3.051,9.333,9.333,0,0,1,2.7,6.579A9.841,9.841,0,0,1,860.45,1169.851Zm.051-17.893h-.046a8.271,8.271,0,1,0,8.647,8.263,7.973,7.973,0,0,0-2.312-5.619h0A8.848,8.848,0,0,0,860.5,1151.958Z" transform="translate(-837.044 -1137.754)" fill="#ffc10b"/>
    </g>
    <g id="Grupo_1258" data-name="Grupo 1258" transform="translate(853.677 1154.089)">
      <path id="Trazado_1357" data-name="Trazado 1357" d="M856.854,1166.4a9.637,9.637,0,1,1,0-19.26h.055a10.225,10.225,0,0,1,7.259,3.051,9.332,9.332,0,0,1,2.7,6.578A9.841,9.841,0,0,1,856.854,1166.4Zm.051-17.893h-.047a8.271,8.271,0,1,0,8.647,8.263,7.973,7.973,0,0,0-2.312-5.619h0A8.848,8.848,0,0,0,856.905,1148.511Z" transform="translate(-846.839 -1147.144)" fill="#ffc10b"/>
    </g>
    <g id="Grupo_1259" data-name="Grupo 1259" transform="translate(862.704 1144.02)">
      <path id="Trazado_1358" data-name="Trazado 1358" d="M854.688,1160.965a1.239,1.239,0,0,0,.865-.349l19.371-18.7a1.246,1.246,0,0,0-1.731-1.793l-19.371,18.7a1.246,1.246,0,0,0,.865,2.142Z" transform="translate(-853.442 -1139.779)" fill="#ffc10b"/>
    </g>
    <path id="Trazado_1359" data-name="Trazado 1359" d="M876.346,1143.1l-3.075,2.971-3.745-3.613-3.742-3.615,3.077-2.972Z" transform="translate(13.793 2.807)" fill="#ffc10b"/>
  </g>
</svg>
