<svg xmlns="http://www.w3.org/2000/svg" width="82.445" height="70.141" viewBox="0 0 82.445 70.141">
  <g id="Grupo_1250" data-name="Grupo 1250" transform="matrix(0.951, -0.309, 0.309, 0.951, -1072.074, -821.846)">
    <g id="Grupo_1250-2" data-name="Grupo 1250" transform="translate(755.933 1142.782)">
      <path id="Trazado_1347" data-name="Trazado 1347" d="M775.336,1160.052H762.149a6.223,6.223,0,0,1-6.216-6.216V1145.3a6.223,6.223,0,0,1,6.216-6.216h13.188Zm-13.188-18.195a3.45,3.45,0,0,0-3.446,3.446v8.532a3.449,3.449,0,0,0,3.446,3.447h10.418v-15.425Z" transform="translate(-755.933 -1139.088)" fill="#ffc10b"/>
    </g>
    <g id="Grupo_1251" data-name="Grupo 1251" transform="translate(772.567 1129.484)">
      <path id="Trazado_1348" data-name="Trazado 1348" d="M809.234,1177.046a2.806,2.806,0,0,1-.883-.144l-40.4-13.544v-20.187l40.406-13.545a2.787,2.787,0,0,1,3.672,2.643v41.989a2.789,2.789,0,0,1-2.79,2.787Zm-38.519-15.681,38.515,12.911.025-42.006-38.54,12.894Z" transform="translate(-767.946 -1129.484)" fill="#ffc10b"/>
    </g>
    <g id="Grupo_1252" data-name="Grupo 1252" transform="translate(766.308 1162.43)">
      <path id="Trazado_1349" data-name="Trazado 1349" d="M776.045,1177.726h-6.526a3.06,3.06,0,0,1-3.013-2.61l-3.08-21.446,2.743-.393,3.08,21.445a.27.27,0,0,0,.27.235h6.526a.273.273,0,0,0,.27-.313l-2.9-20.209,2.743-.393,2.9,20.209a3.045,3.045,0,0,1-3.013,3.475Z" transform="translate(-763.426 -1153.277)" fill="#ffc10b"/>
    </g>
    <g id="Grupo_1253" data-name="Grupo 1253" transform="translate(819.872 1136.155)">
      <path id="Trazado_1350" data-name="Trazado 1350" d="M803.5,1143.57a1.385,1.385,0,0,1-.735-2.56l10.4-6.5a1.385,1.385,0,1,1,1.468,2.348l-10.4,6.5A1.378,1.378,0,0,1,803.5,1143.57Z" transform="translate(-802.109 -1134.302)" fill="#ffc10b"/>
    </g>
    <g id="Grupo_1254" data-name="Grupo 1254" transform="translate(820.391 1153.96)">
      <path id="Trazado_1351" data-name="Trazado 1351" d="M813.485,1149.93h-9.617a1.385,1.385,0,1,1,0-2.769h9.617a1.385,1.385,0,1,1,0,2.769Z" transform="translate(-802.484 -1147.16)" fill="#ffc10b"/>
    </g>
    <g id="Grupo_1255" data-name="Grupo 1255" transform="translate(820.391 1164.875)">
      <path id="Trazado_1352" data-name="Trazado 1352" d="M813.095,1164.441a1.373,1.373,0,0,1-.806-.26l-9.228-6.629a1.384,1.384,0,1,1,1.615-2.249l9.227,6.629a1.384,1.384,0,0,1-.809,2.509Z" transform="translate(-802.484 -1155.043)" fill="#ffc10b"/>
    </g>
  </g>
</svg>
