<svg xmlns="http://www.w3.org/2000/svg" width="63" height="63" viewBox="0 0 63 63">
  <g id="Grupo_1240" data-name="Grupo 1240" transform="translate(-663.314 -1086.341)">
    <path id="Trazado_1333" data-name="Trazado 1333" d="M666.638,1109.365l8.474-8.474,8.474,8.474a1.991,1.991,0,0,0,2.754,0,1.953,1.953,0,0,0,0-2.754l-8.474-8.474,8.474-8.474a1.947,1.947,0,0,0-2.754-2.754l-8.474,8.476-8.474-8.476a1.947,1.947,0,0,0-2.754,2.754l8.474,8.474-8.474,8.474a1.949,1.949,0,0,0,0,2.754A1.992,1.992,0,0,0,666.638,1109.365Z" transform="translate(0 0.001)" fill="#ffc10b"/>
    <path id="Trazado_1334" data-name="Trazado 1334" d="M684.066,1126.8l8.474-8.476,8.474,8.476a2,2,0,0,0,2.754,0,1.949,1.949,0,0,0,0-2.754l-8.474-8.474,8.474-8.476a1.946,1.946,0,0,0-2.754-2.752l-8.474,8.474-8.474-8.474a1.946,1.946,0,0,0-2.754,2.752l8.476,8.476-8.476,8.474a1.949,1.949,0,0,0,0,2.754A2,2,0,0,0,684.066,1126.8Z" transform="translate(21.975 21.975)" fill="#ffc10b"/>
    <path id="Trazado_1335" data-name="Trazado 1335" d="M724.367,1109.938a1.952,1.952,0,0,0,1.947-1.949v-19.7a1.864,1.864,0,0,0-.152-.74l0,0a1.923,1.923,0,0,0-1.049-1.052,1.975,1.975,0,0,0-.744-.151h-19.7a1.947,1.947,0,1,0,0,3.893h15l-37.707,37.709-.353-.233a11.825,11.825,0,1,0,3.339,3.337l-.233-.351,37.707-37.709v15A1.952,1.952,0,0,0,724.367,1109.938Zm-49.256,35.507a7.9,7.9,0,1,1,7.9-7.9A7.913,7.913,0,0,1,675.111,1145.446Z" transform="translate(0 0)" fill="#ffc10b"/>
  </g>
</svg>
