<svg xmlns="http://www.w3.org/2000/svg" width="80.2" height="80.2" viewBox="0 0 80.2 80.2">
  <path id="Trazado_1346" data-name="Trazado 1346" d="M730.576,1218.761a1.294,1.294,0,0,0,1.294-1.294v-5.173a1.294,1.294,0,0,0-1.294-1.294H725.4a1.294,1.294,0,0,0-1.294,1.294v1.292H695.651v-1.292a1.294,1.294,0,0,0-1.294-1.294h-5.175a1.294,1.294,0,0,0-1.294,1.294v1.292H659.431v-1.292a1.294,1.294,0,0,0-1.294-1.294h-5.173a1.294,1.294,0,0,0-1.294,1.294v5.173a1.294,1.294,0,0,0,1.294,1.294h1.292v28.458h-1.292a1.294,1.294,0,0,0-1.294,1.294v5.175a1.294,1.294,0,0,0,1.294,1.294h1.292v28.458h-1.292a1.294,1.294,0,0,0-1.294,1.294v5.173a1.294,1.294,0,0,0,1.294,1.294h5.173a1.294,1.294,0,0,0,1.294-1.294v-1.293h28.458v1.293a1.294,1.294,0,0,0,1.294,1.294h5.175a1.294,1.294,0,0,0,1.294-1.294v-1.293h28.458v1.293a1.294,1.294,0,0,0,1.294,1.294h5.173a1.294,1.294,0,0,0,1.294-1.294v-5.173a1.294,1.294,0,0,0-1.294-1.294h-1.292v-28.458h1.292a1.294,1.294,0,0,0,1.294-1.294v-5.175a1.294,1.294,0,0,0-1.294-1.294h-1.292v-28.458Zm-3.88-5.175h2.588v2.588H726.7Zm-36.219,0h2.586v2.588h-2.586Zm-36.22,0h2.588v2.588h-2.588Zm0,36.22h2.588v2.587h-2.588Zm2.588,38.807h-2.588v-2.588h2.588Zm36.219,0h-2.586v-2.588h2.586Zm36.22,0H726.7v-2.588h2.588Zm0-36.22H726.7v-2.587h2.588Zm-2.588-5.175H725.4a1.294,1.294,0,0,0-1.294,1.294v5.175a1.294,1.294,0,0,0,1.294,1.294H726.7v28.458H725.4a1.294,1.294,0,0,0-1.294,1.294v1.292H695.651v-1.292a1.294,1.294,0,0,0-1.294-1.294h-5.175a1.294,1.294,0,0,0-1.294,1.294v1.292H659.431v-1.292a1.294,1.294,0,0,0-1.294-1.294h-1.292v-28.458h1.292a1.294,1.294,0,0,0,1.294-1.294v-5.175a1.294,1.294,0,0,0-1.294-1.294h-1.292v-28.458h1.292a1.294,1.294,0,0,0,1.294-1.294v-1.292h28.458v1.292a1.294,1.294,0,0,0,1.294,1.294h5.175a1.294,1.294,0,0,0,1.294-1.294v-1.292h28.458v1.292a1.294,1.294,0,0,0,1.294,1.294H726.7Z" transform="translate(-651.67 -1211)" fill="#ffc10b"/>
</svg>
