<svg id="Grupo_1237" data-name="Grupo 1237" xmlns="http://www.w3.org/2000/svg" width="100.982" height="76.259" viewBox="0 0 100.982 76.259">
  <path id="Trazado_1290" data-name="Trazado 1290" d="M714.949,239.743c-2.738-2.251-7.046-.644-10.172-.076a93.583,93.583,0,0,1-11.166,1.253c-4.434.265-4.465,6.989,0,6.722a111.8,111.8,0,0,0,12.252-1.359c3.147-.54,8.661-1.254,9.527-4.925A1.622,1.622,0,0,0,714.949,239.743Z" transform="translate(-678.586 -192.94)" fill="#1c5dd8"/>
  <path id="Trazado_1291" data-name="Trazado 1291" d="M722.858,237.68a3.6,3.6,0,0,0-2.519-1.012,4.431,4.431,0,0,0-2.081.545,3.425,3.425,0,0,0-1.243,1.206l-.35.8a3.275,3.275,0,0,0,0,1.787,2.5,2.5,0,0,0,.621,1.143,2.594,2.594,0,0,0,.973.865,2.628,2.628,0,0,0,1.289.4,2.707,2.707,0,0,0,1.383-.059,3.5,3.5,0,0,0,1.53-.864,1.753,1.753,0,0,1,.166-.142l-.11.083a3.358,3.358,0,0,0,1.151-1.68A3.064,3.064,0,0,0,722.858,237.68Z" transform="translate(-674.214 -193.258)" fill="#1c5dd8"/>
  <path id="Trazado_1292" data-name="Trazado 1292" d="M747.709,234.42c-2.277-2.4-6-1.032-8.74-.378-3.23.771-6.558,1.035-9.779,1.862-4.311,1.1-2.482,7.591,1.843,6.482,3.111-.8,6.317-1.067,9.441-1.781,2.659-.609,5.9-1.232,7.6-3.469A2.207,2.207,0,0,0,747.709,234.42Z" transform="translate(-672.519 -193.858)" fill="#1c5dd8"/>
  <path id="Trazado_1293" data-name="Trazado 1293" d="M758.349,234.751a2.856,2.856,0,0,0-.764-1.27,2.993,2.993,0,0,0-1.31-.741l-.149-.061.734.3a6.654,6.654,0,0,0-2.351-.572,8.783,8.783,0,0,0-1.9.252,3.467,3.467,0,0,0-2.065,1.539,3.327,3.327,0,0,0-.348,2.58,3.4,3.4,0,0,0,1.586,2,4.01,4.01,0,0,0,2.662.337,5.511,5.511,0,0,0,3.14-1.566A2.871,2.871,0,0,0,758.349,234.751Z" transform="translate(-668.634 -193.967)" fill="#1c5dd8"/>
  <path id="Trazado_1294" data-name="Trazado 1294" d="M691.012,254.489c-2.47-1.326-5.637-.154-8.224.377A3.387,3.387,0,0,0,680.366,259a3.548,3.548,0,0,0,4.266,2.347c2.283-.468,5.264-.582,7-2.22A2.929,2.929,0,0,0,691.012,254.489Z" transform="translate(-680.253 -190.394)" fill="#1c5dd8"/>
  <path id="Trazado_1295" data-name="Trazado 1295" d="M724.195,249.321c-4.072-1.038-8.7.433-12.7,1.184-4.394.825-8.882,1.015-13.241,2.039-4.336,1.018-2.5,7.5,1.844,6.482,8.192-1.923,18.028-1.171,24.927-6.664A1.811,1.811,0,0,0,724.195,249.321Z" transform="translate(-677.67 -191.212)" fill="#1c5dd8"/>
  <path id="Trazado_1296" data-name="Trazado 1296" d="M738.659,246.4a6.482,6.482,0,0,0-2.911-.912,18.633,18.633,0,0,0-2.251.12c-1.8.129-3.555,1.453-3.468,3.362a3.456,3.456,0,0,0,3.468,3.36c2.153-.154,4.175-.253,5.689-1.968A2.515,2.515,0,0,0,738.659,246.4Z" transform="translate(-671.97 -191.792)" fill="#1c5dd8"/>
  <path id="Trazado_1297" data-name="Trazado 1297" d="M756.442,243.678c-2.463-1.832-6.091-.828-8.8-.173-4.329,1.045-2.5,7.529,1.844,6.482,2.523-.609,5.486-.921,7.431-2.768C758.091,246.1,757.6,244.536,756.442,243.678Z" transform="translate(-669.45 -192.265)" fill="#1c5dd8"/>
  <path id="Trazado_1298" data-name="Trazado 1298" d="M750.3,256.2a58.538,58.538,0,0,0-12.141,1.03,110.431,110.431,0,0,0-12.148,2.416c-4.281,1.192-2.461,7.681,1.844,6.482,7.572-2.108,17.589-1.608,23.561-7.318A1.54,1.54,0,0,0,750.3,256.2Z" transform="translate(-673.044 -190.015)" fill="#1c5dd8"/>
  <path id="Trazado_1299" data-name="Trazado 1299" d="M762.5,254.2a5.193,5.193,0,0,0-3.247-1.221c-.717.015-1.427.134-2.151.127a3.363,3.363,0,1,0,0,6.722,10.947,10.947,0,0,0,3.074-.247,4.75,4.75,0,0,0,3.032-2.787A2.531,2.531,0,0,0,762.5,254.2Z" transform="translate(-668.042 -190.544)" fill="#1c5dd8"/>
  <path id="Trazado_1300" data-name="Trazado 1300" d="M729.014,225.892a60.052,60.052,0,0,0-14.853.955c-4.825.762-9.639,2.608-14.529,2.753a2.465,2.465,0,0,0,0,4.929c5.2.077,10.249-.945,15.394-1.483,5.117-.535,10.455-1.024,14.983-3.593C731.814,228.431,730.869,226.067,729.014,225.892Z" transform="translate(-677.437 -195.077)" fill="#1c5dd8"/>
  <path id="Trazado_1301" data-name="Trazado 1301" d="M739.545,225.1a3.249,3.249,0,0,0-2.353-2.648,10.03,10.03,0,0,0-1.173-.153,6.819,6.819,0,0,0-1.285.15c-.327.058-.65.134-.969.22a3.586,3.586,0,0,0-2.073,1.546,3.334,3.334,0,0,0-.349,2.589,3.411,3.411,0,0,0,1.593,2.009,3.5,3.5,0,0,0,2.671.339,22.065,22.065,0,0,0,2.37-.881,3.2,3.2,0,0,0,1.178-1.143A3.066,3.066,0,0,0,739.545,225.1Z" transform="translate(-671.772 -195.649)" fill="#1c5dd8"/>
  <path id="Trazado_1302" data-name="Trazado 1302" d="M753.74,223.441c-1.044-3.685-5.984-2.137-8.67-1.685a3.365,3.365,0,0,0-2.422,4.135,3.58,3.58,0,0,0,4.266,2.347,32.041,32.041,0,0,0,3.832-.717C752.5,227,754.294,225.394,753.74,223.441Z" transform="translate(-669.891 -195.858)" fill="#1c5dd8"/>
  <path id="Trazado_1303" data-name="Trazado 1303" d="M691.415,229.063c-.379-.1-.745-.195-1.133-.269a9.269,9.269,0,0,0-2.01-.128,3.363,3.363,0,1,0,0,6.722,6.117,6.117,0,0,0,2.818-.595,5.667,5.667,0,0,0,1.568-1.163A2.73,2.73,0,0,0,691.415,229.063Z" transform="translate(-679.496 -194.59)" fill="#1c5dd8"/>
  <path id="Trazado_1304" data-name="Trazado 1304" d="M768.567,222.012c-.488-1.748-2.76-2.552-4.442-2.608a23.351,23.351,0,0,0-5.776.832c-4.333,1-2.495,7.555,1.843,6.482,1.646-.407,3.484-.419,5.084-.909C766.9,225.314,769.109,223.958,768.567,222.012Z" transform="translate(-667.668 -196.132)" fill="#1c5dd8"/>
  <path id="Trazado_1305" data-name="Trazado 1305" d="M741.21,213.741c-3.362-1.606-7.131-.807-10.627-.1a56.131,56.131,0,0,1-10.918,1.47c-4.462.016-4.47,6.738,0,6.722a58.25,58.25,0,0,0,11.193-1.392c3.413-.682,7.422-1.082,10.352-3.055C742.445,216.551,742.788,214.5,741.21,213.741Z" transform="translate(-674.252 -197.229)" fill="#1c5dd8"/>
  <path id="Trazado_1306" data-name="Trazado 1306" d="M751.139,211.986l-.058-.153a3.141,3.141,0,0,0-.84-1.4,3.276,3.276,0,0,0-1.441-.813,3.361,3.361,0,0,0-3.175.813,3.124,3.124,0,0,0-.839,3.078,3.155,3.155,0,0,0,.839,1.4,3.287,3.287,0,0,0,1.441.813l.157.057a3.3,3.3,0,0,0,1.692,0,3.2,3.2,0,0,0,1.406-.793,3.054,3.054,0,0,0,.818-1.362A3.014,3.014,0,0,0,751.139,211.986Z" transform="translate(-669.533 -197.777)" fill="#1c5dd8"/>
  <path id="Trazado_1307" data-name="Trazado 1307" d="M705.8,215.988c-1.6-.94-3.637-.567-5.412-.471a3.474,3.474,0,0,0-3.468,3.362c.077,1.661,1.536,3.56,3.468,3.36,2.31-.238,5.129-.253,6.434-2.474A2.763,2.763,0,0,0,705.8,215.988Z" transform="translate(-677.481 -196.803)" fill="#1c5dd8"/>
  <path id="Trazado_1308" data-name="Trazado 1308" d="M731.1,205.451c-3.013-1.24-6.415-1.166-9.619-.879a98.456,98.456,0,0,0-10.279,1.378c-4.371.863-2.521,7.344,1.843,6.483,3.068-.605,6.149-.914,9.261-1.213,2.949-.283,6.338-.661,8.794-2.421C732.146,208.048,732.637,206.083,731.1,205.451Z" transform="translate(-675.518 -198.629)" fill="#1c5dd8"/>
  <path id="Trazado_1309" data-name="Trazado 1309" d="M740.389,203.73a2.44,2.44,0,0,0-.412-1.249l-.541-.681a3.5,3.5,0,0,0-1.53-.864l-.921-.12a3.539,3.539,0,0,0-1.751.46,6.064,6.064,0,0,0-1.029.737,2.659,2.659,0,0,0-.546.684,2.442,2.442,0,0,0-.412,1.249,2.318,2.318,0,0,0,.063,1.347,3.585,3.585,0,0,0,.352.813,2.972,2.972,0,0,0,.539.678c.02.018.671.511.7.52a3.437,3.437,0,0,0,1.7.447h.019l.034,0a2.683,2.683,0,0,0,1.336-.289,2.6,2.6,0,0,0,.8-.416,2.577,2.577,0,0,0,.92-.834,2.5,2.5,0,0,0,.62-1.143A2.464,2.464,0,0,0,740.389,203.73Z" transform="translate(-671.446 -199.225)" fill="#1c5dd8"/>
  <path id="Trazado_1310" data-name="Trazado 1310" d="M756.492,200.715c-2.376-1.863-5.261-1.1-8.068-1.149a3.363,3.363,0,1,0,0,6.722c2.558.043,6.352-.19,8.068-2.329C757.21,203.062,757.58,201.569,756.492,200.715Z" transform="translate(-669.485 -199.451)" fill="#1c5dd8"/>
</svg>
