<svg id="Grupo_2073" data-name="Grupo 2073" xmlns="http://www.w3.org/2000/svg" xmlns:xlink="http://www.w3.org/1999/xlink" width="135.021" height="40.882" viewBox="0 0 135.021 40.882">
  <defs>
    <clipPath id="clip-path">
      <rect id="Rectángulo_484" data-name="Rectángulo 484" width="135.021" height="40.882" fill="#00f6a1"/>
    </clipPath>
  </defs>
  <g id="Grupo_2072" data-name="Grupo 2072" clip-path="url(#clip-path)">
    <g id="Grupo_2071" data-name="Grupo 2071" transform="translate(0 0)">
      <g id="Grupo_2070" data-name="Grupo 2070" clip-path="url(#clip-path)">
        <path id="Trazado_2233" data-name="Trazado 2233" d="M39.207,18.152a18.576,18.576,0,0,0-4.71-2.889,16.392,16.392,0,0,0,1.828-6.278,5.055,5.055,0,0,0-.27-2.632h0c-.387-.422-2.356-.575-4.014-.5a18.429,18.429,0,0,0-5.7,1.16A16.378,16.378,0,0,0,23,1.578C22.311.85,21.344,0,20.873,0c-.573,0-2.015,1.349-3.081,2.618a18.6,18.6,0,0,0-2.85,4.61,16.351,16.351,0,0,0-5.768-1.3,5.06,5.06,0,0,0-2.617.382c-.406.4-.474,2.378-.333,4.03A18.905,18.905,0,0,0,7.27,15.116a16.4,16.4,0,0,0-5.693,3.432C.85,19.234,0,20.2,0,20.671c0,.573,1.349,2.016,2.618,3.082a18.639,18.639,0,0,0,4.713,2.884A16.393,16.393,0,0,0,5.5,32.922a5.054,5.054,0,0,0,.27,2.631c.326.357,1.782.521,3.225.521.264,0,.529-.005.786-.016a18.491,18.491,0,0,0,5.6-1.119,16.294,16.294,0,0,0,2.9,4.367c.685.728,1.653,1.577,2.123,1.577.573,0,2.015-1.349,3.082-2.618a18.963,18.963,0,0,0,2.564-3.972,16.417,16.417,0,0,0,6.6,1.68c.128,0,.261.006.4.006a4.229,4.229,0,0,0,2.219-.388c.406-.4.475-2.378.334-4.029a18.934,18.934,0,0,0-1.048-4.779,16.442,16.442,0,0,0,5.693-3.426c.729-.686,1.579-1.654,1.579-2.124,0-.573-1.349-2.015-2.618-3.082M32.925,6.59a8.842,8.842,0,0,1,2.578.265c.243.719.6,7.863-5.7,12.973a5.057,5.057,0,0,1-.784.521,6.508,6.508,0,0,0-.873-.283,7.22,7.22,0,0,0,.545-4.247,3.975,3.975,0,0,0-1.355-2.268,16.4,16.4,0,0,0-.755-5.838A18.077,18.077,0,0,1,32.925,6.59M20.5,27.749c-6.241-4.592-7.858-8.982-7.28-11.577a3.246,3.246,0,0,1,2.615-2.622,3.3,3.3,0,0,1,.623-.061c2.652,0,3.644,3.452,3.687,3.61a.369.369,0,0,0,.345.27.359.359,0,0,0,.359-.249c.014-.043,1.482-4.237,4.626-3.637a3.1,3.1,0,0,1,2.5,2.5c.583,2.618-1.082,7.07-7.471,11.768m.372-27c.676.3,5.915,4.634,5.737,12.345a4.059,4.059,0,0,0-1-.332c-2.756-.524-4.389,1.89-5.077,3.25-.716-1.646-2.3-3.667-4.838-3.182a4.114,4.114,0,0,0-.951.313C13.9,6.817,20.019,1.1,20.872.746M7.084,6.843a13.51,13.51,0,0,1,7.59,1.072,11.118,11.118,0,0,0-.617,5.623A4.149,4.149,0,0,0,12.5,16.012a7.476,7.476,0,0,0,.655,4.572c-.121.045-.241.1-.361.152a6.114,6.114,0,0,1-1.014-.576C6.418,16.381,6.725,7.715,7.084,6.843M.746,20.673a13.81,13.81,0,0,1,6.8-4.869,11.309,11.309,0,0,0,3.815,4.958,7.128,7.128,0,0,0,.657.407c-.153.1-.3.214-.455.335a16.436,16.436,0,0,0-3.868,4.482A16.831,16.831,0,0,1,.746,20.673M6.322,35.05c-.243-.718-.6-7.862,5.7-12.974a4.958,4.958,0,0,1,1.451-.822,15.051,15.051,0,0,0,1.744,2.615,5.431,5.431,0,0,0-1.264,3.256,16.357,16.357,0,0,0,1.138,7.134,16.822,16.822,0,0,1-8.771.79m14.086,5.086c-.694-.3-6.206-4.864-5.718-12.966a4.715,4.715,0,0,1,1.019-2.725A27.886,27.886,0,0,0,20.284,28.5a.368.368,0,0,0,.432,0,28.684,28.684,0,0,0,4.478-3.946,5.872,5.872,0,0,1,1.292,2.832c1.129,6.463-5.208,12.383-6.077,12.747m14.333-5.074a13.85,13.85,0,0,1-8.389-1.441,11.4,11.4,0,0,0,.858-6.358A6.582,6.582,0,0,0,25.685,24a15.85,15.85,0,0,0,2.151-3.239,6.038,6.038,0,0,1,2.208.988c5.363,3.779,5.056,12.445,4.7,13.317M34.284,26.1a11.313,11.313,0,0,0-3.816-4.961,7.636,7.636,0,0,0-.655-.413c.152-.1.3-.208.452-.329a16.447,16.447,0,0,0,3.868-4.483,16.824,16.824,0,0,1,6.945,5.314A13.783,13.783,0,0,1,34.284,26.1" transform="translate(0 0)" fill="#00f6a1"/>
        <path id="Trazado_2234" data-name="Trazado 2234" d="M121.522,29.478H114.4q-.187.531-.4,1.155t-.412,1.222q-.2.6-.385,1.116t-.292.863a2.219,2.219,0,0,1-.877.16,1.318,1.318,0,0,1-.757-.226.818.818,0,0,1-.332-.73,1.63,1.63,0,0,1,.08-.492c.053-.168.115-.35.186-.545q.4-1.116,1.023-2.869t1.354-3.732q.73-1.978,1.488-3.984t1.395-3.6a3.314,3.314,0,0,1,.637-.212,3.6,3.6,0,0,1,.876-.107,3.285,3.285,0,0,1,1.023.16.9.9,0,0,1,.624.531q.637,1.541,1.368,3.519t1.474,4.051q.743,2.072,1.421,4.077t1.208,3.626a1.67,1.67,0,0,1-.5.385,1.466,1.466,0,0,1-.664.146,1.162,1.162,0,0,1-.771-.226,1.723,1.723,0,0,1-.451-.757ZM117.963,19.3q-.292.8-.664,1.819t-.771,2.138q-.4,1.116-.8,2.258t-.744,2.178h5.976q-.4-1.2-.823-2.4t-.81-2.324q-.385-1.116-.717-2.059T118.07,19.3Z" transform="translate(-64.221 -10.128)" fill="#00f6a1"/>
        <path id="Trazado_2235" data-name="Trazado 2235" d="M152.339,33.462a1.123,1.123,0,0,1-.332-.85V17.684a3.228,3.228,0,0,1,.412-.12,2.6,2.6,0,0,1,.6-.067q1.169,0,1.169.983V31.922h7.623a1.191,1.191,0,0,1,.292.876,1.03,1.03,0,0,1-.239.717.815.815,0,0,1-.637.265h-8.048a1.159,1.159,0,0,1-.837-.318" transform="translate(-87.986 -10.128)" fill="#00f6a1"/>
        <path id="Trazado_2236" data-name="Trazado 2236" d="M192.226,19.118a.952.952,0,0,1-.226.638,1.483,1.483,0,0,1-.518.4,10.594,10.594,0,0,0-1.62-.9,6.634,6.634,0,0,0-4.675,0,5.1,5.1,0,0,0-1.806,1.248,5.794,5.794,0,0,0-1.208,2.072,8.652,8.652,0,0,0-.438,2.869,8.744,8.744,0,0,0,.425,2.869,5.777,5.777,0,0,0,1.182,2.045,4.782,4.782,0,0,0,1.819,1.235,6.491,6.491,0,0,0,2.364.411,6.813,6.813,0,0,0,2.4-.385,6.623,6.623,0,0,0,1.713-.916,1.336,1.336,0,0,1,.5.385.969.969,0,0,1,.239.65,1.259,1.259,0,0,1-.637,1.01,6.214,6.214,0,0,1-1.674.757,9.268,9.268,0,0,1-2.709.332,8.888,8.888,0,0,1-3.107-.531,6.812,6.812,0,0,1-2.484-1.58,7.483,7.483,0,0,1-1.66-2.617,10.06,10.06,0,0,1-.611-3.665,9.965,9.965,0,0,1,.624-3.679,7.661,7.661,0,0,1,1.687-2.643,6.883,6.883,0,0,1,2.483-1.594,8.462,8.462,0,0,1,2.989-.532,10.1,10.1,0,0,1,2.005.187,6.971,6.971,0,0,1,1.567.491,3.261,3.261,0,0,1,1.01.691,1.132,1.132,0,0,1,.358.757" transform="translate(-103.901 -9.836)" fill="#00f6a1"/>
        <path id="Trazado_2237" data-name="Trazado 2237" d="M226.9,29.478h-7.118q-.187.531-.4,1.155t-.412,1.222q-.2.6-.385,1.116t-.292.863a2.219,2.219,0,0,1-.877.16,1.318,1.318,0,0,1-.757-.226.818.818,0,0,1-.332-.73,1.63,1.63,0,0,1,.08-.492q.08-.252.186-.545.4-1.116,1.023-2.869t1.354-3.732q.73-1.978,1.488-3.984t1.395-3.6a3.314,3.314,0,0,1,.637-.212,3.6,3.6,0,0,1,.876-.107,3.285,3.285,0,0,1,1.023.16.9.9,0,0,1,.624.531q.637,1.541,1.368,3.519t1.474,4.051q.743,2.072,1.421,4.077t1.208,3.626a1.67,1.67,0,0,1-.5.385,1.466,1.466,0,0,1-.664.146,1.162,1.162,0,0,1-.771-.226,1.723,1.723,0,0,1-.452-.757ZM223.345,19.3q-.292.8-.664,1.819t-.771,2.138q-.4,1.116-.8,2.258T220.37,27.7h5.976q-.4-1.2-.823-2.4t-.81-2.324q-.385-1.116-.717-2.059t-.544-1.607Z" transform="translate(-125.219 -10.128)" fill="#00f6a1"/>
        <path id="Trazado_2238" data-name="Trazado 2238" d="M266.132,29.478h-7.118q-.187.531-.4,1.155t-.412,1.222q-.2.6-.385,1.116t-.292.863a2.219,2.219,0,0,1-.877.16,1.318,1.318,0,0,1-.757-.226.818.818,0,0,1-.332-.73,1.631,1.631,0,0,1,.08-.492q.08-.252.186-.545.4-1.116,1.023-2.869T258.2,25.4q.73-1.978,1.488-3.984t1.395-3.6a3.315,3.315,0,0,1,.637-.212,3.6,3.6,0,0,1,.876-.107,3.285,3.285,0,0,1,1.023.16.9.9,0,0,1,.624.531q.637,1.541,1.368,3.519t1.474,4.051q.743,2.072,1.421,4.077t1.208,3.626a1.669,1.669,0,0,1-.5.385,1.466,1.466,0,0,1-.664.146,1.162,1.162,0,0,1-.771-.226,1.723,1.723,0,0,1-.452-.757ZM262.573,19.3q-.293.8-.664,1.819t-.771,2.138q-.4,1.116-.8,2.258T259.6,27.7h5.976q-.4-1.2-.823-2.4t-.81-2.324q-.385-1.116-.717-2.059T262.68,19.3Z" transform="translate(-147.925 -10.128)" fill="#00f6a1"/>
        <path id="Trazado_2239" data-name="Trazado 2239" d="M296.949,33.462a1.123,1.123,0,0,1-.332-.85V17.684a3.23,3.23,0,0,1,.412-.12,2.6,2.6,0,0,1,.6-.067q1.169,0,1.169.983V31.922h7.623a1.19,1.19,0,0,1,.292.876,1.03,1.03,0,0,1-.239.717.815.815,0,0,1-.637.265h-8.048a1.159,1.159,0,0,1-.837-.318" transform="translate(-171.689 -10.128)" fill="#00f6a1"/>
        <path id="Trazado_2240" data-name="Trazado 2240" d="M220.622,62.746a3.075,3.075,0,0,1,2.177.837.114.114,0,0,1,.009.162c-.045.054-.1.108-.144.153-.054.063-.1.054-.153,0a2.768,2.768,0,0,0-1.9-.756,2.835,2.835,0,0,0,0,5.669,3.377,3.377,0,0,0,1.871-.495V66.624h-1.539c-.1,0-.117-.036-.117-.117v-.18c0-.072.018-.108.117-.108h1.845a.118.118,0,0,1,.117.108v2.088a.248.248,0,0,1-.126.234,4.163,4.163,0,0,1-2.159.576,3.239,3.239,0,1,1,0-6.479" transform="translate(-125.816 -36.319)" fill="#00f6a1"/>
        <path id="Trazado_2241" data-name="Trazado 2241" d="M240.976,63.077a.113.113,0,0,1,.117-.117h2.232a1.93,1.93,0,0,1,.522,3.806l1.314,2.33c.045.072.027.162-.063.162h-.279a.127.127,0,0,1-.126-.081l-1.3-2.357c-.117.009-.216.009-.333.009H241.4v2.313c0,.063-.054.117-.144.117h-.162a.119.119,0,0,1-.117-.117Zm2.33,3.374a1.572,1.572,0,0,0,1.592-1.566,1.553,1.553,0,0,0-1.6-1.512h-1.89v3.078Z" transform="translate(-139.483 -36.443)" fill="#00f6a1"/>
        <path id="Trazado_2242" data-name="Trazado 2242" d="M265.005,62.746a3.239,3.239,0,1,1-3.239,3.248,3.235,3.235,0,0,1,3.239-3.248m0,6.083a2.843,2.843,0,1,0-2.843-2.835,2.838,2.838,0,0,0,2.843,2.835" transform="translate(-151.517 -36.319)" fill="#00f6a1"/>
        <path id="Trazado_2243" data-name="Trazado 2243" d="M287.62,63.076a.119.119,0,0,1,.117-.117h.189a.119.119,0,0,1,.117.117v3.842a1.936,1.936,0,1,0,3.869.009V63.076c0-.072.036-.117.126-.117h.18a.119.119,0,0,1,.117.117v3.887a2.358,2.358,0,1,1-4.715,0Z" transform="translate(-166.482 -36.442)" fill="#00f6a1"/>
        <path id="Trazado_2244" data-name="Trazado 2244" d="M309.266,63.076a.119.119,0,0,1,.117-.117h1.935a2.029,2.029,0,0,1,.009,4.058h-1.638v2.124c0,.063-.054.117-.144.117h-.162a.119.119,0,0,1-.117-.117ZM311.3,66.6a1.642,1.642,0,0,0,1.629-1.638,1.615,1.615,0,0,0-1.638-1.584h-1.6V66.6Z" transform="translate(-179.011 -36.442)" fill="#00f6a1"/>
        <g id="Grupo_2069" data-name="Grupo 2069" transform="translate(0 0)" opacity="0.8">
          <g id="Grupo_2068" data-name="Grupo 2068" transform="translate(0 0)">
            <g id="Grupo_2067" data-name="Grupo 2067" clip-path="url(#clip-path)">
              <path id="Trazado_2245" data-name="Trazado 2245" d="M39.207,18.152a18.576,18.576,0,0,0-4.71-2.889,16.392,16.392,0,0,0,1.828-6.278,5.055,5.055,0,0,0-.27-2.632h0c-.387-.422-2.356-.575-4.014-.5a18.429,18.429,0,0,0-5.7,1.16A16.378,16.378,0,0,0,23,1.578C22.311.85,21.344,0,20.873,0c-.573,0-2.015,1.349-3.081,2.618a18.6,18.6,0,0,0-2.85,4.61,16.351,16.351,0,0,0-5.768-1.3,5.06,5.06,0,0,0-2.617.382c-.406.4-.474,2.378-.333,4.03A18.905,18.905,0,0,0,7.27,15.116a16.4,16.4,0,0,0-5.693,3.432C.85,19.234,0,20.2,0,20.671c0,.573,1.349,2.016,2.618,3.082a18.639,18.639,0,0,0,4.713,2.884A16.393,16.393,0,0,0,5.5,32.922a5.054,5.054,0,0,0,.27,2.631c.326.357,1.782.521,3.225.521.264,0,.529-.005.786-.016a18.491,18.491,0,0,0,5.6-1.119,16.294,16.294,0,0,0,2.9,4.367c.685.728,1.653,1.577,2.123,1.577.573,0,2.015-1.349,3.082-2.618a18.963,18.963,0,0,0,2.564-3.972,16.417,16.417,0,0,0,6.6,1.68c.128,0,.261.006.4.006a4.229,4.229,0,0,0,2.219-.388c.406-.4.475-2.378.334-4.029a18.934,18.934,0,0,0-1.048-4.779,16.442,16.442,0,0,0,5.693-3.426c.729-.686,1.579-1.654,1.579-2.124,0-.573-1.349-2.015-2.618-3.082M32.925,6.59a8.842,8.842,0,0,1,2.578.265c.243.719.6,7.863-5.7,12.973a5.057,5.057,0,0,1-.784.521,6.508,6.508,0,0,0-.873-.283,7.22,7.22,0,0,0,.545-4.247,3.975,3.975,0,0,0-1.355-2.268,16.4,16.4,0,0,0-.755-5.838A18.077,18.077,0,0,1,32.925,6.59M20.5,27.749c-6.241-4.592-7.858-8.982-7.28-11.577a3.246,3.246,0,0,1,2.615-2.622,3.3,3.3,0,0,1,.623-.061c2.652,0,3.644,3.452,3.687,3.61a.369.369,0,0,0,.345.27.359.359,0,0,0,.359-.249c.014-.043,1.482-4.237,4.626-3.637a3.1,3.1,0,0,1,2.5,2.5c.583,2.618-1.082,7.07-7.471,11.768m.372-27c.676.3,5.915,4.634,5.737,12.345a4.059,4.059,0,0,0-1-.332c-2.756-.524-4.389,1.89-5.077,3.25-.716-1.646-2.3-3.667-4.838-3.182a4.114,4.114,0,0,0-.951.313C13.9,6.817,20.019,1.1,20.872.746M7.084,6.843a13.51,13.51,0,0,1,7.59,1.072,11.118,11.118,0,0,0-.617,5.623A4.149,4.149,0,0,0,12.5,16.012a7.476,7.476,0,0,0,.655,4.572c-.121.045-.241.1-.361.152a6.114,6.114,0,0,1-1.014-.576C6.418,16.381,6.725,7.715,7.084,6.843M.746,20.673a13.81,13.81,0,0,1,6.8-4.869,11.309,11.309,0,0,0,3.815,4.958,7.128,7.128,0,0,0,.657.407c-.153.1-.3.214-.455.335a16.436,16.436,0,0,0-3.868,4.482A16.831,16.831,0,0,1,.746,20.673M6.322,35.05c-.243-.718-.6-7.862,5.7-12.974a4.958,4.958,0,0,1,1.451-.822,15.051,15.051,0,0,0,1.744,2.615,5.431,5.431,0,0,0-1.264,3.256,16.357,16.357,0,0,0,1.138,7.134,16.822,16.822,0,0,1-8.771.79m14.086,5.086c-.694-.3-6.206-4.864-5.718-12.966a4.715,4.715,0,0,1,1.019-2.725A27.886,27.886,0,0,0,20.284,28.5a.368.368,0,0,0,.432,0,28.684,28.684,0,0,0,4.478-3.946,5.872,5.872,0,0,1,1.292,2.832c1.129,6.463-5.208,12.383-6.077,12.747m14.333-5.074a13.85,13.85,0,0,1-8.389-1.441,11.4,11.4,0,0,0,.858-6.358A6.582,6.582,0,0,0,25.685,24a15.85,15.85,0,0,0,2.151-3.239,6.038,6.038,0,0,1,2.208.988c5.363,3.779,5.056,12.445,4.7,13.317M34.284,26.1a11.313,11.313,0,0,0-3.816-4.961,7.636,7.636,0,0,0-.655-.413c.152-.1.3-.208.452-.329a16.447,16.447,0,0,0,3.868-4.483,16.824,16.824,0,0,1,6.945,5.314A13.783,13.783,0,0,1,34.284,26.1" transform="translate(0 0)" fill="#00f6a1"/>
              <path id="Trazado_2246" data-name="Trazado 2246" d="M121.522,29.478H114.4q-.187.531-.4,1.155t-.412,1.222q-.2.6-.385,1.116t-.292.863a2.219,2.219,0,0,1-.877.16,1.318,1.318,0,0,1-.757-.226.818.818,0,0,1-.332-.73,1.63,1.63,0,0,1,.08-.492c.053-.168.115-.35.186-.545q.4-1.116,1.023-2.869t1.354-3.732q.73-1.978,1.488-3.984t1.395-3.6a3.314,3.314,0,0,1,.637-.212,3.6,3.6,0,0,1,.876-.107,3.285,3.285,0,0,1,1.023.16.9.9,0,0,1,.624.531q.637,1.541,1.368,3.519t1.474,4.051q.743,2.072,1.421,4.077t1.208,3.626a1.67,1.67,0,0,1-.5.385,1.466,1.466,0,0,1-.664.146,1.162,1.162,0,0,1-.771-.226,1.723,1.723,0,0,1-.451-.757ZM117.963,19.3q-.292.8-.664,1.819t-.771,2.138q-.4,1.116-.8,2.258t-.744,2.178h5.976q-.4-1.2-.823-2.4t-.81-2.324q-.385-1.116-.717-2.059T118.07,19.3Z" transform="translate(-64.221 -10.128)" fill="#00f6a1"/>
              <path id="Trazado_2247" data-name="Trazado 2247" d="M152.339,33.462a1.123,1.123,0,0,1-.332-.85V17.684a3.228,3.228,0,0,1,.412-.12,2.6,2.6,0,0,1,.6-.067q1.169,0,1.169.983V31.922h7.623a1.191,1.191,0,0,1,.292.876,1.03,1.03,0,0,1-.239.717.815.815,0,0,1-.637.265h-8.048a1.159,1.159,0,0,1-.837-.318" transform="translate(-87.986 -10.128)" fill="#00f6a1"/>
              <path id="Trazado_2248" data-name="Trazado 2248" d="M192.226,19.118a.952.952,0,0,1-.226.638,1.483,1.483,0,0,1-.518.4,10.594,10.594,0,0,0-1.62-.9,6.634,6.634,0,0,0-4.675,0,5.1,5.1,0,0,0-1.806,1.248,5.794,5.794,0,0,0-1.208,2.072,8.652,8.652,0,0,0-.438,2.869,8.744,8.744,0,0,0,.425,2.869,5.777,5.777,0,0,0,1.182,2.045,4.782,4.782,0,0,0,1.819,1.235,6.491,6.491,0,0,0,2.364.411,6.813,6.813,0,0,0,2.4-.385,6.623,6.623,0,0,0,1.713-.916,1.336,1.336,0,0,1,.5.385.969.969,0,0,1,.239.65,1.259,1.259,0,0,1-.637,1.01,6.214,6.214,0,0,1-1.674.757,9.268,9.268,0,0,1-2.709.332,8.888,8.888,0,0,1-3.107-.531,6.812,6.812,0,0,1-2.484-1.58,7.483,7.483,0,0,1-1.66-2.617,10.06,10.06,0,0,1-.611-3.665,9.965,9.965,0,0,1,.624-3.679,7.661,7.661,0,0,1,1.687-2.643,6.883,6.883,0,0,1,2.483-1.594,8.462,8.462,0,0,1,2.989-.532,10.1,10.1,0,0,1,2.005.187,6.971,6.971,0,0,1,1.567.491,3.261,3.261,0,0,1,1.01.691,1.132,1.132,0,0,1,.358.757" transform="translate(-103.901 -9.836)" fill="#00f6a1"/>
              <path id="Trazado_2249" data-name="Trazado 2249" d="M226.9,29.478h-7.118q-.187.531-.4,1.155t-.412,1.222q-.2.6-.385,1.116t-.292.863a2.219,2.219,0,0,1-.877.16,1.318,1.318,0,0,1-.757-.226.818.818,0,0,1-.332-.73,1.63,1.63,0,0,1,.08-.492q.08-.252.186-.545.4-1.116,1.023-2.869t1.354-3.732q.73-1.978,1.488-3.984t1.395-3.6a3.314,3.314,0,0,1,.637-.212,3.6,3.6,0,0,1,.876-.107,3.285,3.285,0,0,1,1.023.16.9.9,0,0,1,.624.531q.637,1.541,1.368,3.519t1.474,4.051q.743,2.072,1.421,4.077t1.208,3.626a1.67,1.67,0,0,1-.5.385,1.466,1.466,0,0,1-.664.146,1.162,1.162,0,0,1-.771-.226,1.723,1.723,0,0,1-.452-.757ZM223.345,19.3q-.292.8-.664,1.819t-.771,2.138q-.4,1.116-.8,2.258T220.37,27.7h5.976q-.4-1.2-.823-2.4t-.81-2.324q-.385-1.116-.717-2.059t-.544-1.607Z" transform="translate(-125.219 -10.128)" fill="#00f6a1"/>
              <path id="Trazado_2250" data-name="Trazado 2250" d="M266.132,29.478h-7.118q-.187.531-.4,1.155t-.412,1.222q-.2.6-.385,1.116t-.292.863a2.219,2.219,0,0,1-.877.16,1.318,1.318,0,0,1-.757-.226.818.818,0,0,1-.332-.73,1.631,1.631,0,0,1,.08-.492q.08-.252.186-.545.4-1.116,1.023-2.869T258.2,25.4q.73-1.978,1.488-3.984t1.395-3.6a3.315,3.315,0,0,1,.637-.212,3.6,3.6,0,0,1,.876-.107,3.285,3.285,0,0,1,1.023.16.9.9,0,0,1,.624.531q.637,1.541,1.368,3.519t1.474,4.051q.743,2.072,1.421,4.077t1.208,3.626a1.669,1.669,0,0,1-.5.385,1.466,1.466,0,0,1-.664.146,1.162,1.162,0,0,1-.771-.226,1.723,1.723,0,0,1-.452-.757ZM262.573,19.3q-.293.8-.664,1.819t-.771,2.138q-.4,1.116-.8,2.258T259.6,27.7h5.976q-.4-1.2-.823-2.4t-.81-2.324q-.385-1.116-.717-2.059T262.68,19.3Z" transform="translate(-147.925 -10.128)" fill="#00f6a1"/>
              <path id="Trazado_2251" data-name="Trazado 2251" d="M296.949,33.462a1.123,1.123,0,0,1-.332-.85V17.684a3.23,3.23,0,0,1,.412-.12,2.6,2.6,0,0,1,.6-.067q1.169,0,1.169.983V31.922h7.623a1.19,1.19,0,0,1,.292.876,1.03,1.03,0,0,1-.239.717.815.815,0,0,1-.637.265h-8.048a1.159,1.159,0,0,1-.837-.318" transform="translate(-171.689 -10.128)" fill="#00f6a1"/>
              <path id="Trazado_2252" data-name="Trazado 2252" d="M220.622,62.746a3.075,3.075,0,0,1,2.177.837.114.114,0,0,1,.009.162c-.045.054-.1.108-.144.153-.054.063-.1.054-.153,0a2.768,2.768,0,0,0-1.9-.756,2.835,2.835,0,0,0,0,5.669,3.377,3.377,0,0,0,1.871-.495V66.624h-1.539c-.1,0-.117-.036-.117-.117v-.18c0-.072.018-.108.117-.108h1.845a.118.118,0,0,1,.117.108v2.088a.248.248,0,0,1-.126.234,4.163,4.163,0,0,1-2.159.576,3.239,3.239,0,1,1,0-6.479" transform="translate(-125.816 -36.319)" fill="#00f6a1"/>
              <path id="Trazado_2253" data-name="Trazado 2253" d="M240.976,63.077a.113.113,0,0,1,.117-.117h2.232a1.93,1.93,0,0,1,.522,3.806l1.314,2.33c.045.072.027.162-.063.162h-.279a.127.127,0,0,1-.126-.081l-1.3-2.357c-.117.009-.216.009-.333.009H241.4v2.313c0,.063-.054.117-.144.117h-.162a.119.119,0,0,1-.117-.117Zm2.33,3.374a1.572,1.572,0,0,0,1.592-1.566,1.553,1.553,0,0,0-1.6-1.512h-1.89v3.078Z" transform="translate(-139.483 -36.443)" fill="#00f6a1"/>
              <path id="Trazado_2254" data-name="Trazado 2254" d="M265.005,62.746a3.239,3.239,0,1,1-3.239,3.248,3.235,3.235,0,0,1,3.239-3.248m0,6.083a2.843,2.843,0,1,0-2.843-2.835,2.838,2.838,0,0,0,2.843,2.835" transform="translate(-151.517 -36.319)" fill="#00f6a1"/>
              <path id="Trazado_2255" data-name="Trazado 2255" d="M287.62,63.076a.119.119,0,0,1,.117-.117h.189a.119.119,0,0,1,.117.117v3.842a1.936,1.936,0,1,0,3.869.009V63.076c0-.072.036-.117.126-.117h.18a.119.119,0,0,1,.117.117v3.887a2.358,2.358,0,1,1-4.715,0Z" transform="translate(-166.482 -36.442)" fill="#00f6a1"/>
              <path id="Trazado_2256" data-name="Trazado 2256" d="M309.266,63.076a.119.119,0,0,1,.117-.117h1.935a2.029,2.029,0,0,1,.009,4.058h-1.638v2.124c0,.063-.054.117-.144.117h-.162a.119.119,0,0,1-.117-.117ZM311.3,66.6a1.642,1.642,0,0,0,1.629-1.638,1.615,1.615,0,0,0-1.638-1.584h-1.6V66.6Z" transform="translate(-179.011 -36.442)" fill="#00f6a1"/>
            </g>
          </g>
        </g>
      </g>
    </g>
  </g>
</svg>
