<svg id="Grupo_2059" data-name="Grupo 2059" xmlns="http://www.w3.org/2000/svg" xmlns:xlink="http://www.w3.org/1999/xlink" width="145.804" height="28.228" viewBox="0 0 145.804 28.228">
  <defs>
    <clipPath id="clip-path">
      <rect id="Rectángulo_478" data-name="Rectángulo 478" width="145.804" height="28.228" fill="#00f6a1"/>
    </clipPath>
  </defs>
  <g id="Grupo_2058" data-name="Grupo 2058" clip-path="url(#clip-path)">
    <g id="Grupo_2057" data-name="Grupo 2057" transform="translate(0 0)">
      <g id="Grupo_2056" data-name="Grupo 2056" clip-path="url(#clip-path)">
        <path id="Trazado_2201" data-name="Trazado 2201" d="M92.24,27.8a.521.521,0,0,1-.555-.555V10.724a.58.58,0,0,1,.151-.429.545.545,0,0,1,.4-.151h9.738a.527.527,0,0,1,.58.58V11.1a.545.545,0,0,1-.151.4.581.581,0,0,1-.429.151h-8.7v6.786h8.2a.528.528,0,0,1,.581.58V19.4a.544.544,0,0,1-.152.4.578.578,0,0,1-.429.151h-8.2v7.291a.546.546,0,0,1-.151.4.58.58,0,0,1-.429.151Z" transform="translate(-52.571 -5.816)" fill="#00f6a1"/>
        <path id="Trazado_2202" data-name="Trazado 2202" d="M127.306,33.82a4.973,4.973,0,0,1-2.232-.5,4.509,4.509,0,0,1-1.653-1.349,3.1,3.1,0,0,1-.631-1.9,3.263,3.263,0,0,1,1.387-2.75,7.677,7.677,0,0,1,3.607-1.337l3.986-.555v-.883a2.751,2.751,0,0,0-.82-2.106,3.727,3.727,0,0,0-2.611-.77,3.876,3.876,0,0,0-2.119.517,2.659,2.659,0,0,0-1.11,1.35.481.481,0,0,1-.48.378h-.4a.508.508,0,0,1-.429-.164.618.618,0,0,1-.126-.391,2.083,2.083,0,0,1,.265-.883,3.765,3.765,0,0,1,.82-1.047,4.59,4.59,0,0,1,1.438-.87,5.778,5.778,0,0,1,2.144-.353,6.462,6.462,0,0,1,2.46.4,3.711,3.711,0,0,1,2.283,2.472,5.519,5.519,0,0,1,.227,1.539v8.4a.521.521,0,0,1-.555.555h-.429a.521.521,0,0,1-.555-.555V31.827a4.261,4.261,0,0,1-.858.908,4.841,4.841,0,0,1-1.425.77,6.484,6.484,0,0,1-2.182.315m.252-1.463a4.48,4.48,0,0,0,2.119-.5A3.672,3.672,0,0,0,131.2,30.3a5.486,5.486,0,0,0,.568-2.636v-.858l-3.255.454a7.8,7.8,0,0,0-3.128.959,2,2,0,0,0-1.06,1.715,1.952,1.952,0,0,0,.479,1.362,2.948,2.948,0,0,0,1.224.795,4.52,4.52,0,0,0,1.526.265" transform="translate(-70.406 -11.581)" fill="#00f6a1"/>
        <path id="Trazado_2203" data-name="Trazado 2203" d="M163.279,33.82a6.052,6.052,0,0,1-3-.694,4.524,4.524,0,0,1-1.88-2.006,7.458,7.458,0,0,1-.693-3.1q-.026-.379-.026-1.009T157.7,26a7.431,7.431,0,0,1,.693-3.116,4.54,4.54,0,0,1,1.88-1.993,6.047,6.047,0,0,1,3-.694,6.557,6.557,0,0,1,2.308.366,4.773,4.773,0,0,1,1.6.959,4.248,4.248,0,0,1,.958,1.3,3.618,3.618,0,0,1,.354,1.388.443.443,0,0,1-.152.4.6.6,0,0,1-.4.151h-.353a.5.5,0,0,1-.366-.113,1.331,1.331,0,0,1-.24-.416,3.777,3.777,0,0,0-1.451-2.006,4.223,4.223,0,0,0-2.257-.567,4,4,0,0,0-2.838,1.047,4.709,4.709,0,0,0-1.2,3.418,15.642,15.642,0,0,0,0,1.766,4.709,4.709,0,0,0,1.2,3.418,4,4,0,0,0,2.838,1.047,4.223,4.223,0,0,0,2.257-.568,3.776,3.776,0,0,0,1.451-2.006,1.339,1.339,0,0,1,.24-.416.5.5,0,0,1,.366-.113h.353a.6.6,0,0,1,.4.151.444.444,0,0,1,.152.4,3.74,3.74,0,0,1-.228,1.11A3.938,3.938,0,0,1,167.656,32a4.362,4.362,0,0,1-1.022.933,5.106,5.106,0,0,1-1.451.643,6.988,6.988,0,0,1-1.9.24" transform="translate(-90.411 -11.581)" fill="#00f6a1"/>
        <path id="Trazado_2204" data-name="Trazado 2204" d="M197.969,34.159a5.037,5.037,0,0,1-2.838-.744,4.448,4.448,0,0,1-1.665-2.031,7.333,7.333,0,0,1-.542-2.876V21.343a.521.521,0,0,1,.555-.555h.429a.521.521,0,0,1,.555.555v7.039q0,4.314,3.759,4.314a3.772,3.772,0,0,0,2.876-1.148,4.426,4.426,0,0,0,1.085-3.166V21.343a.521.521,0,0,1,.555-.555h.429a.521.521,0,0,1,.555.555V33.351a.521.521,0,0,1-.555.555h-.429a.52.52,0,0,1-.555-.555V32.166a5.643,5.643,0,0,1-1.628,1.438,5.118,5.118,0,0,1-2.586.555" transform="translate(-110.62 -11.92)" fill="#00f6a1"/>
        <path id="Trazado_2205" data-name="Trazado 2205" d="M230.792,27.464a.521.521,0,0,1-.555-.555v-16.8a.521.521,0,0,1,.555-.555h.429a.521.521,0,0,1,.555.555v16.8a.521.521,0,0,1-.555.555Z" transform="translate(-132.015 -5.477)" fill="#00f6a1"/>
        <path id="Trazado_2206" data-name="Trazado 2206" d="M248.3,27.8a.6.6,0,0,1-.605-.605V13.247h-4.667a.6.6,0,0,1-.605-.605V10.775a.614.614,0,0,1,.177-.454.584.584,0,0,1,.429-.176H255.89a.6.6,0,0,1,.631.631v1.867a.585.585,0,0,1-.177.429.613.613,0,0,1-.454.177h-4.642V27.2a.585.585,0,0,1-.177.429.613.613,0,0,1-.454.177Z" transform="translate(-138.999 -5.816)" fill="#00f6a1"/>
        <path id="Trazado_2207" data-name="Trazado 2207" d="M282.533,33.82a6.053,6.053,0,0,1-4.44-1.615,6.565,6.565,0,0,1-1.766-4.592q-.026-.252-.025-.643a5.854,5.854,0,0,1,.025-.618,7.5,7.5,0,0,1,.87-3.279,5.307,5.307,0,0,1,2.132-2.132,6.587,6.587,0,0,1,3.2-.744,6.488,6.488,0,0,1,3.431.845,5.354,5.354,0,0,1,2.094,2.346,8.067,8.067,0,0,1,.706,3.469v.53a.582.582,0,0,1-.177.429.612.612,0,0,1-.454.177h-8.376v.2a4.455,4.455,0,0,0,.34,1.628,2.815,2.815,0,0,0,.933,1.2,2.423,2.423,0,0,0,1.476.454,2.8,2.8,0,0,0,1.968-.706,3.219,3.219,0,0,0,.429-.454,1.2,1.2,0,0,1,.366-.366,1.055,1.055,0,0,1,.416-.063h2.169a.59.59,0,0,1,.416.151.424.424,0,0,1,.139.378A2.118,2.118,0,0,1,288,31.4a4.92,4.92,0,0,1-1.123,1.135,6.307,6.307,0,0,1-1.829.921,7.936,7.936,0,0,1-2.51.366m-2.775-7.947h5.575V25.8a4.168,4.168,0,0,0-.328-1.716,2.716,2.716,0,0,0-.959-1.16,2.671,2.671,0,0,0-3.974,1.16,4.308,4.308,0,0,0-.315,1.716Z" transform="translate(-158.428 -11.581)" fill="#00f6a1"/>
        <path id="Trazado_2208" data-name="Trazado 2208" d="M319.112,33.82a7.107,7.107,0,0,1-3.191-.681,5.03,5.03,0,0,1-2.144-1.98,6.6,6.6,0,0,1-.845-3.141q-.026-.379-.025-1T312.931,26a6.6,6.6,0,0,1,.845-3.141,5.037,5.037,0,0,1,2.144-1.981,7.107,7.107,0,0,1,3.191-.681,7.419,7.419,0,0,1,2.75.454,5.957,5.957,0,0,1,1.867,1.135,4.967,4.967,0,0,1,1.1,1.426,3.445,3.445,0,0,1,.391,1.349.491.491,0,0,1-.164.442.652.652,0,0,1-.442.164h-2.22a.558.558,0,0,1-.391-.126,1.279,1.279,0,0,1-.265-.378,2.859,2.859,0,0,0-1-1.425,2.764,2.764,0,0,0-1.576-.416,2.615,2.615,0,0,0-2.006.795,3.752,3.752,0,0,0-.795,2.51,15.4,15.4,0,0,0,0,1.766,3.741,3.741,0,0,0,.795,2.523,2.637,2.637,0,0,0,2.006.782,2.754,2.754,0,0,0,1.589-.416,2.9,2.9,0,0,0,.984-1.425,1.291,1.291,0,0,1,.265-.378.56.56,0,0,1,.391-.126h2.22a.652.652,0,0,1,.442.164.492.492,0,0,1,.164.442,3.5,3.5,0,0,1-.24,1.021,4.444,4.444,0,0,1-.681,1.161,5.428,5.428,0,0,1-1.174,1.084,6.022,6.022,0,0,1-1.7.795,7.962,7.962,0,0,1-2.308.3" transform="translate(-179.416 -11.581)" fill="#00f6a1"/>
        <rect id="Rectángulo_466" data-name="Rectángulo 466" width="9.41" height="9.41" transform="translate(9.408)" fill="#00f6a1"/>
        <rect id="Rectángulo_467" data-name="Rectángulo 467" width="9.41" height="9.41" transform="translate(18.817)" fill="#00f6a1"/>
        <rect id="Rectángulo_468" data-name="Rectángulo 468" width="9.41" height="9.41" transform="translate(0 9.409)" fill="#00f6a1"/>
        <rect id="Rectángulo_469" data-name="Rectángulo 469" width="9.41" height="9.41" transform="translate(9.407 9.41)" fill="#00f6a1"/>
        <rect id="Rectángulo_470" data-name="Rectángulo 470" width="9.41" height="9.41" transform="translate(0 18.818)" fill="#00f6a1"/>
        <path id="Trazado_2209" data-name="Trazado 2209" d="M9.408,0A9.421,9.421,0,0,0,0,9.41H9.408Z" transform="translate(0 0)" fill="#00f6a1"/>
        <g id="Grupo_2055" data-name="Grupo 2055" opacity="0.8">
          <g id="Grupo_2054" data-name="Grupo 2054">
            <g id="Grupo_2053" data-name="Grupo 2053" clip-path="url(#clip-path)">
              <path id="Trazado_2210" data-name="Trazado 2210" d="M92.24,27.8a.521.521,0,0,1-.555-.555V10.724a.58.58,0,0,1,.151-.429.545.545,0,0,1,.4-.151h9.738a.527.527,0,0,1,.58.58V11.1a.545.545,0,0,1-.151.4.581.581,0,0,1-.429.151h-8.7v6.786h8.2a.528.528,0,0,1,.581.58V19.4a.544.544,0,0,1-.152.4.578.578,0,0,1-.429.151h-8.2v7.291a.546.546,0,0,1-.151.4.58.58,0,0,1-.429.151Z" transform="translate(-52.571 -5.816)" fill="#00f6a1"/>
              <path id="Trazado_2211" data-name="Trazado 2211" d="M127.306,33.82a4.973,4.973,0,0,1-2.232-.5,4.509,4.509,0,0,1-1.653-1.349,3.1,3.1,0,0,1-.631-1.9,3.263,3.263,0,0,1,1.387-2.75,7.677,7.677,0,0,1,3.607-1.337l3.986-.555v-.883a2.751,2.751,0,0,0-.82-2.106,3.727,3.727,0,0,0-2.611-.77,3.876,3.876,0,0,0-2.119.517,2.659,2.659,0,0,0-1.11,1.35.481.481,0,0,1-.48.378h-.4a.508.508,0,0,1-.429-.164.618.618,0,0,1-.126-.391,2.083,2.083,0,0,1,.265-.883,3.765,3.765,0,0,1,.82-1.047,4.59,4.59,0,0,1,1.438-.87,5.778,5.778,0,0,1,2.144-.353,6.462,6.462,0,0,1,2.46.4,3.711,3.711,0,0,1,2.283,2.472,5.519,5.519,0,0,1,.227,1.539v8.4a.521.521,0,0,1-.555.555h-.429a.521.521,0,0,1-.555-.555V31.827a4.261,4.261,0,0,1-.858.908,4.841,4.841,0,0,1-1.425.77,6.484,6.484,0,0,1-2.182.315m.252-1.463a4.48,4.48,0,0,0,2.119-.5A3.672,3.672,0,0,0,131.2,30.3a5.486,5.486,0,0,0,.568-2.636v-.858l-3.255.454a7.8,7.8,0,0,0-3.128.959,2,2,0,0,0-1.06,1.715,1.952,1.952,0,0,0,.479,1.362,2.948,2.948,0,0,0,1.224.795,4.52,4.52,0,0,0,1.526.265" transform="translate(-70.406 -11.581)" fill="#00f6a1"/>
              <path id="Trazado_2212" data-name="Trazado 2212" d="M163.279,33.82a6.052,6.052,0,0,1-3-.694,4.524,4.524,0,0,1-1.88-2.006,7.458,7.458,0,0,1-.693-3.1q-.026-.379-.026-1.009T157.7,26a7.431,7.431,0,0,1,.693-3.116,4.54,4.54,0,0,1,1.88-1.993,6.047,6.047,0,0,1,3-.694,6.557,6.557,0,0,1,2.308.366,4.773,4.773,0,0,1,1.6.959,4.248,4.248,0,0,1,.958,1.3,3.618,3.618,0,0,1,.354,1.388.443.443,0,0,1-.152.4.6.6,0,0,1-.4.151h-.353a.5.5,0,0,1-.366-.113,1.331,1.331,0,0,1-.24-.416,3.777,3.777,0,0,0-1.451-2.006,4.223,4.223,0,0,0-2.257-.567,4,4,0,0,0-2.838,1.047,4.709,4.709,0,0,0-1.2,3.418,15.642,15.642,0,0,0,0,1.766,4.709,4.709,0,0,0,1.2,3.418,4,4,0,0,0,2.838,1.047,4.223,4.223,0,0,0,2.257-.568,3.776,3.776,0,0,0,1.451-2.006,1.339,1.339,0,0,1,.24-.416.5.5,0,0,1,.366-.113h.353a.6.6,0,0,1,.4.151.444.444,0,0,1,.152.4,3.74,3.74,0,0,1-.228,1.11A3.938,3.938,0,0,1,167.656,32a4.362,4.362,0,0,1-1.022.933,5.106,5.106,0,0,1-1.451.643,6.988,6.988,0,0,1-1.9.24" transform="translate(-90.411 -11.581)" fill="#00f6a1"/>
              <path id="Trazado_2213" data-name="Trazado 2213" d="M197.969,34.159a5.037,5.037,0,0,1-2.838-.744,4.448,4.448,0,0,1-1.665-2.031,7.333,7.333,0,0,1-.542-2.876V21.343a.521.521,0,0,1,.555-.555h.429a.521.521,0,0,1,.555.555v7.039q0,4.314,3.759,4.314a3.772,3.772,0,0,0,2.876-1.148,4.426,4.426,0,0,0,1.085-3.166V21.343a.521.521,0,0,1,.555-.555h.429a.521.521,0,0,1,.555.555V33.351a.521.521,0,0,1-.555.555h-.429a.52.52,0,0,1-.555-.555V32.166a5.643,5.643,0,0,1-1.628,1.438,5.118,5.118,0,0,1-2.586.555" transform="translate(-110.62 -11.92)" fill="#00f6a1"/>
              <path id="Trazado_2214" data-name="Trazado 2214" d="M230.792,27.464a.521.521,0,0,1-.555-.555v-16.8a.521.521,0,0,1,.555-.555h.429a.521.521,0,0,1,.555.555v16.8a.521.521,0,0,1-.555.555Z" transform="translate(-132.015 -5.477)" fill="#00f6a1"/>
              <path id="Trazado_2215" data-name="Trazado 2215" d="M248.3,27.8a.6.6,0,0,1-.605-.605V13.247h-4.667a.6.6,0,0,1-.605-.605V10.775a.614.614,0,0,1,.177-.454.584.584,0,0,1,.429-.176H255.89a.6.6,0,0,1,.631.631v1.867a.585.585,0,0,1-.177.429.613.613,0,0,1-.454.177h-4.642V27.2a.585.585,0,0,1-.177.429.613.613,0,0,1-.454.177Z" transform="translate(-138.999 -5.816)" fill="#00f6a1"/>
              <path id="Trazado_2216" data-name="Trazado 2216" d="M282.533,33.82a6.053,6.053,0,0,1-4.44-1.615,6.565,6.565,0,0,1-1.766-4.592q-.026-.252-.025-.643a5.854,5.854,0,0,1,.025-.618,7.5,7.5,0,0,1,.87-3.279,5.307,5.307,0,0,1,2.132-2.132,6.587,6.587,0,0,1,3.2-.744,6.488,6.488,0,0,1,3.431.845,5.354,5.354,0,0,1,2.094,2.346,8.067,8.067,0,0,1,.706,3.469v.53a.582.582,0,0,1-.177.429.612.612,0,0,1-.454.177h-8.376v.2a4.455,4.455,0,0,0,.34,1.628,2.815,2.815,0,0,0,.933,1.2,2.423,2.423,0,0,0,1.476.454,2.8,2.8,0,0,0,1.968-.706,3.219,3.219,0,0,0,.429-.454,1.2,1.2,0,0,1,.366-.366,1.055,1.055,0,0,1,.416-.063h2.169a.59.59,0,0,1,.416.151.424.424,0,0,1,.139.378A2.118,2.118,0,0,1,288,31.4a4.92,4.92,0,0,1-1.123,1.135,6.307,6.307,0,0,1-1.829.921,7.936,7.936,0,0,1-2.51.366m-2.775-7.947h5.575V25.8a4.168,4.168,0,0,0-.328-1.716,2.716,2.716,0,0,0-.959-1.16,2.671,2.671,0,0,0-3.974,1.16,4.308,4.308,0,0,0-.315,1.716Z" transform="translate(-158.428 -11.581)" fill="#00f6a1"/>
              <path id="Trazado_2217" data-name="Trazado 2217" d="M319.112,33.82a7.107,7.107,0,0,1-3.191-.681,5.03,5.03,0,0,1-2.144-1.98,6.6,6.6,0,0,1-.845-3.141q-.026-.379-.025-1T312.931,26a6.6,6.6,0,0,1,.845-3.141,5.037,5.037,0,0,1,2.144-1.981,7.107,7.107,0,0,1,3.191-.681,7.419,7.419,0,0,1,2.75.454,5.957,5.957,0,0,1,1.867,1.135,4.967,4.967,0,0,1,1.1,1.426,3.445,3.445,0,0,1,.391,1.349.491.491,0,0,1-.164.442.652.652,0,0,1-.442.164h-2.22a.558.558,0,0,1-.391-.126,1.279,1.279,0,0,1-.265-.378,2.859,2.859,0,0,0-1-1.425,2.764,2.764,0,0,0-1.576-.416,2.615,2.615,0,0,0-2.006.795,3.752,3.752,0,0,0-.795,2.51,15.4,15.4,0,0,0,0,1.766,3.741,3.741,0,0,0,.795,2.523,2.637,2.637,0,0,0,2.006.782,2.754,2.754,0,0,0,1.589-.416,2.9,2.9,0,0,0,.984-1.425,1.291,1.291,0,0,1,.265-.378.56.56,0,0,1,.391-.126h2.22a.652.652,0,0,1,.442.164.492.492,0,0,1,.164.442,3.5,3.5,0,0,1-.24,1.021,4.444,4.444,0,0,1-.681,1.161,5.428,5.428,0,0,1-1.174,1.084,6.022,6.022,0,0,1-1.7.795,7.962,7.962,0,0,1-2.308.3" transform="translate(-179.416 -11.581)" fill="#00f6a1"/>
              <rect id="Rectángulo_471" data-name="Rectángulo 471" width="9.41" height="9.41" transform="translate(9.408)" fill="#fff"/>
              <rect id="Rectángulo_472" data-name="Rectángulo 472" width="9.41" height="9.41" transform="translate(18.817)" fill="#00f6a1"/>
              <rect id="Rectángulo_473" data-name="Rectángulo 473" width="9.41" height="9.41" transform="translate(0 9.409)" fill="#fff"/>
              <rect id="Rectángulo_474" data-name="Rectángulo 474" width="9.41" height="9.41" transform="translate(9.407 9.41)" fill="#00f6a1"/>
              <rect id="Rectángulo_475" data-name="Rectángulo 475" width="9.41" height="9.41" transform="translate(0 18.818)" fill="#00f6a1"/>
              <path id="Trazado_2218" data-name="Trazado 2218" d="M9.408,0A9.421,9.421,0,0,0,0,9.41H9.408Z" transform="translate(0 0)" fill="#fff"/>
            </g>
          </g>
        </g>
      </g>
    </g>
  </g>
</svg>
