<svg id="Grupo_2052" data-name="Grupo 2052" xmlns="http://www.w3.org/2000/svg" xmlns:xlink="http://www.w3.org/1999/xlink" width="79.696" height="22.201" viewBox="0 0 79.696 22.201">
  <defs>
    <clipPath id="clip-path">
      <rect id="Rectángulo_465" data-name="Rectángulo 465" width="79.696" height="22.201" fill="#00f6a1"/>
    </clipPath>
  </defs>
  <g id="Grupo_2051" data-name="Grupo 2051" clip-path="url(#clip-path)">
    <g id="Grupo_2050" data-name="Grupo 2050" transform="translate(0 0)">
      <g id="Grupo_2049" data-name="Grupo 2049" clip-path="url(#clip-path)">
        <path id="Trazado_2191" data-name="Trazado 2191" d="M4.336,2.182A2.02,2.02,0,0,1,3.7,3.753a2.175,2.175,0,0,1-1.513.582A2.211,2.211,0,0,1,.64,3.753,2.018,2.018,0,0,1,0,2.182,2.055,2.055,0,0,1,.64.582,2.213,2.213,0,0,1,2.182,0,2.177,2.177,0,0,1,3.7.582a2.057,2.057,0,0,1,.64,1.6m-.378,19.67H.437V6.634H3.957Z" transform="translate(0 0)" fill="#00f6a1"/>
        <path id="Trazado_2192" data-name="Trazado 2192" d="M37.782,4.132h3.666V24.3H37.782V15.363H29.024V24.3H25.358V4.132h3.666v8.06h8.758Z" transform="translate(-15 -2.444)" fill="#00f6a1"/>
        <path id="Trazado_2193" data-name="Trazado 2193" d="M92.651,30.993q-1.019.262-2.648.538a21.474,21.474,0,0,1-3.579.277,7.888,7.888,0,0,1-3.07-.524,4.924,4.924,0,0,1-1.979-1.455A5.719,5.719,0,0,1,80.314,27.6a11.794,11.794,0,0,1-.32-2.837V16.241h3.521v7.973a6.43,6.43,0,0,0,.713,3.492,2.791,2.791,0,0,0,2.488,1.047q.64,0,1.353-.058a7.123,7.123,0,0,0,1.062-.146V16.241h3.521Z" transform="translate(-47.318 -9.607)" fill="#00f6a1"/>
        <path id="Trazado_2194" data-name="Trazado 2194" d="M126.224,16.272a23.61,23.61,0,0,1,2.648-.553,22.786,22.786,0,0,1,3.608-.262,8.307,8.307,0,0,1,3.113.509,4.864,4.864,0,0,1,1.993,1.426,5.446,5.446,0,0,1,1.047,2.211,12.346,12.346,0,0,1,.306,2.837v8.554h-3.521v-8a11.559,11.559,0,0,0-.16-2.08,3.693,3.693,0,0,0-.524-1.4,2.094,2.094,0,0,0-.989-.786,4.175,4.175,0,0,0-1.528-.247,11.758,11.758,0,0,0-1.4.087q-.728.088-1.077.146V30.995h-3.521Z" transform="translate(-74.665 -9.143)" fill="#00f6a1"/>
        <path id="Trazado_2195" data-name="Trazado 2195" d="M171.742,5.568l3.521-.582v4.6h5.412v2.939h-5.412v6.2a4.5,4.5,0,0,0,.582,2.618,2.3,2.3,0,0,0,1.979.786,6.438,6.438,0,0,0,1.7-.2,11.34,11.34,0,0,0,1.178-.378l.582,2.794a13.222,13.222,0,0,1-1.6.538,8.727,8.727,0,0,1-2.328.276,7.367,7.367,0,0,1-2.72-.436,4.014,4.014,0,0,1-1.732-1.266,5.015,5.015,0,0,1-.9-2.008,12.481,12.481,0,0,1-.262-2.691Z" transform="translate(-101.59 -2.949)" fill="#00f6a1"/>
        <g id="Grupo_2048" data-name="Grupo 2048" transform="translate(0 0)" opacity="0.8">
          <g id="Grupo_2047" data-name="Grupo 2047" transform="translate(0 0)">
            <g id="Grupo_2046" data-name="Grupo 2046" clip-path="url(#clip-path)">
              <path id="Trazado_2196" data-name="Trazado 2196" d="M4.336,2.182A2.02,2.02,0,0,1,3.7,3.753a2.175,2.175,0,0,1-1.513.582A2.211,2.211,0,0,1,.64,3.753,2.018,2.018,0,0,1,0,2.182,2.055,2.055,0,0,1,.64.582,2.213,2.213,0,0,1,2.182,0,2.177,2.177,0,0,1,3.7.582a2.057,2.057,0,0,1,.64,1.6m-.378,19.67H.437V6.634H3.957Z" transform="translate(0 0)" fill="#00f6a1"/>
              <path id="Trazado_2197" data-name="Trazado 2197" d="M37.782,4.132h3.666V24.3H37.782V15.363H29.024V24.3H25.358V4.132h3.666v8.06h8.758Z" transform="translate(-15 -2.444)" fill="#00f6a1"/>
              <path id="Trazado_2198" data-name="Trazado 2198" d="M92.651,30.993q-1.019.262-2.648.538a21.474,21.474,0,0,1-3.579.277,7.888,7.888,0,0,1-3.07-.524,4.924,4.924,0,0,1-1.979-1.455A5.719,5.719,0,0,1,80.314,27.6a11.794,11.794,0,0,1-.32-2.837V16.241h3.521v7.973a6.43,6.43,0,0,0,.713,3.492,2.791,2.791,0,0,0,2.488,1.047q.64,0,1.353-.058a7.123,7.123,0,0,0,1.062-.146V16.241h3.521Z" transform="translate(-47.318 -9.607)" fill="#00f6a1"/>
              <path id="Trazado_2199" data-name="Trazado 2199" d="M126.224,16.272a23.61,23.61,0,0,1,2.648-.553,22.786,22.786,0,0,1,3.608-.262,8.307,8.307,0,0,1,3.113.509,4.864,4.864,0,0,1,1.993,1.426,5.446,5.446,0,0,1,1.047,2.211,12.346,12.346,0,0,1,.306,2.837v8.554h-3.521v-8a11.559,11.559,0,0,0-.16-2.08,3.693,3.693,0,0,0-.524-1.4,2.094,2.094,0,0,0-.989-.786,4.175,4.175,0,0,0-1.528-.247,11.758,11.758,0,0,0-1.4.087q-.728.088-1.077.146V30.995h-3.521Z" transform="translate(-74.665 -9.143)" fill="#00f6a1"/>
              <path id="Trazado_2200" data-name="Trazado 2200" d="M171.742,5.568l3.521-.582v4.6h5.412v2.939h-5.412v6.2a4.5,4.5,0,0,0,.582,2.618,2.3,2.3,0,0,0,1.979.786,6.438,6.438,0,0,0,1.7-.2,11.34,11.34,0,0,0,1.178-.378l.582,2.794a13.222,13.222,0,0,1-1.6.538,8.727,8.727,0,0,1-2.328.276,7.367,7.367,0,0,1-2.72-.436,4.014,4.014,0,0,1-1.732-1.266,5.015,5.015,0,0,1-.9-2.008,12.481,12.481,0,0,1-.262-2.691Z" transform="translate(-101.59 -2.949)" fill="#00f6a1"/>
            </g>
          </g>
        </g>
      </g>
    </g>
  </g>
</svg>
