<svg id="Grupo_2066" data-name="Grupo 2066" xmlns="http://www.w3.org/2000/svg" xmlns:xlink="http://www.w3.org/1999/xlink" width="117.544" height="22.919" viewBox="0 0 117.544 22.919">
  <defs>
    <clipPath id="clip-path">
      <rect id="Rectángulo_481" data-name="Rectángulo 481" width="117.544" height="22.919" fill="none"/>
    </clipPath>
  </defs>
  <g id="Grupo_2065" data-name="Grupo 2065" clip-path="url(#clip-path)">
    <g id="Grupo_2064" data-name="Grupo 2064" transform="translate(0 0)">
      <g id="Grupo_2063" data-name="Grupo 2063" clip-path="url(#clip-path)">
        <path id="Trazado_2219" data-name="Trazado 2219" d="M107.57,19.311a7.164,7.164,0,0,0-2.551-3.189,8.227,8.227,0,0,0-4.206-1.447,8.438,8.438,0,0,0-3.075.336,7.858,7.858,0,0,0-4.453,3.29,8.349,8.349,0,0,0-1.3,4.08,9.924,9.924,0,0,0,.236,3.041,7.777,7.777,0,0,0,1.834,3.5A8.351,8.351,0,0,0,99.7,31.566a9.5,9.5,0,0,0,2.537-.128,8.424,8.424,0,0,0,3.587-1.539,6.383,6.383,0,0,0,1.22-1.191c-.638-.679-1.271-1.353-1.882-2.005-.4.258-.768.525-1.16.739a6.014,6.014,0,0,1-2.336.667,6.67,6.67,0,0,1-2.735-.261,4.324,4.324,0,0,1-2.984-3.056.254.254,0,0,1,.046-.024.071.071,0,0,1,.024,0,.339.339,0,0,1,.049,0h11.985a.4.4,0,0,0,.049-.007.064.064,0,0,0,.02-.012c.007,0,.011-.012.019-.017a12.144,12.144,0,0,0,.07-2.713,8.808,8.808,0,0,0-.637-2.7M95.887,21.663a4.343,4.343,0,0,1,.471-1.266,4.156,4.156,0,0,1,2.993-2.114,4.626,4.626,0,0,1,3.235.533,3.6,3.6,0,0,1,1.8,2.846Z" transform="translate(-54.478 -8.68)" fill="#fff"/>
        <path id="Trazado_2220" data-name="Trazado 2220" d="M146.086,15.411a7.942,7.942,0,0,0-7.974,7.894v8.533H142.3V23.305a3.781,3.781,0,0,1,7.562,0v8.533h4.191V23.305a7.939,7.939,0,0,0-7.97-7.894" transform="translate(-81.823 -9.13)" fill="#fff"/>
        <path id="Trazado_2221" data-name="Trazado 2221" d="M59.074,23.992a3.781,3.781,0,1,1-7.561,0V15.375H47.319v8.619a7.973,7.973,0,1,0,15.947,0V15.375H59.074Z" transform="translate(-28.034 -9.109)" fill="#fff"/>
        <path id="Trazado_2222" data-name="Trazado 2222" d="M229.394,19.36h3.511V31.838h4.185V15.411h-7.7Z" transform="translate(-135.903 -9.13)" fill="#fff"/>
        <path id="Trazado_2223" data-name="Trazado 2223" d="M265.03,18.94a3.127,3.127,0,0,1-3.124-3.124v-5.61h5.465V6.288h-5.465V0h-3.918V15.816a7.033,7.033,0,0,0,12.4,4.554L267.6,17.582a3.1,3.1,0,0,1-2.568,1.358" transform="translate(-152.843 0)" fill="#fff"/>
        <path id="Trazado_2224" data-name="Trazado 2224" d="M8.651,5.726H8.62A8.559,8.559,0,0,0,4.194,6.958V.083H0V14.317a8.626,8.626,0,0,0,8.591,8.648H8.62A8.62,8.62,0,0,0,8.651,5.726m4.4,8.637A4.43,4.43,0,0,1,8.62,18.774H8.605A4.428,4.428,0,0,1,8.62,9.918h.017a4.426,4.426,0,0,1,4.411,4.445" transform="translate(0 -0.049)" fill="#fff"/>
        <path id="Trazado_2225" data-name="Trazado 2225" d="M192.4,5.726h-.031a8.559,8.559,0,0,0-4.426,1.232V.083h-4.194V14.317a8.626,8.626,0,0,0,8.591,8.648h.029A8.62,8.62,0,0,0,192.4,5.726m4.4,8.637a4.43,4.43,0,0,1-4.428,4.411h-.015a4.428,4.428,0,0,1,.015-8.856h.017a4.426,4.426,0,0,1,4.411,4.445" transform="translate(-108.862 -0.049)" fill="#fff"/>
        <g id="Grupo_2062" data-name="Grupo 2062" transform="translate(0 0)" opacity="0.8">
          <g id="Grupo_2061" data-name="Grupo 2061">
            <g id="Grupo_2060" data-name="Grupo 2060" clip-path="url(#clip-path)">
              <path id="Trazado_2226" data-name="Trazado 2226" d="M107.57,19.311a7.164,7.164,0,0,0-2.551-3.189,8.227,8.227,0,0,0-4.206-1.447,8.438,8.438,0,0,0-3.075.336,7.858,7.858,0,0,0-4.453,3.29,8.349,8.349,0,0,0-1.3,4.08,9.924,9.924,0,0,0,.236,3.041,7.777,7.777,0,0,0,1.834,3.5A8.351,8.351,0,0,0,99.7,31.566a9.5,9.5,0,0,0,2.537-.128,8.424,8.424,0,0,0,3.587-1.539,6.383,6.383,0,0,0,1.22-1.191c-.638-.679-1.271-1.353-1.882-2.005-.4.258-.768.525-1.16.739a6.014,6.014,0,0,1-2.336.667,6.67,6.67,0,0,1-2.735-.261,4.324,4.324,0,0,1-2.984-3.056.254.254,0,0,1,.046-.024.071.071,0,0,1,.024,0,.339.339,0,0,1,.049,0h11.985a.4.4,0,0,0,.049-.007.064.064,0,0,0,.02-.012c.007,0,.011-.012.019-.017a12.144,12.144,0,0,0,.07-2.713,8.808,8.808,0,0,0-.637-2.7M95.887,21.663a4.343,4.343,0,0,1,.471-1.266,4.156,4.156,0,0,1,2.993-2.114,4.626,4.626,0,0,1,3.235.533,3.6,3.6,0,0,1,1.8,2.846Z" transform="translate(-54.478 -8.68)" fill="#2a2a2a"/>
              <path id="Trazado_2227" data-name="Trazado 2227" d="M146.086,15.411a7.942,7.942,0,0,0-7.974,7.894v8.533H142.3V23.305a3.781,3.781,0,0,1,7.562,0v8.533h4.191V23.305a7.939,7.939,0,0,0-7.97-7.894" transform="translate(-81.823 -9.13)" fill="#2a2a2a"/>
              <path id="Trazado_2228" data-name="Trazado 2228" d="M59.074,23.992a3.781,3.781,0,1,1-7.561,0V15.375H47.319v8.619a7.973,7.973,0,1,0,15.947,0V15.375H59.074Z" transform="translate(-28.034 -9.109)" fill="#2a2a2a"/>
              <path id="Trazado_2229" data-name="Trazado 2229" d="M229.394,19.36h3.511V31.838h4.185V15.411h-7.7Z" transform="translate(-135.903 -9.13)" fill="#2a2a2a"/>
              <path id="Trazado_2230" data-name="Trazado 2230" d="M265.03,18.94a3.127,3.127,0,0,1-3.124-3.124v-5.61h5.465V6.288h-5.465V0h-3.918V15.816a7.033,7.033,0,0,0,12.4,4.554L267.6,17.582a3.1,3.1,0,0,1-2.568,1.358" transform="translate(-152.843)" fill="#2a2a2a"/>
              <path id="Trazado_2231" data-name="Trazado 2231" d="M8.651,5.726H8.62A8.559,8.559,0,0,0,4.194,6.958V.083H0V14.317a8.626,8.626,0,0,0,8.591,8.648H8.62A8.62,8.62,0,0,0,8.651,5.726m4.4,8.637A4.43,4.43,0,0,1,8.62,18.774H8.605A4.428,4.428,0,0,1,8.62,9.918h.017a4.426,4.426,0,0,1,4.411,4.445" transform="translate(0 -0.049)" fill="#2a2a2a"/>
              <path id="Trazado_2232" data-name="Trazado 2232" d="M192.4,5.726h-.031a8.559,8.559,0,0,0-4.426,1.232V.083h-4.194V14.317a8.626,8.626,0,0,0,8.591,8.648h.029A8.62,8.62,0,0,0,192.4,5.726m4.4,8.637a4.43,4.43,0,0,1-4.428,4.411h-.015a4.428,4.428,0,0,1,.015-8.856h.017a4.426,4.426,0,0,1,4.411,4.445" transform="translate(-108.862 -0.049)" fill="#2a2a2a"/>
            </g>
          </g>
        </g>
      </g>
    </g>
  </g>
</svg>
