<svg id="Grupo_2038" data-name="Grupo 2038" xmlns="http://www.w3.org/2000/svg" xmlns:xlink="http://www.w3.org/1999/xlink" width="91.375" height="35.343" viewBox="0 0 91.375 35.343">
  <defs>
    <clipPath id="clip-path">
      <rect id="Rectángulo_457" data-name="Rectángulo 457" width="91.375" height="35.343" fill="#00f6a1"/>
    </clipPath>
  </defs>
  <g id="Grupo_2037" data-name="Grupo 2037" clip-path="url(#clip-path)">
    <g id="Grupo_2036" data-name="Grupo 2036" transform="translate(0 0)">
      <g id="Grupo_2035" data-name="Grupo 2035" clip-path="url(#clip-path)">
        <path id="Trazado_2129" data-name="Trazado 2129" d="M60.407,29.844c5.428.183,9.523-2.8,9.779-7.092.238-4.716-4.478-5.758-8.244-6.6l-.073.274.073-.274c-2.6-.585-4.825-1.078-4.734-2.431.073-1.206,1.59-2.084,3.455-2.029,2.285.073,3.967,1.078,4.186,2.467.055.238.347.238.475.146.146-.073,4.131-2.285,4.131-2.285a.3.3,0,0,0,.128-.365C68.3,8.86,65.013,7.033,60.973,6.9c-4.953-.164-8.846,2.687-9.084,6.672-.293,5.283,4.5,6.252,8.353,7.056,2.869.585,4.606,1.042,4.551,2.3-.073,1.316-1.828,2.248-4.094,2.157-2.194-.073-3.857-1.152-4.241-2.76a.239.239,0,0,0-.164-.183.226.226,0,0,0-.238.018l-4.149,2.3a.3.3,0,0,0-.128.366c1.353,3,4.57,4.862,8.628,5.008" transform="translate(-27.451 -3.658)" fill="#00f6a1"/>
        <path id="Trazado_2130" data-name="Trazado 2130" d="M166.662,18.468a11.065,11.065,0,0,0-7.878-3.071c-6.4,0-11.041,4.57-11.041,10.876,0,6.562,4.7,11.332,11.15,11.332,4.332,0,8.317-2.285,9.688-5.575a.232.232,0,0,0,0-.219.258.258,0,0,0-.164-.147l-4.332-1.426a.253.253,0,0,0-.311.11,6.036,6.036,0,0,1-4.972,2.522,5.411,5.411,0,0,1-5.392-4.478h15.939a.277.277,0,0,0,.274-.238l.037-.329c.018-.256.073-.932.073-1.517a10.946,10.946,0,0,0-3.07-7.841m-13.215,5.593a5.5,5.5,0,0,1,10.547,0Z" transform="translate(-78.358 -8.166)" fill="#00f6a1"/>
        <path id="Trazado_2131" data-name="Trazado 2131" d="M117.492.047a.311.311,0,0,0-.256-.037l-4.9,1.791a.276.276,0,0,0-.183.256V9.643a9.47,9.47,0,0,0-6.416-2.413c-6.014,0-10.383,4.661-10.383,11.1s4.369,11.1,10.383,11.1a9.507,9.507,0,0,0,6.726-2.669l.914,1.755a.285.285,0,0,0,.237.146h3.692a.281.281,0,0,0,.274-.274V.267a.2.2,0,0,0-.091-.219M106.561,24.266a5.676,5.676,0,0,1-5.794-5.94,5.778,5.778,0,1,1,11.552,0,5.658,5.658,0,0,1-5.758,5.94" transform="translate(-50.574 0)" fill="#00f6a1"/>
        <path id="Trazado_2132" data-name="Trazado 2132" d="M67.353,60.122a.228.228,0,0,0-.274-.073,18.58,18.58,0,0,1-17.986,0,.207.207,0,0,0-.274.073l-2.467,3.619a.217.217,0,0,0,.073.311,23.316,23.316,0,0,0,23.323,0,.215.215,0,0,0,.073-.311Z" transform="translate(-24.563 -31.835)" fill="#00f6a1"/>
        <path id="Trazado_2133" data-name="Trazado 2133" d="M11.187,15.4C4.606,15.4,0,19.967,0,26.492c-.018,6.525,4.588,11.1,11.187,11.1,6.58,0,11.187-4.57,11.187-11.1,0-6.544-4.607-11.1-11.187-11.1m0,17.273c-3.364,0-5.794-2.6-5.794-6.178s2.431-6.178,5.794-6.178,5.794,2.6,5.794,6.178-2.45,6.178-5.794,6.178" transform="translate(0 -8.166)" fill="#00f6a1"/>
        <g id="Grupo_2034" data-name="Grupo 2034" transform="translate(0 0)" opacity="0.8">
          <g id="Grupo_2033" data-name="Grupo 2033">
            <g id="Grupo_2032" data-name="Grupo 2032" clip-path="url(#clip-path)">
              <path id="Trazado_2134" data-name="Trazado 2134" d="M60.407,29.844c5.428.183,9.523-2.8,9.779-7.092.238-4.716-4.478-5.758-8.244-6.6l-.073.274.073-.274c-2.6-.585-4.825-1.078-4.734-2.431.073-1.206,1.59-2.084,3.455-2.029,2.285.073,3.967,1.078,4.186,2.467.055.238.347.238.475.146.146-.073,4.131-2.285,4.131-2.285a.3.3,0,0,0,.128-.365C68.3,8.86,65.013,7.033,60.973,6.9c-4.953-.164-8.846,2.687-9.084,6.672-.293,5.283,4.5,6.252,8.353,7.056,2.869.585,4.606,1.042,4.551,2.3-.073,1.316-1.828,2.248-4.094,2.157-2.194-.073-3.857-1.152-4.241-2.76a.239.239,0,0,0-.164-.183.226.226,0,0,0-.238.018l-4.149,2.3a.3.3,0,0,0-.128.366c1.353,3,4.57,4.862,8.628,5.008" transform="translate(-27.451 -3.658)" fill="#00f6a1"/>
              <path id="Trazado_2135" data-name="Trazado 2135" d="M166.662,18.468a11.065,11.065,0,0,0-7.878-3.071c-6.4,0-11.041,4.57-11.041,10.876,0,6.562,4.7,11.332,11.15,11.332,4.332,0,8.317-2.285,9.688-5.575a.232.232,0,0,0,0-.219.258.258,0,0,0-.164-.147l-4.332-1.426a.253.253,0,0,0-.311.11,6.036,6.036,0,0,1-4.972,2.522,5.411,5.411,0,0,1-5.392-4.478h15.939a.277.277,0,0,0,.274-.238l.037-.329c.018-.256.073-.932.073-1.517a10.946,10.946,0,0,0-3.07-7.841m-13.215,5.593a5.5,5.5,0,0,1,10.547,0Z" transform="translate(-78.358 -8.166)" fill="#00f6a1"/>
              <path id="Trazado_2136" data-name="Trazado 2136" d="M117.492.047a.311.311,0,0,0-.256-.037l-4.9,1.791a.276.276,0,0,0-.183.256V9.643a9.47,9.47,0,0,0-6.416-2.413c-6.014,0-10.383,4.661-10.383,11.1s4.369,11.1,10.383,11.1a9.507,9.507,0,0,0,6.726-2.669l.914,1.755a.285.285,0,0,0,.237.146h3.692a.281.281,0,0,0,.274-.274V.267a.2.2,0,0,0-.091-.219M106.561,24.266a5.676,5.676,0,0,1-5.794-5.94,5.778,5.778,0,1,1,11.552,0,5.658,5.658,0,0,1-5.758,5.94" transform="translate(-50.574 0)" fill="#00f6a1"/>
              <path id="Trazado_2137" data-name="Trazado 2137" d="M67.353,60.122a.228.228,0,0,0-.274-.073,18.58,18.58,0,0,1-17.986,0,.207.207,0,0,0-.274.073l-2.467,3.619a.217.217,0,0,0,.073.311,23.316,23.316,0,0,0,23.323,0,.215.215,0,0,0,.073-.311Z" transform="translate(-24.563 -31.835)" fill="#00f6a1"/>
              <path id="Trazado_2138" data-name="Trazado 2138" d="M11.187,15.4C4.606,15.4,0,19.967,0,26.492c-.018,6.525,4.588,11.1,11.187,11.1,6.58,0,11.187-4.57,11.187-11.1,0-6.544-4.607-11.1-11.187-11.1m0,17.273c-3.364,0-5.794-2.6-5.794-6.178s2.431-6.178,5.794-6.178,5.794,2.6,5.794,6.178-2.45,6.178-5.794,6.178" transform="translate(0 -8.166)" fill="#00f6a1"/>
            </g>
          </g>
        </g>
      </g>
    </g>
  </g>
</svg>
