<svg id="Grupo_2031" data-name="Grupo 2031" xmlns="http://www.w3.org/2000/svg" xmlns:xlink="http://www.w3.org/1999/xlink" width="144.338" height="23.981" viewBox="0 0 144.338 23.981">
  <defs>
    <clipPath id="clip-path">
      <rect id="Rectángulo_454" data-name="Rectángulo 454" width="144.338" height="23.981" fill="none"/>
    </clipPath>
  </defs>
  <g id="Grupo_2030" data-name="Grupo 2030" clip-path="url(#clip-path)">
    <g id="Grupo_2029" data-name="Grupo 2029" transform="translate(0 0)">
      <g id="Grupo_2028" data-name="Grupo 2028" clip-path="url(#clip-path)">
        <path id="Trazado_2093" data-name="Trazado 2093" d="M4.295,7.655A4.418,4.418,0,0,1,.037,3.9,3.336,3.336,0,0,1,3.895.034,4.021,4.021,0,0,1,5.771.748,4.367,4.367,0,0,1,7.635,3.54,3.392,3.392,0,0,1,6.992,6.4a3.334,3.334,0,0,1-2.7,1.256" transform="translate(0 0)" fill="#fff"/>
        <path id="Trazado_2094" data-name="Trazado 2094" d="M13.333,33.92a4.023,4.023,0,0,1-3.742-2.564,2.557,2.557,0,0,1,1.765-3.435,3.973,3.973,0,0,1,4.749,2.672,2.582,2.582,0,0,1-2.025,3.252,3.037,3.037,0,0,1-.747.075" transform="translate(-5.805 -17.132)" fill="#fff"/>
        <path id="Trazado_2095" data-name="Trazado 2095" d="M34.269,13.2a2.821,2.821,0,0,1-.759,1.957,2.476,2.476,0,0,1-2.766.644,3.811,3.811,0,0,1-2.586-3.115,3.05,3.05,0,0,1,.459-2.368,2.618,2.618,0,0,1,3.295-.853A4.037,4.037,0,0,1,34.269,13.2" transform="translate(-17.319 -5.675)" fill="#fff"/>
        <path id="Trazado_2096" data-name="Trazado 2096" d="M32.99,30.141a3.424,3.424,0,0,1,3.388,3.639,2.625,2.625,0,0,1-2.5,2.337,3.505,3.505,0,0,1-3.438-2.63,2.645,2.645,0,0,1,.7-2.648,2.408,2.408,0,0,1,1.847-.7" transform="translate(-18.709 -18.579)" fill="#fff"/>
        <path id="Trazado_2097" data-name="Trazado 2097" d="M54.23,34.428a2.644,2.644,0,0,1-1.768,2.721A2.6,2.6,0,0,1,49.8,36.5a2.923,2.923,0,0,1-.927-3.012,2.5,2.5,0,0,1,3.543-1.666,2.992,2.992,0,0,1,1.811,2.606" transform="translate(-30.066 -19.463)" fill="#fff"/>
        <path id="Trazado_2098" data-name="Trazado 2098" d="M34.928,53.834a3.1,3.1,0,0,1-2.97-2.224,2.476,2.476,0,0,1,1.848-3.088,3.029,3.029,0,0,1,3.471,1.559,2.523,2.523,0,0,1-2.349,3.752" transform="translate(-19.65 -29.856)" fill="#fff"/>
        <path id="Trazado_2099" data-name="Trazado 2099" d="M47.438,15.982a1.943,1.943,0,0,1,1.434-2.119,2.518,2.518,0,0,1,1.926.38,4.1,4.1,0,0,1,1.972,2.984,2.442,2.442,0,0,1-.117,1.21,1.887,1.887,0,0,1-2.376,1.174,3.873,3.873,0,0,1-2.407-2.027,3.384,3.384,0,0,1-.432-1.6" transform="translate(-29.242 -8.51)" fill="#fff"/>
        <path id="Trazado_2100" data-name="Trazado 2100" d="M17.728,52.384A4.034,4.034,0,0,1,14.856,51,3.32,3.32,0,0,1,14,49.338a1.848,1.848,0,0,1,1.433-2.2,3.4,3.4,0,0,1,2.471.432,3.766,3.766,0,0,1,1.859,2.177,1.969,1.969,0,0,1-.255,1.88,1.926,1.926,0,0,1-1.439.738c-.115.01-.23.012-.345.017" transform="translate(-8.611 -29.013)" fill="#fff"/>
        <path id="Trazado_2101" data-name="Trazado 2101" d="M51.8,48.662A1.854,1.854,0,0,1,53.637,51.1,3.041,3.041,0,0,1,51.188,53.3a1.85,1.85,0,0,1-2.169-1.823,2.577,2.577,0,0,1,.595-1.664A2.8,2.8,0,0,1,51.8,48.662" transform="translate(-30.218 -29.997)" fill="#fff"/>
        <path id="Trazado_2102" data-name="Trazado 2102" d="M333.471,32.371c0-1.064,0-2.127,0-3.191a.931.931,0,0,0-.458-.832,2.841,2.841,0,0,0-1.515-.408,21.93,21.93,0,0,0-2.633.032,2.8,2.8,0,0,0-1.255.369,1.185,1.185,0,0,0-.555,1.136c.006.155.018.31.018.465,0,1.8.01,3.608,0,5.412,0,.807-.184.95-1.073,1.008a2.195,2.195,0,0,1-.759-.089.579.579,0,0,1-.472-.576c-.007-.155-.018-.311-.018-.465,0-2.029-.012-4.057,0-6.085a2.654,2.654,0,0,1,.7-1.846,3.494,3.494,0,0,1,1.591-.9,7.1,7.1,0,0,1,2.061-.3c.872-.006,1.745-.021,2.616,0a4.957,4.957,0,0,1,2.82.828.124.124,0,0,0,.168,0,4.869,4.869,0,0,1,2.423-.8c.9-.074,1.806-.027,2.709-.038a8.465,8.465,0,0,1,2.02.192,4.68,4.68,0,0,1,1.443.588,2.58,2.58,0,0,1,1.217,2.355c0,1.847,0,3.695-.006,5.542,0,.28.034.558.008.838-.041.447-.169.6-.622.7a2.35,2.35,0,0,1-1.287-.073.539.539,0,0,1-.375-.45,4.663,4.663,0,0,1-.027-.837c0-1.9,0-3.8,0-5.692a1.114,1.114,0,0,0-.754-1.029,3.542,3.542,0,0,0-1.455-.3,21.507,21.507,0,0,0-2.229.008,3.968,3.968,0,0,0-1.106.212,1.178,1.178,0,0,0-.891,1.246c0,.572.016,1.144.017,1.716,0,1.232,0,2.463,0,3.7,0,.236.016.472.01.708-.014.513-.177.71-.692.794a2.473,2.473,0,0,1-1.178-.055.574.574,0,0,1-.435-.55c-.015-.211-.027-.422-.028-.633,0-.9,0-1.8,0-2.706h-.007" transform="translate(-200.197 -16.087)" fill="#fff"/>
        <path id="Trazado_2103" data-name="Trazado 2103" d="M78.632,18.441a1.627,1.627,0,0,1,1.58.8c.2.329.449.634.673.952l6.841,9.682c.1.138.211.267.3.412a.693.693,0,0,1-.112.95,1.464,1.464,0,0,1-1.467.361.853.853,0,0,1-.48-.382c-.655-.95-1.314-1.9-1.965-2.849a.344.344,0,0,0-.325-.168q-4.858.007-9.716,0a.28.28,0,0,0-.283.132c-.579.908-1.169,1.809-1.754,2.713a1.191,1.191,0,0,1-1.81.353.818.818,0,0,1-.432-.8,1.262,1.262,0,0,1,.254-.535c.566-.85,1.14-1.7,1.706-2.546Q73.317,25,74.99,22.476c.759-1.143,1.512-2.289,2.274-3.43a1.439,1.439,0,0,1,1.195-.605c.057,0,.115,0,.173,0m.049,2.212-3.646,5.585c.072,0,.1.005.136.005,2.391.015,4.782-.031,7.174.024.054,0,.128.029.157-.034s-.04-.1-.071-.143q-1.5-2.186-3-4.371c-.244-.356-.5-.706-.748-1.066" transform="translate(-42.951 -11.366)" fill="#fff"/>
        <path id="Trazado_2104" data-name="Trazado 2104" d="M218.477,32.218c-1.86,0-3.72,0-5.58,0-.176,0-.215.047-.2.2a7.114,7.114,0,0,0,.036.93.819.819,0,0,0,.259.445,2.6,2.6,0,0,0,1.423.591,13.913,13.913,0,0,0,2.111.072c.789,0,1.578,0,2.366.006.385,0,.525.131.586.5a2.4,2.4,0,0,1,0,.854.509.509,0,0,1-.552.463c-.218.008-.436.009-.654.007-1.224-.015-2.45.037-3.673-.042a6.713,6.713,0,0,1-2.7-.632,2.578,2.578,0,0,1-1.508-2.451c0-1.381-.021-2.763.015-4.143a2.563,2.563,0,0,1,1.616-2.328,6.477,6.477,0,0,1,2.47-.555c1.538-.094,3.077-.032,4.616-.042q.625,0,1.25.009a8.519,8.519,0,0,1,2.514.383,2.639,2.639,0,0,1,2.017,2.588,22.767,22.767,0,0,1-.017,2.443.665.665,0,0,1-.752.693c-.6.011-1.193.008-1.789.008q-1.924,0-3.848,0m-.853-1.792c1.59,0,3.181,0,4.771,0,.145,0,.184-.034.179-.174-.011-.336-.009-.672,0-1.008a.977.977,0,0,0-.482-.878,2.342,2.342,0,0,0-.719-.3,7.475,7.475,0,0,0-1.908-.162c-1.468,0-2.936-.035-4.4.02a3.753,3.753,0,0,0-1.721.4,1.085,1.085,0,0,0-.643,1.039c.011.292.013.585,0,.877-.008.157.039.191.2.191,1.577-.007,3.155,0,4.733,0" transform="translate(-129.693 -16.079)" fill="#fff"/>
        <path id="Trazado_2105" data-name="Trazado 2105" d="M175.244,26.1h5.119c.461,0,.619.142.667.587a2.959,2.959,0,0,1,0,.652c-.049.433-.23.591-.675.591-2.842,0-5.683-.013-8.525-.008a8.435,8.435,0,0,0-2.082.161,2.553,2.553,0,0,0-.838.356.949.949,0,0,0-.448.819c0,1.269.008,2.539,0,3.808a1.115,1.115,0,0,0,.72,1.031,3.279,3.279,0,0,0,1.536.352q4.3.016,8.6.016c.372,0,.744,0,1.116.006.392,0,.554.122.624.491a2.171,2.171,0,0,1-.025.962.447.447,0,0,1-.4.352,1.731,1.731,0,0,1-.268.018q-4.552,0-9.1,0a8.958,8.958,0,0,1-3.118-.443,2.858,2.858,0,0,1-1.8-1.57,2.558,2.558,0,0,1-.194-.964c-.008-1.4-.047-2.8,0-4.2a2.622,2.622,0,0,1,1.956-2.561,7.765,7.765,0,0,1,2.693-.443c1.481-.012,2.964,0,4.445,0V26.1" transform="translate(-102.413 -16.091)" fill="#fff"/>
        <path id="Trazado_2106" data-name="Trazado 2106" d="M131.7,26.107q2.511,0,5.022,0a.478.478,0,0,1,.553.449,2.281,2.281,0,0,1-.026.981.46.46,0,0,1-.428.367,2.148,2.148,0,0,1-.249.013q-4,0-8.005,0a19.6,19.6,0,0,0-2,.053,2.62,2.62,0,0,0-1.6.647.707.707,0,0,0-.237.514c-.031,1.325-.027,2.649-.014,3.973a1.091,1.091,0,0,0,.656.956,3.087,3.087,0,0,0,1.491.372c2.366.064,4.732.014,7.1.027.885.005,1.77,0,2.655,0,.522,0,.641.1.71.6a2.174,2.174,0,0,1-.04.815c-.071.292-.178.383-.484.415a1.531,1.531,0,0,1-.173,0c-3.13,0-6.26.012-9.39-.006a7.908,7.908,0,0,1-3.007-.511,2.686,2.686,0,0,1-1.837-2.663c0-1.231-.01-2.463-.012-3.694a2.781,2.781,0,0,1,2.141-2.911,8.684,8.684,0,0,1,2.606-.4c.763-.015,1.526-.008,2.29-.009h2.271v.006" transform="translate(-75.454 -16.09)" fill="#fff"/>
        <path id="Trazado_2107" data-name="Trazado 2107" d="M280.163,29.947q0-1.586,0-3.173c0-.528.185-.747.724-.831a2.809,2.809,0,0,1,1.087.031.57.57,0,0,1,.48.513,5.36,5.36,0,0,1,.047.724c-.008,1.941-.009,3.881-.016,5.822a1.044,1.044,0,0,0,.614.9,2.188,2.188,0,0,0,.842.3,8.776,8.776,0,0,0,1.319.116c1.527-.006,3.054,0,4.58-.005a4.781,4.781,0,0,0,1.68-.252,2.8,2.8,0,0,0,.362-.168,1.054,1.054,0,0,0,.606-1.014c-.018-1.978-.008-3.957-.007-5.935a3.761,3.761,0,0,1,.02-.389.663.663,0,0,1,.655-.634,3.686,3.686,0,0,1,1.071.014.59.59,0,0,1,.558.586A9.2,9.2,0,0,1,294.8,27.7q-.005,2.669,0,5.338a3.043,3.043,0,0,1-.156.99,2.731,2.731,0,0,1-1.632,1.609,7.008,7.008,0,0,1-2.028.463,15.789,15.789,0,0,1-1.881.07c-1.456-.005-2.912,0-4.367-.017a7.952,7.952,0,0,1-2.651-.467,3.3,3.3,0,0,1-1.227-.78,2.415,2.415,0,0,1-.681-1.734c-.013-1.076,0-2.152,0-3.228h-.012" transform="translate(-172.711 -15.969)" fill="#fff"/>
        <path id="Trazado_2108" data-name="Trazado 2108" d="M253.968,25.032V19.248c0-.57.219-.8.8-.856a3,3,0,0,1,.955.04.619.619,0,0,1,.549.66c.047,3.8.006,7.6.018,11.395,0,.149-.009.3-.021.447a.593.593,0,0,1-.535.592,2.761,2.761,0,0,1-1.292-.015.525.525,0,0,1-.448-.512q-.023-.343-.024-.688,0-2.64,0-5.28" transform="translate(-156.563 -11.326)" fill="#fff"/>
        <path id="Trazado_2109" data-name="Trazado 2109" d="M269.238,31.754c0,1.051,0,2.984,0,4.036,0,.174-.009.347-.013.522a.674.674,0,0,1-.627.743,2.785,2.785,0,0,1-1.255-.063.534.534,0,0,1-.4-.48,3.005,3.005,0,0,1-.032-.427c0-2.314,0-5.51,0-7.824a1.729,1.729,0,0,1,.066-.514.558.558,0,0,1,.454-.407,3.011,3.011,0,0,1,1.182-.009.644.644,0,0,1,.608.73q0,1.847,0,3.695Z" transform="translate(-164.544 -16.814)" fill="#fff"/>
        <path id="Trazado_2110" data-name="Trazado 2110" d="M267.922,18.374a1.913,1.913,0,0,1,.785.135.726.726,0,0,1,.384.442,1.8,1.8,0,0,1,.011,1.129.773.773,0,0,1-.529.524,1.987,1.987,0,0,1-1.172.006.89.89,0,0,1-.628-.851c-.071-.67.116-1.215.716-1.346a3.138,3.138,0,0,1,.433-.038" transform="translate(-164.448 -11.327)" fill="#fff"/>
        <g id="Grupo_2027" data-name="Grupo 2027" transform="translate(0 0)" opacity="0.8">
          <g id="Grupo_2026" data-name="Grupo 2026" transform="translate(0 0)">
            <g id="Grupo_2025" data-name="Grupo 2025" clip-path="url(#clip-path)">
              <path id="Trazado_2111" data-name="Trazado 2111" d="M4.295,7.655A4.418,4.418,0,0,1,.037,3.9,3.336,3.336,0,0,1,3.895.034,4.021,4.021,0,0,1,5.771.748,4.367,4.367,0,0,1,7.635,3.54,3.392,3.392,0,0,1,6.992,6.4a3.334,3.334,0,0,1-2.7,1.256" transform="translate(0 0)" fill="#5e5e5e"/>
              <path id="Trazado_2112" data-name="Trazado 2112" d="M13.333,33.92a4.023,4.023,0,0,1-3.742-2.564,2.557,2.557,0,0,1,1.765-3.435,3.973,3.973,0,0,1,4.749,2.672,2.582,2.582,0,0,1-2.025,3.252,3.037,3.037,0,0,1-.747.075" transform="translate(-5.805 -17.132)" fill="#aaa"/>
              <path id="Trazado_2113" data-name="Trazado 2113" d="M34.269,13.2a2.821,2.821,0,0,1-.759,1.957,2.476,2.476,0,0,1-2.766.644,3.811,3.811,0,0,1-2.586-3.115,3.05,3.05,0,0,1,.459-2.368,2.618,2.618,0,0,1,3.295-.853A4.037,4.037,0,0,1,34.269,13.2" transform="translate(-17.319 -5.676)" fill="#494949"/>
              <path id="Trazado_2114" data-name="Trazado 2114" d="M32.99,30.141a3.424,3.424,0,0,1,3.388,3.639,2.625,2.625,0,0,1-2.5,2.337,3.505,3.505,0,0,1-3.438-2.63,2.645,2.645,0,0,1,.7-2.648,2.408,2.408,0,0,1,1.847-.7" transform="translate(-18.709 -18.579)" fill="#5c5c5c"/>
              <path id="Trazado_2115" data-name="Trazado 2115" d="M54.23,34.428a2.644,2.644,0,0,1-1.768,2.721A2.6,2.6,0,0,1,49.8,36.5a2.923,2.923,0,0,1-.927-3.012,2.5,2.5,0,0,1,3.543-1.666,2.992,2.992,0,0,1,1.811,2.606" transform="translate(-30.066 -19.463)" fill="#aaa"/>
              <path id="Trazado_2116" data-name="Trazado 2116" d="M34.928,53.834a3.1,3.1,0,0,1-2.97-2.224,2.476,2.476,0,0,1,1.848-3.088,3.029,3.029,0,0,1,3.471,1.559,2.523,2.523,0,0,1-2.349,3.752" transform="translate(-19.65 -29.856)" fill="#494949"/>
              <path id="Trazado_2117" data-name="Trazado 2117" d="M47.438,15.982a1.943,1.943,0,0,1,1.434-2.119,2.518,2.518,0,0,1,1.926.38,4.1,4.1,0,0,1,1.972,2.984,2.442,2.442,0,0,1-.117,1.21,1.887,1.887,0,0,1-2.376,1.174,3.873,3.873,0,0,1-2.407-2.027,3.384,3.384,0,0,1-.432-1.6" transform="translate(-29.242 -8.51)" fill="#8c8c8c"/>
              <path id="Trazado_2118" data-name="Trazado 2118" d="M17.728,52.384A4.034,4.034,0,0,1,14.856,51,3.32,3.32,0,0,1,14,49.338a1.848,1.848,0,0,1,1.433-2.2,3.4,3.4,0,0,1,2.471.432,3.766,3.766,0,0,1,1.859,2.177,1.969,1.969,0,0,1-.255,1.88,1.926,1.926,0,0,1-1.439.738c-.115.01-.23.012-.345.017" transform="translate(-8.611 -29.013)" fill="#8c8c8c"/>
              <path id="Trazado_2119" data-name="Trazado 2119" d="M51.8,48.662A1.854,1.854,0,0,1,53.637,51.1,3.041,3.041,0,0,1,51.188,53.3a1.85,1.85,0,0,1-2.169-1.823,2.577,2.577,0,0,1,.595-1.664A2.8,2.8,0,0,1,51.8,48.662" transform="translate(-30.218 -29.998)" fill="#5e5e5e"/>
              <path id="Trazado_2120" data-name="Trazado 2120" d="M333.471,32.371c0-1.064,0-2.127,0-3.191a.931.931,0,0,0-.458-.832,2.841,2.841,0,0,0-1.515-.408,21.93,21.93,0,0,0-2.633.032,2.8,2.8,0,0,0-1.255.369,1.185,1.185,0,0,0-.555,1.136c.006.155.018.31.018.465,0,1.8.01,3.608,0,5.412,0,.807-.184.95-1.073,1.008a2.195,2.195,0,0,1-.759-.089.579.579,0,0,1-.472-.576c-.007-.155-.018-.311-.018-.465,0-2.029-.012-4.057,0-6.085a2.654,2.654,0,0,1,.7-1.846,3.494,3.494,0,0,1,1.591-.9,7.1,7.1,0,0,1,2.061-.3c.872-.006,1.745-.021,2.616,0a4.957,4.957,0,0,1,2.82.828.124.124,0,0,0,.168,0,4.869,4.869,0,0,1,2.423-.8c.9-.074,1.806-.027,2.709-.038a8.465,8.465,0,0,1,2.02.192,4.68,4.68,0,0,1,1.443.588,2.58,2.58,0,0,1,1.217,2.355c0,1.847,0,3.695-.006,5.542,0,.28.034.558.008.838-.041.447-.169.6-.622.7a2.35,2.35,0,0,1-1.287-.073.539.539,0,0,1-.375-.45,4.663,4.663,0,0,1-.027-.837c0-1.9,0-3.8,0-5.692a1.114,1.114,0,0,0-.754-1.029,3.542,3.542,0,0,0-1.455-.3,21.507,21.507,0,0,0-2.229.008,3.968,3.968,0,0,0-1.106.212,1.178,1.178,0,0,0-.891,1.246c0,.572.016,1.144.017,1.716,0,1.232,0,2.463,0,3.7,0,.236.016.472.01.708-.014.513-.177.71-.692.794a2.473,2.473,0,0,1-1.178-.055.574.574,0,0,1-.435-.55c-.015-.211-.027-.422-.028-.633,0-.9,0-1.8,0-2.706h-.007" transform="translate(-200.197 -16.087)"/>
              <path id="Trazado_2121" data-name="Trazado 2121" d="M78.632,18.441a1.627,1.627,0,0,1,1.58.8c.2.329.449.634.673.952l6.841,9.682c.1.138.211.267.3.412a.693.693,0,0,1-.112.95,1.464,1.464,0,0,1-1.467.361.853.853,0,0,1-.48-.382c-.655-.95-1.314-1.9-1.965-2.849a.344.344,0,0,0-.325-.168q-4.858.007-9.716,0a.28.28,0,0,0-.283.132c-.579.908-1.169,1.809-1.754,2.713a1.191,1.191,0,0,1-1.81.353.818.818,0,0,1-.432-.8,1.262,1.262,0,0,1,.254-.535c.566-.85,1.14-1.7,1.706-2.546Q73.317,25,74.99,22.476c.759-1.143,1.512-2.289,2.274-3.43a1.439,1.439,0,0,1,1.195-.605c.057,0,.115,0,.173,0m.049,2.212-3.646,5.585c.072,0,.1.005.136.005,2.391.015,4.782-.031,7.174.024.054,0,.128.029.157-.034s-.04-.1-.071-.143q-1.5-2.186-3-4.371c-.244-.356-.5-.706-.748-1.066" transform="translate(-42.951 -11.366)"/>
              <path id="Trazado_2122" data-name="Trazado 2122" d="M218.477,32.218c-1.86,0-3.72,0-5.58,0-.176,0-.215.047-.2.2a7.114,7.114,0,0,0,.036.93.819.819,0,0,0,.259.445,2.6,2.6,0,0,0,1.423.591,13.913,13.913,0,0,0,2.111.072c.789,0,1.578,0,2.366.006.385,0,.525.131.586.5a2.4,2.4,0,0,1,0,.854.509.509,0,0,1-.552.463c-.218.008-.436.009-.654.007-1.224-.015-2.45.037-3.673-.042a6.713,6.713,0,0,1-2.7-.632,2.578,2.578,0,0,1-1.508-2.451c0-1.381-.021-2.763.015-4.143a2.563,2.563,0,0,1,1.616-2.328,6.477,6.477,0,0,1,2.47-.555c1.538-.094,3.077-.032,4.616-.042q.625,0,1.25.009a8.519,8.519,0,0,1,2.514.383,2.639,2.639,0,0,1,2.017,2.588,22.767,22.767,0,0,1-.017,2.443.665.665,0,0,1-.752.693c-.6.011-1.193.008-1.789.008q-1.924,0-3.848,0m-.853-1.792c1.59,0,3.181,0,4.771,0,.145,0,.184-.034.179-.174-.011-.336-.009-.672,0-1.008a.977.977,0,0,0-.482-.878,2.342,2.342,0,0,0-.719-.3,7.475,7.475,0,0,0-1.908-.162c-1.468,0-2.936-.035-4.4.02a3.753,3.753,0,0,0-1.721.4,1.085,1.085,0,0,0-.643,1.039c.011.292.013.585,0,.877-.008.157.039.191.2.191,1.577-.007,3.155,0,4.733,0" transform="translate(-129.693 -16.079)"/>
              <path id="Trazado_2123" data-name="Trazado 2123" d="M175.244,26.1h5.119c.461,0,.619.142.667.587a2.959,2.959,0,0,1,0,.652c-.049.433-.23.591-.675.591-2.842,0-5.683-.013-8.525-.008a8.435,8.435,0,0,0-2.082.161,2.553,2.553,0,0,0-.838.356.949.949,0,0,0-.448.819c0,1.269.008,2.539,0,3.808a1.115,1.115,0,0,0,.72,1.031,3.279,3.279,0,0,0,1.536.352q4.3.016,8.6.016c.372,0,.744,0,1.116.006.392,0,.554.122.624.491a2.171,2.171,0,0,1-.025.962.447.447,0,0,1-.4.352,1.731,1.731,0,0,1-.268.018q-4.552,0-9.1,0a8.958,8.958,0,0,1-3.118-.443,2.858,2.858,0,0,1-1.8-1.57,2.558,2.558,0,0,1-.194-.964c-.008-1.4-.047-2.8,0-4.2a2.622,2.622,0,0,1,1.956-2.561,7.765,7.765,0,0,1,2.693-.443c1.481-.012,2.964,0,4.445,0V26.1" transform="translate(-102.413 -16.091)"/>
              <path id="Trazado_2124" data-name="Trazado 2124" d="M131.7,26.107q2.511,0,5.022,0a.478.478,0,0,1,.553.449,2.281,2.281,0,0,1-.026.981.46.46,0,0,1-.428.367,2.148,2.148,0,0,1-.249.013q-4,0-8.005,0a19.6,19.6,0,0,0-2,.053,2.62,2.62,0,0,0-1.6.647.707.707,0,0,0-.237.514c-.031,1.325-.027,2.649-.014,3.973a1.091,1.091,0,0,0,.656.956,3.087,3.087,0,0,0,1.491.372c2.366.064,4.732.014,7.1.027.885.005,1.77,0,2.655,0,.522,0,.641.1.71.6a2.174,2.174,0,0,1-.04.815c-.071.292-.178.383-.484.415a1.531,1.531,0,0,1-.173,0c-3.13,0-6.26.012-9.39-.006a7.908,7.908,0,0,1-3.007-.511,2.686,2.686,0,0,1-1.837-2.663c0-1.231-.01-2.463-.012-3.694a2.781,2.781,0,0,1,2.141-2.911,8.684,8.684,0,0,1,2.606-.4c.763-.015,1.526-.008,2.29-.009h2.271v.006" transform="translate(-75.454 -16.09)"/>
              <path id="Trazado_2125" data-name="Trazado 2125" d="M280.163,29.947q0-1.586,0-3.173c0-.528.185-.747.724-.831a2.809,2.809,0,0,1,1.087.031.57.57,0,0,1,.48.513,5.36,5.36,0,0,1,.047.724c-.008,1.941-.009,3.881-.016,5.822a1.044,1.044,0,0,0,.614.9,2.188,2.188,0,0,0,.842.3,8.776,8.776,0,0,0,1.319.116c1.527-.006,3.054,0,4.58-.005a4.781,4.781,0,0,0,1.68-.252,2.8,2.8,0,0,0,.362-.168,1.054,1.054,0,0,0,.606-1.014c-.018-1.978-.008-3.957-.007-5.935a3.761,3.761,0,0,1,.02-.389.663.663,0,0,1,.655-.634,3.686,3.686,0,0,1,1.071.014.59.59,0,0,1,.558.586A9.2,9.2,0,0,1,294.8,27.7q-.005,2.669,0,5.338a3.043,3.043,0,0,1-.156.99,2.731,2.731,0,0,1-1.632,1.609,7.008,7.008,0,0,1-2.028.463,15.789,15.789,0,0,1-1.881.07c-1.456-.005-2.912,0-4.367-.017a7.952,7.952,0,0,1-2.651-.467,3.3,3.3,0,0,1-1.227-.78,2.415,2.415,0,0,1-.681-1.734c-.013-1.076,0-2.152,0-3.228h-.012" transform="translate(-172.711 -15.969)"/>
              <path id="Trazado_2126" data-name="Trazado 2126" d="M253.968,25.032V19.248c0-.57.219-.8.8-.856a3,3,0,0,1,.955.04.619.619,0,0,1,.549.66c.047,3.8.006,7.6.018,11.395,0,.149-.009.3-.021.447a.593.593,0,0,1-.535.592,2.761,2.761,0,0,1-1.292-.015.525.525,0,0,1-.448-.512q-.023-.343-.024-.688,0-2.64,0-5.28" transform="translate(-156.563 -11.326)"/>
              <path id="Trazado_2127" data-name="Trazado 2127" d="M269.238,31.754c0,1.051,0,2.984,0,4.036,0,.174-.009.347-.013.522a.674.674,0,0,1-.627.743,2.785,2.785,0,0,1-1.255-.063.534.534,0,0,1-.4-.48,3.005,3.005,0,0,1-.032-.427c0-2.314,0-5.51,0-7.824a1.729,1.729,0,0,1,.066-.514.558.558,0,0,1,.454-.407,3.011,3.011,0,0,1,1.182-.009.644.644,0,0,1,.608.73q0,1.847,0,3.695Z" transform="translate(-164.544 -16.814)"/>
              <path id="Trazado_2128" data-name="Trazado 2128" d="M267.922,18.374a1.913,1.913,0,0,1,.785.135.726.726,0,0,1,.384.442,1.8,1.8,0,0,1,.011,1.129.773.773,0,0,1-.529.524,1.987,1.987,0,0,1-1.172.006.89.89,0,0,1-.628-.851c-.071-.67.116-1.215.716-1.346a3.138,3.138,0,0,1,.433-.038" transform="translate(-164.448 -11.327)"/>
            </g>
          </g>
        </g>
      </g>
    </g>
  </g>
</svg>
