<svg id="Grupo_2094" data-name="Grupo 2094" xmlns="http://www.w3.org/2000/svg" xmlns:xlink="http://www.w3.org/1999/xlink" width="145.226" height="31.646" viewBox="0 0 145.226 31.646">
  <defs>
    <clipPath id="clip-path">
      <rect id="Rectángulo_495" data-name="Rectángulo 495" width="145.226" height="31.646" fill="none"/>
    </clipPath>
  </defs>
  <g id="Grupo_2093" data-name="Grupo 2093" clip-path="url(#clip-path)">
    <g id="Grupo_2092" data-name="Grupo 2092" transform="translate(0 0)">
      <g id="Grupo_2091" data-name="Grupo 2091" clip-path="url(#clip-path)">
        <path id="Trazado_2281" data-name="Trazado 2281" d="M24.851,35.731l.021,1.317-1.188.019-.021-1.27a3.769,3.769,0,0,1-2.794-1.061l1.042-1.076a2.682,2.682,0,0,0,1.882.676l-.035-2.129-.377-.041a2.813,2.813,0,0,1-1.635-.679,2.184,2.184,0,0,1-.626-1.626A2.492,2.492,0,0,1,23.526,27.3l-.017-1.059,1.188-.019.017,1.047a3.438,3.438,0,0,1,2.333.927L26.028,29.24a2.349,2.349,0,0,0-1.456-.542l.033,2.047.448.064a2.853,2.853,0,0,1,1.611.633,2.318,2.318,0,0,1,.675,1.754,2.541,2.541,0,0,1-2.489,2.535M23.7,28.725A1.044,1.044,0,0,0,22.7,29.776a.809.809,0,0,0,.257.6,1.386,1.386,0,0,0,.782.317Zm1.768,3.842a1.424,1.424,0,0,0-.84-.292l.033,2.023c.7-.093,1.087-.453,1.078-1.029a.932.932,0,0,0-.27-.7" transform="translate(-13.594 -17.083)" fill="#fff"/>
        <path id="Trazado_2282" data-name="Trazado 2282" d="M28.531,2.072a.54.54,0,0,1-.6.455H25.179a.54.54,0,0,1-.6-.455V.455a.54.54,0,0,1,.6-.455h2.756a.54.54,0,0,1,.6.455Z" transform="translate(-16.013 0)" fill="#fff"/>
        <path id="Trazado_2283" data-name="Trazado 2283" d="M10.553,29.786a7.916,7.916,0,0,1,0-15.833,1.318,1.318,0,1,0,0-2.636,10.553,10.553,0,0,0,0,21.106,1.318,1.318,0,0,0,0-2.637" transform="translate(0 -7.372)" fill="#fff"/>
        <path id="Trazado_2284" data-name="Trazado 2284" d="M41.7,17.656a.759.759,0,0,1-.642-1.162l.922-1.473a.759.759,0,0,1,1.287.806L42.339,17.3a.758.758,0,0,1-.644.356" transform="translate(-26.666 -9.553)" fill="#fff"/>
        <path id="Trazado_2285" data-name="Trazado 2285" d="M50.48,27.989a.759.759,0,0,1-.349-1.433l1.544-.8a.759.759,0,1,1,.7,1.348l-1.544.8a.754.754,0,0,1-.348.085" transform="translate(-32.387 -16.722)" fill="#fff"/>
        <path id="Trazado_2286" data-name="Trazado 2286" d="M50.5,54.733a.756.756,0,0,1-.382-.1l-1.5-.877a.759.759,0,1,1,.766-1.31l1.5.877a.759.759,0,0,1-.384,1.414" transform="translate(-31.426 -34.092)" fill="#fff"/>
        <path id="Trazado_2287" data-name="Trazado 2287" d="M40.995,63.525a.758.758,0,0,1-.665-.392l-.842-1.521a.759.759,0,1,1,1.328-.735l.842,1.521a.759.759,0,0,1-.663,1.127" transform="translate(-25.66 -39.4)" fill="#fff"/>
        <path id="Trazado_2288" data-name="Trazado 2288" d="M54.48,40.768H52.742a.759.759,0,0,1,0-1.518H54.48a.759.759,0,0,1,0,1.518" transform="translate(-33.861 -25.567)" fill="#fff"/>
        <path id="Trazado_2289" data-name="Trazado 2289" d="M87.009,34.045a5.524,5.524,0,0,1,.57,1.69,8.106,8.106,0,0,1-1.751.529,10.8,10.8,0,0,1-1.934.163,7.509,7.509,0,0,1-2.86-.519,5.8,5.8,0,0,1-2.148-1.486,6.6,6.6,0,0,1-1.344-2.351,9.681,9.681,0,0,1-.468-3.115,10.037,10.037,0,0,1,.468-3.166,6.886,6.886,0,0,1,1.344-2.413,5.876,5.876,0,0,1,2.138-1.537,7.135,7.135,0,0,1,2.83-.539,10.583,10.583,0,0,1,2,.163,11.231,11.231,0,0,1,1.486.387,3.757,3.757,0,0,1-.173.865q-.133.4-.315.845-.305-.1-.591-.183t-.611-.142a6.7,6.7,0,0,0-.723-.092q-.4-.031-.906-.031a4.208,4.208,0,0,0-3.451,1.507,6.7,6.7,0,0,0-1.232,4.336,8.07,8.07,0,0,0,.346,2.5,4.739,4.739,0,0,0,.977,1.751,3.985,3.985,0,0,0,1.516,1.038,5.415,5.415,0,0,0,1.985.346,7.69,7.69,0,0,0,1.547-.143,6.624,6.624,0,0,0,1.3-.407" transform="translate(-50.205 -13.875)" fill="#fff"/>
        <path id="Trazado_2290" data-name="Trazado 2290" d="M115.558,33.879q.224-.04.427-.061t.428-.02q.224,0,.448.02a3.294,3.294,0,0,1,.407.061q.061.305.122.8a7.119,7.119,0,0,1,.061.845,4.222,4.222,0,0,1,1.13-1.2,3,3,0,0,1,1.8-.509q.163,0,.336.01a2.906,2.906,0,0,1,.3.031,3.359,3.359,0,0,1,.061.387q.02.2.02.428a4.462,4.462,0,0,1-.03.509q-.031.265-.071.509a1.4,1.4,0,0,0-.336-.04h-.275a3.56,3.56,0,0,0-1.048.153,2.194,2.194,0,0,0-.9.539,2.68,2.68,0,0,0-.631,1.059,5.351,5.351,0,0,0-.234,1.731v5.191a4.769,4.769,0,0,1-.5.061q-.275.02-.5.021c-.15,0-.315-.007-.5-.021s-.356-.034-.519-.061Z" transform="translate(-75.273 -22.016)" fill="#fff"/>
        <path id="Trazado_2291" data-name="Trazado 2291" d="M137.9,39.3a3.409,3.409,0,0,0,.885,2.5,3.515,3.515,0,0,0,2.494.794,7.482,7.482,0,0,0,2.748-.509,3.068,3.068,0,0,1,.265.743,4.859,4.859,0,0,1,.122.865,6.805,6.805,0,0,1-1.476.428,10.262,10.262,0,0,1-1.781.142,6.727,6.727,0,0,1-2.443-.4,4.293,4.293,0,0,1-2.647-2.83,7.306,7.306,0,0,1-.305-2.168,7.674,7.674,0,0,1,.3-2.168,4.889,4.889,0,0,1,.906-1.751,4.387,4.387,0,0,1,1.537-1.181,5.084,5.084,0,0,1,2.189-.438,4.574,4.574,0,0,1,1.893.366,3.847,3.847,0,0,1,1.364,1.008,4.372,4.372,0,0,1,.835,1.527,6.248,6.248,0,0,1,.285,1.924q0,.286-.02.6t-.041.539Zm5.171-1.506a3.838,3.838,0,0,0-.153-1.089,2.765,2.765,0,0,0-.448-.906,2.185,2.185,0,0,0-.753-.621,2.369,2.369,0,0,0-1.089-.234,2.4,2.4,0,0,0-1.9.753,3.685,3.685,0,0,0-.8,2.1Z" transform="translate(-88.434 -21.712)" fill="#fff"/>
        <path id="Trazado_2292" data-name="Trazado 2292" d="M174.392,34.482a3.141,3.141,0,0,1-1.763-.788,3.7,3.7,0,0,1-.916-2.769,6.1,6.1,0,0,1,.193-1.578A3.629,3.629,0,0,1,172.5,28.1a2.81,2.81,0,0,1,1.007-.835,3.2,3.2,0,0,1,1.445-.305,5.975,5.975,0,0,1,1.018.082,4.389,4.389,0,0,1,.876.244v4.947h1.995v-11.2a4.864,4.864,0,0,0-.5-.061c-.183-.013-.349-.02-.5-.02s-.3.007-.489.02a4.856,4.856,0,0,0-.509.061v4.54a6.909,6.909,0,0,0-.947-.2,7.187,7.187,0,0,0-1.068-.081,5.48,5.48,0,0,0-2.148.407,4.767,4.767,0,0,0-1.659,1.15,5.157,5.157,0,0,0-1.069,1.781,6.706,6.706,0,0,0-.376,2.3A6.257,6.257,0,0,0,170,33.389a4.259,4.259,0,0,0,2.881,2.534,7.514,7.514,0,0,0,1.508.254Z" transform="translate(-110.46 -13.647)" fill="#fff"/>
        <path id="Trazado_2293" data-name="Trazado 2293" d="M206.953,23.438q.264.041.57.061t.55.021q.224,0,.519-.021t.54-.061a4.272,4.272,0,0,0,.051-.529q.01-.285.01-.509t-.01-.509a3.71,3.71,0,0,0-.051-.509q-.245-.041-.55-.061c-.2-.014-.38-.021-.529-.021s-.326.007-.53.021-.394.034-.57.061a3.555,3.555,0,0,0-.051.509q-.01.286-.01.509t.01.509a4.082,4.082,0,0,0,.051.529" transform="translate(-134.767 -13.875)" fill="#fff"/>
        <path id="Trazado_2294" data-name="Trazado 2294" d="M204.4,35.619h1.323v5.13H207.7V34.031h-3.3a2.487,2.487,0,0,0-.061.376c-.014.143-.021.282-.021.417s.007.275.021.418a2.48,2.48,0,0,0,.061.377" transform="translate(-133.093 -22.167)" fill="#fff"/>
        <path id="Trazado_2295" data-name="Trazado 2295" d="M226.728,32.762l.316-7.716,3.176,7.716h2.19l3.286-7.655.315,7.655H238l-.516-10.912a4.9,4.9,0,0,0-.55-.061q-.326-.02-.59-.02-.286,0-.591.02a4.08,4.08,0,0,0-.509.061l-3.807,9.161-3.787-9.161a4.932,4.932,0,0,0-.56-.061q-.336-.02-.621-.02t-.6.02q-.316.021-.56.061l-.486,10.912Z" transform="translate(-146.45 -14.18)" fill="#fff"/>
        <path id="Trazado_2296" data-name="Trazado 2296" d="M273.76,23.438q.264.041.57.061t.55.021q.224,0,.519-.021t.54-.061a4.278,4.278,0,0,0,.051-.529q.01-.285.01-.509t-.01-.509a3.715,3.715,0,0,0-.051-.509q-.245-.041-.55-.061c-.2-.014-.38-.021-.529-.021s-.326.007-.53.021-.394.034-.57.061a3.559,3.559,0,0,0-.051.509q-.01.286-.01.509t.01.509a4.087,4.087,0,0,0,.051.529" transform="translate(-178.284 -13.875)" fill="#fff"/>
        <path id="Trazado_2297" data-name="Trazado 2297" d="M271.211,35.619h1.323v5.13h1.975V34.031h-3.3a2.53,2.53,0,0,0-.061.376c-.014.143-.021.282-.021.417s.007.275.021.418a2.523,2.523,0,0,0,.061.377" transform="translate(-176.61 -22.167)" fill="#fff"/>
        <path id="Trazado_2298" data-name="Trazado 2298" d="M293.408,40.293V38.726a5.071,5.071,0,0,1,.234-1.639,3.152,3.152,0,0,1,.621-1.109,2.4,2.4,0,0,1,.9-.631,2.886,2.886,0,0,1,1.079-.2,1.581,1.581,0,0,1,1.425.682,3.957,3.957,0,0,1,.448,2.127v2.341h2.015V37.4a4.664,4.664,0,0,0-.855-3.044,3.248,3.248,0,0,0-2.647-1.028,3.72,3.72,0,0,0-2.1.621,3.985,3.985,0,0,0-.723.621,4.165,4.165,0,0,0-.519.692,7.641,7.641,0,0,0-.061-.865q-.061-.519-.122-.824c-.15-.027-.288-.047-.417-.061a4.09,4.09,0,0,0-.417-.02c-.15,0-.3.007-.438.02s-.289.034-.437.061v6.718Z" transform="translate(-189.81 -21.712)" fill="#fff"/>
        <path id="Trazado_2299" data-name="Trazado 2299" d="M328.041,40.6a7.6,7.6,0,0,1-.061-1V33.88a4.859,4.859,0,0,0-.509-.061q-.286-.02-.509-.02-.2,0-.488.02a4.824,4.824,0,0,0-.509.061v5.8c0,.326.014.63.039.916Z" transform="translate(-212.329 -22.016)" fill="#fff"/>
        <path id="Trazado_2300" data-name="Trazado 2300" d="M347,40.6V33.88a4.865,4.865,0,0,0-.5-.061c-.183-.013-.35-.02-.5-.02s-.316.007-.5.02a4.854,4.854,0,0,0-.5.061V40.6Z" transform="translate(-224.73 -22.016)" fill="#fff"/>
        <path id="Trazado_2301" data-name="Trazado 2301" d="M358.992,30.809v5.11h2c0-.111,0-.225,0-.346V30.809h2.647q.04-.2.061-.407t.02-.427a3.4,3.4,0,0,0-.081-.774h-2.647V26.615h-.163l-3.5,3.909.082.285Z" transform="translate(-232.756 -17.337)" fill="#fff"/>
        <path id="Trazado_2302" data-name="Trazado 2302" d="M383.543,40.293a7.282,7.282,0,0,1-.14-1.486,5.113,5.113,0,0,1,.661-2.82,2.3,2.3,0,0,1,2.067-1.008,2.32,2.32,0,0,1,2.076,1.008,5.047,5.047,0,0,1,.672,2.82,7.175,7.175,0,0,1-.143,1.486h2.122A7.965,7.965,0,0,0,391,38.807a7.593,7.593,0,0,0-.295-2.158,4.8,4.8,0,0,0-.906-1.731,4.351,4.351,0,0,0-1.527-1.161,5.56,5.56,0,0,0-4.275,0,4.35,4.35,0,0,0-1.527,1.161,4.789,4.789,0,0,0-.906,1.731,7.568,7.568,0,0,0-.3,2.158,7.963,7.963,0,0,0,.138,1.486Z" transform="translate(-248.351 -21.712)" fill="#fff"/>
        <rect id="Rectángulo_491" data-name="Rectángulo 491" width="79.967" height="11.838" transform="translate(65.259 19.807)" fill="#fff"/>
        <path id="Trazado_2303" data-name="Trazado 2303" d="M198.193,70.88a2.607,2.607,0,0,1-.975-.539.409.409,0,0,1-.134-.312.351.351,0,0,1,.071-.218.208.208,0,0,1,.169-.093.429.429,0,0,1,.249.1,3,3,0,0,0,1.888.641,2,2,0,0,0,1.176-.294.969.969,0,0,0,.41-.837.672.672,0,0,0-.2-.5,1.42,1.42,0,0,0-.517-.307,7.831,7.831,0,0,0-.864-.241,8.369,8.369,0,0,1-1.2-.356,1.86,1.86,0,0,1-.757-.534,1.371,1.371,0,0,1-.289-.908,1.614,1.614,0,0,1,.289-.949,1.876,1.876,0,0,1,.811-.641,2.953,2.953,0,0,1,1.189-.227,3.451,3.451,0,0,1,1.163.191,2.45,2.45,0,0,1,.9.548.434.434,0,0,1,.143.312.35.35,0,0,1-.071.218.208.208,0,0,1-.169.093.544.544,0,0,1-.258-.1,3.04,3.04,0,0,0-.811-.5,2.537,2.537,0,0,0-.9-.143,1.88,1.88,0,0,0-1.149.307,1.012,1.012,0,0,0-.41.86.79.79,0,0,0,.361.708,3.641,3.641,0,0,0,1.109.414q.81.2,1.273.361a1.909,1.909,0,0,1,.771.494,1.242,1.242,0,0,1,.307.882,1.541,1.541,0,0,1-.289.926,1.879,1.879,0,0,1-.815.624,3.058,3.058,0,0,1-1.2.223,4.07,4.07,0,0,1-1.278-.2" transform="translate(-128.378 -42.118)" fill="#fff"/>
        <path id="Trazado_2304" data-name="Trazado 2304" d="M221.32,64.836a.387.387,0,0,1,.093.272v5.638a.369.369,0,0,1-.089.258.321.321,0,0,1-.249.1.293.293,0,0,1-.241-.1.393.393,0,0,1-.08-.258V66.2L218.821,69.9a.394.394,0,0,1-.365.258.4.4,0,0,1-.365-.258l-1.942-3.661v4.507a.381.381,0,0,1-.085.258.306.306,0,0,1-.245.1.321.321,0,0,1-.25-.1.369.369,0,0,1-.089-.258V65.108a.376.376,0,0,1,.1-.272.353.353,0,0,1,.267-.1.4.4,0,0,1,.356.258l2.262,4.338,2.236-4.338a.515.515,0,0,1,.156-.2.347.347,0,0,1,.2-.058.339.339,0,0,1,.263.1" transform="translate(-140.362 -42.167)" fill="#fff"/>
        <path id="Trazado_2305" data-name="Trazado 2305" d="M242.979,70.774a.283.283,0,0,1-.1.223.362.362,0,0,1-.245.089.315.315,0,0,1-.312-.214l-.632-1.443h-3.358l-.641,1.443a.316.316,0,0,1-.312.214.368.368,0,0,1-.25-.094.291.291,0,0,1-.107-.227.318.318,0,0,1,.036-.143l2.547-5.665a.387.387,0,0,1,.16-.187.453.453,0,0,1,.231-.062.443.443,0,0,1,.241.067.416.416,0,0,1,.16.183l2.548,5.665a.335.335,0,0,1,.036.151m-4.382-1.95h2.824L240,65.626Z" transform="translate(-154.392 -42.15)" fill="#fff"/>
        <path id="Trazado_2306" data-name="Trazado 2306" d="M263.463,70.892a.27.27,0,0,1-.1.218.375.375,0,0,1-.557-.093l-1.193-1.888a1.436,1.436,0,0,0-.481-.5,1.407,1.407,0,0,0-.677-.138h-1.122v2.325a.378.378,0,0,1-.1.272.343.343,0,0,1-.258.1.353.353,0,0,1-.267-.1.376.376,0,0,1-.1-.272V65.218a.342.342,0,0,1,.1-.258.377.377,0,0,1,.272-.1h2.209a2.367,2.367,0,0,1,1.563.454,1.65,1.65,0,0,1,.539,1.336,1.672,1.672,0,0,1-.432,1.2,1.968,1.968,0,0,1-1.234.552,1.094,1.094,0,0,1,.4.232,2.087,2.087,0,0,1,.356.445l1.015,1.6a.376.376,0,0,1,.062.2m-2.334-3.011a1.666,1.666,0,0,0,1.091-.3,1.13,1.13,0,0,0,.361-.917,1.1,1.1,0,0,0-.356-.9,1.7,1.7,0,0,0-1.1-.294h-1.8v2.414Z" transform="translate(-168.455 -42.25)" fill="#fff"/>
        <path id="Trazado_2307" data-name="Trazado 2307" d="M277.395,71.084a.367.367,0,0,1-.1-.272V65.485h-1.915a.359.359,0,0,1-.25-.08.346.346,0,0,1,0-.463.359.359,0,0,1,.25-.08h4.569a.359.359,0,0,1,.25.08.346.346,0,0,1,0,.463.359.359,0,0,1-.25.08h-1.915v5.327a.377.377,0,0,1-.1.272.354.354,0,0,1-.267.1.369.369,0,0,1-.272-.1" transform="translate(-179.157 -42.25)" fill="#fff"/>
        <path id="Trazado_2308" data-name="Trazado 2308" d="M294.07,71.084a.376.376,0,0,1-.1-.272V65.218a.34.34,0,0,1,.1-.258.375.375,0,0,1,.272-.1h2.111a2.253,2.253,0,0,1,1.537.481,1.717,1.717,0,0,1,.548,1.363,1.737,1.737,0,0,1-.552,1.372,2.229,2.229,0,0,1-1.532.49H294.7v2.245a.378.378,0,0,1-.1.272.4.4,0,0,1-.534,0m2.316-3.122q1.434,0,1.434-1.256,0-1.238-1.434-1.238H294.7v2.494Z" transform="translate(-191.49 -42.25)" fill="#fff"/>
        <path id="Trazado_2309" data-name="Trazado 2309" d="M317.093,64.836a.387.387,0,0,1,.093.272v5.621a.387.387,0,0,1-.093.272.338.338,0,0,1-.263.1.351.351,0,0,1-.267-.1.375.375,0,0,1-.1-.272V68.181h-3.759v2.548a.377.377,0,0,1-.1.272.352.352,0,0,1-.267.1.338.338,0,0,1-.263-.1.387.387,0,0,1-.093-.272V65.108a.387.387,0,0,1,.093-.272.339.339,0,0,1,.263-.1.353.353,0,0,1,.267.1.377.377,0,0,1,.1.272v2.45h3.759v-2.45a.376.376,0,0,1,.1-.272.353.353,0,0,1,.267-.1.339.339,0,0,1,.263.1" transform="translate(-203.223 -42.167)" fill="#fff"/>
        <path id="Trazado_2310" data-name="Trazado 2310" d="M333.561,70.688a2.574,2.574,0,0,1-.993-1.113,3.886,3.886,0,0,1-.347-1.7,3.979,3.979,0,0,1,.343-1.715,2.513,2.513,0,0,1,.989-1.113,3.206,3.206,0,0,1,3.055,0,2.514,2.514,0,0,1,.989,1.113,3.956,3.956,0,0,1,.343,1.706,3.914,3.914,0,0,1-.347,1.706,2.571,2.571,0,0,1-.993,1.118,3.139,3.139,0,0,1-3.037,0m3.073-.9a3.592,3.592,0,0,0,0-3.834,2.142,2.142,0,0,0-3.113,0,3.564,3.564,0,0,0,0,3.826,2.128,2.128,0,0,0,3.109,0" transform="translate(-216.405 -42.118)" fill="#fff"/>
        <path id="Trazado_2311" data-name="Trazado 2311" d="M358.882,64.836a.4.4,0,0,1,.089.272v5.621a.387.387,0,0,1-.094.272.337.337,0,0,1-.262.1.372.372,0,0,1-.294-.151l-3.7-4.944v4.721a.387.387,0,0,1-.093.272.327.327,0,0,1-.254.1.313.313,0,0,1-.249-.1.4.4,0,0,1-.089-.272V65.108a.387.387,0,0,1,.093-.272.339.339,0,0,1,.262-.1.38.38,0,0,1,.3.152l3.688,4.943V65.108a.389.389,0,0,1,.093-.272.328.328,0,0,1,.254-.1.314.314,0,0,1,.249.1" transform="translate(-230.551 -42.167)" fill="#fff"/>
        <path id="Trazado_2312" data-name="Trazado 2312" d="M374.456,71.044a.34.34,0,0,1-.1-.258V65.218a.34.34,0,0,1,.1-.258.377.377,0,0,1,.271-.1h3.331a.361.361,0,0,1,.25.08.323.323,0,0,1,0,.445.359.359,0,0,1-.25.08h-2.984V67.65h2.806a.361.361,0,0,1,.25.08.324.324,0,0,1,0,.446.361.361,0,0,1-.25.08h-2.806v2.28h2.984a.374.374,0,0,1,.25.076.329.329,0,0,1,0,.45.361.361,0,0,1-.25.08h-3.331a.376.376,0,0,1-.271-.1" transform="translate(-243.849 -42.25)" fill="#fff"/>
        <path id="Trazado_2313" data-name="Trazado 2313" d="M390.512,70.88a2.607,2.607,0,0,1-.975-.539.409.409,0,0,1-.134-.312.351.351,0,0,1,.071-.218.208.208,0,0,1,.169-.093.429.429,0,0,1,.249.1,3,3,0,0,0,1.888.641,2,2,0,0,0,1.176-.294.969.969,0,0,0,.41-.837.672.672,0,0,0-.2-.5,1.419,1.419,0,0,0-.517-.307,7.832,7.832,0,0,0-.864-.241,8.37,8.37,0,0,1-1.2-.356,1.86,1.86,0,0,1-.757-.534,1.371,1.371,0,0,1-.289-.908,1.614,1.614,0,0,1,.289-.949,1.876,1.876,0,0,1,.811-.641,2.953,2.953,0,0,1,1.189-.227,3.451,3.451,0,0,1,1.163.191,2.45,2.45,0,0,1,.9.548.434.434,0,0,1,.143.312.351.351,0,0,1-.071.218.208.208,0,0,1-.169.093.544.544,0,0,1-.258-.1,3.039,3.039,0,0,0-.811-.5,2.537,2.537,0,0,0-.9-.143,1.88,1.88,0,0,0-1.149.307,1.012,1.012,0,0,0-.41.86.79.79,0,0,0,.361.708,3.642,3.642,0,0,0,1.109.414q.81.2,1.274.361a1.905,1.905,0,0,1,.77.494,1.24,1.24,0,0,1,.307.882,1.541,1.541,0,0,1-.289.926,1.879,1.879,0,0,1-.815.624,3.058,3.058,0,0,1-1.2.223,4.07,4.07,0,0,1-1.278-.2" transform="translate(-253.652 -42.118)" fill="#fff"/>
        <g id="Grupo_2090" data-name="Grupo 2090" transform="translate(0 0)" opacity="0.8">
          <g id="Grupo_2089" data-name="Grupo 2089" transform="translate(0 0)">
            <g id="Grupo_2088" data-name="Grupo 2088" clip-path="url(#clip-path)">
              <path id="Trazado_2314" data-name="Trazado 2314" d="M24.851,35.731l.021,1.317-1.188.019-.021-1.27a3.769,3.769,0,0,1-2.794-1.061l1.042-1.076a2.682,2.682,0,0,0,1.882.676l-.035-2.129-.377-.041a2.813,2.813,0,0,1-1.635-.679,2.184,2.184,0,0,1-.626-1.626A2.492,2.492,0,0,1,23.526,27.3l-.017-1.059,1.188-.019.017,1.047a3.438,3.438,0,0,1,2.333.927L26.028,29.24a2.349,2.349,0,0,0-1.456-.542l.033,2.047.448.064a2.853,2.853,0,0,1,1.611.633,2.318,2.318,0,0,1,.675,1.754,2.541,2.541,0,0,1-2.489,2.535M23.7,28.725A1.044,1.044,0,0,0,22.7,29.776a.809.809,0,0,0,.257.6,1.386,1.386,0,0,0,.782.317Zm1.768,3.842a1.424,1.424,0,0,0-.84-.292l.033,2.023c.7-.093,1.087-.453,1.078-1.029a.932.932,0,0,0-.27-.7" transform="translate(-13.594 -17.083)" fill="#535353"/>
              <path id="Trazado_2315" data-name="Trazado 2315" d="M28.531,2.072a.54.54,0,0,1-.6.455H25.179a.54.54,0,0,1-.6-.455V.455a.54.54,0,0,1,.6-.455h2.756a.54.54,0,0,1,.6.455Z" transform="translate(-16.013 0)" fill="#b4b4b4"/>
              <path id="Trazado_2316" data-name="Trazado 2316" d="M10.553,29.786a7.916,7.916,0,0,1,0-15.833,1.318,1.318,0,1,0,0-2.636,10.553,10.553,0,0,0,0,21.106,1.318,1.318,0,0,0,0-2.637" transform="translate(0 -7.372)" fill="#535353"/>
              <path id="Trazado_2317" data-name="Trazado 2317" d="M41.7,17.656a.759.759,0,0,1-.642-1.162l.922-1.473a.759.759,0,0,1,1.287.806L42.339,17.3a.758.758,0,0,1-.644.356" transform="translate(-26.666 -9.553)" fill="#b4b4b4"/>
              <path id="Trazado_2318" data-name="Trazado 2318" d="M50.48,27.989a.759.759,0,0,1-.349-1.433l1.544-.8a.759.759,0,1,1,.7,1.348l-1.544.8a.754.754,0,0,1-.348.085" transform="translate(-32.387 -16.722)" fill="#b4b4b4"/>
              <path id="Trazado_2319" data-name="Trazado 2319" d="M50.5,54.733a.756.756,0,0,1-.382-.1l-1.5-.877a.759.759,0,1,1,.766-1.31l1.5.877a.759.759,0,0,1-.384,1.414" transform="translate(-31.426 -34.092)" fill="#b4b4b4"/>
              <path id="Trazado_2320" data-name="Trazado 2320" d="M40.995,63.525a.758.758,0,0,1-.665-.392l-.842-1.521a.759.759,0,1,1,1.328-.735l.842,1.521a.759.759,0,0,1-.663,1.127" transform="translate(-25.66 -39.4)" fill="#b4b4b4"/>
              <path id="Trazado_2321" data-name="Trazado 2321" d="M54.48,40.768H52.742a.759.759,0,0,1,0-1.518H54.48a.759.759,0,0,1,0,1.518" transform="translate(-33.861 -25.567)" fill="#b4b4b4"/>
              <path id="Trazado_2322" data-name="Trazado 2322" d="M87.009,34.045a5.524,5.524,0,0,1,.57,1.69,8.106,8.106,0,0,1-1.751.529,10.8,10.8,0,0,1-1.934.163,7.509,7.509,0,0,1-2.86-.519,5.8,5.8,0,0,1-2.148-1.486,6.6,6.6,0,0,1-1.344-2.351,9.681,9.681,0,0,1-.468-3.115,10.037,10.037,0,0,1,.468-3.166,6.886,6.886,0,0,1,1.344-2.413,5.876,5.876,0,0,1,2.138-1.537,7.135,7.135,0,0,1,2.83-.539,10.583,10.583,0,0,1,2,.163,11.231,11.231,0,0,1,1.486.387,3.757,3.757,0,0,1-.173.865q-.133.4-.315.845-.305-.1-.591-.183t-.611-.142a6.7,6.7,0,0,0-.723-.092q-.4-.031-.906-.031a4.208,4.208,0,0,0-3.451,1.507,6.7,6.7,0,0,0-1.232,4.336,8.07,8.07,0,0,0,.346,2.5,4.739,4.739,0,0,0,.977,1.751,3.985,3.985,0,0,0,1.516,1.038,5.415,5.415,0,0,0,1.985.346,7.69,7.69,0,0,0,1.547-.143,6.624,6.624,0,0,0,1.3-.407" transform="translate(-50.205 -13.875)" fill="#595959"/>
              <path id="Trazado_2323" data-name="Trazado 2323" d="M115.558,33.879q.224-.04.427-.061t.428-.02q.224,0,.448.02a3.294,3.294,0,0,1,.407.061q.061.305.122.8a7.119,7.119,0,0,1,.061.845,4.222,4.222,0,0,1,1.13-1.2,3,3,0,0,1,1.8-.509q.163,0,.336.01a2.906,2.906,0,0,1,.3.031,3.359,3.359,0,0,1,.061.387q.02.2.02.428a4.462,4.462,0,0,1-.03.509q-.031.265-.071.509a1.4,1.4,0,0,0-.336-.04h-.275a3.56,3.56,0,0,0-1.048.153,2.194,2.194,0,0,0-.9.539,2.68,2.68,0,0,0-.631,1.059,5.351,5.351,0,0,0-.234,1.731v5.191a4.769,4.769,0,0,1-.5.061q-.275.02-.5.021c-.15,0-.315-.007-.5-.021s-.356-.034-.519-.061Z" transform="translate(-75.273 -22.016)" fill="#595959"/>
              <path id="Trazado_2324" data-name="Trazado 2324" d="M137.9,39.3a3.409,3.409,0,0,0,.885,2.5,3.515,3.515,0,0,0,2.494.794,7.482,7.482,0,0,0,2.748-.509,3.068,3.068,0,0,1,.265.743,4.859,4.859,0,0,1,.122.865,6.805,6.805,0,0,1-1.476.428,10.262,10.262,0,0,1-1.781.142,6.727,6.727,0,0,1-2.443-.4,4.293,4.293,0,0,1-2.647-2.83,7.306,7.306,0,0,1-.305-2.168,7.674,7.674,0,0,1,.3-2.168,4.889,4.889,0,0,1,.906-1.751,4.387,4.387,0,0,1,1.537-1.181,5.084,5.084,0,0,1,2.189-.438,4.574,4.574,0,0,1,1.893.366,3.847,3.847,0,0,1,1.364,1.008,4.372,4.372,0,0,1,.835,1.527,6.248,6.248,0,0,1,.285,1.924q0,.286-.02.6t-.041.539Zm5.171-1.506a3.838,3.838,0,0,0-.153-1.089,2.765,2.765,0,0,0-.448-.906,2.185,2.185,0,0,0-.753-.621,2.369,2.369,0,0,0-1.089-.234,2.4,2.4,0,0,0-1.9.753,3.685,3.685,0,0,0-.8,2.1Z" transform="translate(-88.434 -21.711)" fill="#595959"/>
              <path id="Trazado_2325" data-name="Trazado 2325" d="M174.392,34.482a3.141,3.141,0,0,1-1.763-.788,3.7,3.7,0,0,1-.916-2.769,6.1,6.1,0,0,1,.193-1.578A3.629,3.629,0,0,1,172.5,28.1a2.81,2.81,0,0,1,1.007-.835,3.2,3.2,0,0,1,1.445-.305,5.975,5.975,0,0,1,1.018.082,4.389,4.389,0,0,1,.876.244v4.947h1.995v-11.2a4.864,4.864,0,0,0-.5-.061c-.183-.013-.349-.02-.5-.02s-.3.007-.489.02a4.856,4.856,0,0,0-.509.061v4.54a6.909,6.909,0,0,0-.947-.2,7.187,7.187,0,0,0-1.068-.081,5.48,5.48,0,0,0-2.148.407,4.767,4.767,0,0,0-1.659,1.15,5.157,5.157,0,0,0-1.069,1.781,6.706,6.706,0,0,0-.376,2.3A6.257,6.257,0,0,0,170,33.389a4.259,4.259,0,0,0,2.881,2.534,7.514,7.514,0,0,0,1.508.254Z" transform="translate(-110.46 -13.647)" fill="#595959"/>
              <path id="Trazado_2326" data-name="Trazado 2326" d="M206.953,23.438q.264.041.57.061t.55.021q.224,0,.519-.021t.54-.061a4.272,4.272,0,0,0,.051-.529q.01-.285.01-.509t-.01-.509a3.71,3.71,0,0,0-.051-.509q-.245-.041-.55-.061c-.2-.014-.38-.021-.529-.021s-.326.007-.53.021-.394.034-.57.061a3.555,3.555,0,0,0-.051.509q-.01.286-.01.509t.01.509a4.082,4.082,0,0,0,.051.529" transform="translate(-134.767 -13.875)" fill="#595959"/>
              <path id="Trazado_2327" data-name="Trazado 2327" d="M204.4,35.619h1.323v5.13H207.7V34.031h-3.3a2.487,2.487,0,0,0-.061.376c-.014.143-.021.282-.021.417s.007.275.021.418a2.48,2.48,0,0,0,.061.377" transform="translate(-133.093 -22.167)" fill="#595959"/>
              <path id="Trazado_2328" data-name="Trazado 2328" d="M226.728,32.762l.316-7.716,3.176,7.716h2.19l3.286-7.655.315,7.655H238l-.516-10.912a4.9,4.9,0,0,0-.55-.061q-.326-.02-.59-.02-.286,0-.591.02a4.08,4.08,0,0,0-.509.061l-3.807,9.161-3.787-9.161a4.932,4.932,0,0,0-.56-.061q-.336-.02-.621-.02t-.6.02q-.316.021-.56.061l-.486,10.912Z" transform="translate(-146.45 -14.179)" fill="#595959"/>
              <path id="Trazado_2329" data-name="Trazado 2329" d="M273.76,23.438q.264.041.57.061t.55.021q.224,0,.519-.021t.54-.061a4.278,4.278,0,0,0,.051-.529q.01-.285.01-.509t-.01-.509a3.715,3.715,0,0,0-.051-.509q-.245-.041-.55-.061c-.2-.014-.38-.021-.529-.021s-.326.007-.53.021-.394.034-.57.061a3.559,3.559,0,0,0-.051.509q-.01.286-.01.509t.01.509a4.087,4.087,0,0,0,.051.529" transform="translate(-178.284 -13.875)" fill="#595959"/>
              <path id="Trazado_2330" data-name="Trazado 2330" d="M271.211,35.619h1.323v5.13h1.975V34.031h-3.3a2.53,2.53,0,0,0-.061.376c-.014.143-.021.282-.021.417s.007.275.021.418a2.523,2.523,0,0,0,.061.377" transform="translate(-176.61 -22.167)" fill="#595959"/>
              <path id="Trazado_2331" data-name="Trazado 2331" d="M293.408,40.293V38.726a5.071,5.071,0,0,1,.234-1.639,3.152,3.152,0,0,1,.621-1.109,2.4,2.4,0,0,1,.9-.631,2.886,2.886,0,0,1,1.079-.2,1.581,1.581,0,0,1,1.425.682,3.957,3.957,0,0,1,.448,2.127v2.341h2.015V37.4a4.664,4.664,0,0,0-.855-3.044,3.248,3.248,0,0,0-2.647-1.028,3.72,3.72,0,0,0-2.1.621,3.985,3.985,0,0,0-.723.621,4.165,4.165,0,0,0-.519.692,7.641,7.641,0,0,0-.061-.865q-.061-.519-.122-.824c-.15-.027-.288-.047-.417-.061a4.09,4.09,0,0,0-.417-.02c-.15,0-.3.007-.438.02s-.289.034-.437.061v6.718Z" transform="translate(-189.81 -21.711)" fill="#595959"/>
              <path id="Trazado_2332" data-name="Trazado 2332" d="M328.041,40.6a7.6,7.6,0,0,1-.061-1V33.88a4.859,4.859,0,0,0-.509-.061q-.286-.02-.509-.02-.2,0-.488.02a4.824,4.824,0,0,0-.509.061v5.8c0,.326.014.63.039.916Z" transform="translate(-212.329 -22.016)" fill="#595959"/>
              <path id="Trazado_2333" data-name="Trazado 2333" d="M347,40.6V33.88a4.865,4.865,0,0,0-.5-.061c-.183-.013-.35-.02-.5-.02s-.316.007-.5.02a4.854,4.854,0,0,0-.5.061V40.6Z" transform="translate(-224.73 -22.016)" fill="#595959"/>
              <path id="Trazado_2334" data-name="Trazado 2334" d="M358.992,30.809v5.11h2c0-.111,0-.225,0-.346V30.809h2.647q.04-.2.061-.407t.02-.427a3.4,3.4,0,0,0-.081-.774h-2.647V26.615h-.163l-3.5,3.909.082.285Z" transform="translate(-232.756 -17.337)" fill="#595959"/>
              <path id="Trazado_2335" data-name="Trazado 2335" d="M383.543,40.293a7.282,7.282,0,0,1-.14-1.486,5.113,5.113,0,0,1,.661-2.82,2.3,2.3,0,0,1,2.067-1.008,2.32,2.32,0,0,1,2.076,1.008,5.047,5.047,0,0,1,.672,2.82,7.175,7.175,0,0,1-.143,1.486h2.122A7.965,7.965,0,0,0,391,38.807a7.593,7.593,0,0,0-.295-2.158,4.8,4.8,0,0,0-.906-1.731,4.351,4.351,0,0,0-1.527-1.161,5.56,5.56,0,0,0-4.275,0,4.35,4.35,0,0,0-1.527,1.161,4.789,4.789,0,0,0-.906,1.731,7.568,7.568,0,0,0-.3,2.158,7.963,7.963,0,0,0,.138,1.486Z" transform="translate(-248.351 -21.711)" fill="#595959"/>
              <rect id="Rectángulo_492" data-name="Rectángulo 492" width="79.967" height="11.838" transform="translate(65.259 19.808)" fill="#535353"/>
              <path id="Trazado_2336" data-name="Trazado 2336" d="M198.193,70.88a2.607,2.607,0,0,1-.975-.539.409.409,0,0,1-.134-.312.351.351,0,0,1,.071-.218.208.208,0,0,1,.169-.093.429.429,0,0,1,.249.1,3,3,0,0,0,1.888.641,2,2,0,0,0,1.176-.294.969.969,0,0,0,.41-.837.672.672,0,0,0-.2-.5,1.42,1.42,0,0,0-.517-.307,7.831,7.831,0,0,0-.864-.241,8.369,8.369,0,0,1-1.2-.356,1.86,1.86,0,0,1-.757-.534,1.371,1.371,0,0,1-.289-.908,1.614,1.614,0,0,1,.289-.949,1.876,1.876,0,0,1,.811-.641,2.953,2.953,0,0,1,1.189-.227,3.451,3.451,0,0,1,1.163.191,2.45,2.45,0,0,1,.9.548.434.434,0,0,1,.143.312.35.35,0,0,1-.071.218.208.208,0,0,1-.169.093.544.544,0,0,1-.258-.1,3.04,3.04,0,0,0-.811-.5,2.537,2.537,0,0,0-.9-.143,1.88,1.88,0,0,0-1.149.307,1.012,1.012,0,0,0-.41.86.79.79,0,0,0,.361.708,3.641,3.641,0,0,0,1.109.414q.81.2,1.273.361a1.909,1.909,0,0,1,.771.494,1.242,1.242,0,0,1,.307.882,1.541,1.541,0,0,1-.289.926,1.879,1.879,0,0,1-.815.624,3.058,3.058,0,0,1-1.2.223,4.07,4.07,0,0,1-1.278-.2" transform="translate(-128.378 -42.117)" fill="#fff"/>
              <path id="Trazado_2337" data-name="Trazado 2337" d="M221.32,64.836a.387.387,0,0,1,.093.272v5.638a.369.369,0,0,1-.089.258.321.321,0,0,1-.249.1.293.293,0,0,1-.241-.1.393.393,0,0,1-.08-.258V66.2L218.821,69.9a.394.394,0,0,1-.365.258.4.4,0,0,1-.365-.258l-1.942-3.661v4.507a.381.381,0,0,1-.085.258.306.306,0,0,1-.245.1.321.321,0,0,1-.25-.1.369.369,0,0,1-.089-.258V65.108a.376.376,0,0,1,.1-.272.353.353,0,0,1,.267-.1.4.4,0,0,1,.356.258l2.262,4.338,2.236-4.338a.515.515,0,0,1,.156-.2.347.347,0,0,1,.2-.058.339.339,0,0,1,.263.1" transform="translate(-140.362 -42.167)" fill="#fff"/>
              <path id="Trazado_2338" data-name="Trazado 2338" d="M242.979,70.774a.283.283,0,0,1-.1.223.362.362,0,0,1-.245.089.315.315,0,0,1-.312-.214l-.632-1.443h-3.358l-.641,1.443a.316.316,0,0,1-.312.214.368.368,0,0,1-.25-.094.291.291,0,0,1-.107-.227.318.318,0,0,1,.036-.143l2.547-5.665a.387.387,0,0,1,.16-.187.453.453,0,0,1,.231-.062.443.443,0,0,1,.241.067.416.416,0,0,1,.16.183l2.548,5.665a.335.335,0,0,1,.036.151m-4.382-1.95h2.824L240,65.626Z" transform="translate(-154.392 -42.15)" fill="#fff"/>
              <path id="Trazado_2339" data-name="Trazado 2339" d="M263.463,70.892a.27.27,0,0,1-.1.218.375.375,0,0,1-.557-.093l-1.193-1.888a1.436,1.436,0,0,0-.481-.5,1.407,1.407,0,0,0-.677-.138h-1.122v2.325a.378.378,0,0,1-.1.272.343.343,0,0,1-.258.1.353.353,0,0,1-.267-.1.376.376,0,0,1-.1-.272V65.218a.342.342,0,0,1,.1-.258.377.377,0,0,1,.272-.1h2.209a2.367,2.367,0,0,1,1.563.454,1.65,1.65,0,0,1,.539,1.336,1.672,1.672,0,0,1-.432,1.2,1.968,1.968,0,0,1-1.234.552,1.094,1.094,0,0,1,.4.232,2.087,2.087,0,0,1,.356.445l1.015,1.6a.376.376,0,0,1,.062.2m-2.334-3.011a1.666,1.666,0,0,0,1.091-.3,1.13,1.13,0,0,0,.361-.917,1.1,1.1,0,0,0-.356-.9,1.7,1.7,0,0,0-1.1-.294h-1.8v2.414Z" transform="translate(-168.455 -42.25)" fill="#fff"/>
              <path id="Trazado_2340" data-name="Trazado 2340" d="M277.395,71.084a.367.367,0,0,1-.1-.272V65.485h-1.915a.359.359,0,0,1-.25-.08.346.346,0,0,1,0-.463.359.359,0,0,1,.25-.08h4.569a.359.359,0,0,1,.25.08.346.346,0,0,1,0,.463.359.359,0,0,1-.25.08h-1.915v5.327a.377.377,0,0,1-.1.272.354.354,0,0,1-.267.1.369.369,0,0,1-.272-.1" transform="translate(-179.157 -42.25)" fill="#fff"/>
              <path id="Trazado_2341" data-name="Trazado 2341" d="M294.07,71.084a.376.376,0,0,1-.1-.272V65.218a.34.34,0,0,1,.1-.258.375.375,0,0,1,.272-.1h2.111a2.253,2.253,0,0,1,1.537.481,1.717,1.717,0,0,1,.548,1.363,1.737,1.737,0,0,1-.552,1.372,2.229,2.229,0,0,1-1.532.49H294.7v2.245a.378.378,0,0,1-.1.272.4.4,0,0,1-.534,0m2.316-3.122q1.434,0,1.434-1.256,0-1.238-1.434-1.238H294.7v2.494Z" transform="translate(-191.49 -42.25)" fill="#fff"/>
              <path id="Trazado_2342" data-name="Trazado 2342" d="M317.093,64.836a.387.387,0,0,1,.093.272v5.621a.387.387,0,0,1-.093.272.338.338,0,0,1-.263.1.351.351,0,0,1-.267-.1.375.375,0,0,1-.1-.272V68.181h-3.759v2.548a.377.377,0,0,1-.1.272.352.352,0,0,1-.267.1.338.338,0,0,1-.263-.1.387.387,0,0,1-.093-.272V65.108a.387.387,0,0,1,.093-.272.339.339,0,0,1,.263-.1.353.353,0,0,1,.267.1.377.377,0,0,1,.1.272v2.45h3.759v-2.45a.376.376,0,0,1,.1-.272.353.353,0,0,1,.267-.1.339.339,0,0,1,.263.1" transform="translate(-203.223 -42.167)" fill="#fff"/>
              <path id="Trazado_2343" data-name="Trazado 2343" d="M333.561,70.688a2.574,2.574,0,0,1-.993-1.113,3.886,3.886,0,0,1-.347-1.7,3.979,3.979,0,0,1,.343-1.715,2.513,2.513,0,0,1,.989-1.113,3.206,3.206,0,0,1,3.055,0,2.514,2.514,0,0,1,.989,1.113,3.956,3.956,0,0,1,.343,1.706,3.914,3.914,0,0,1-.347,1.706,2.571,2.571,0,0,1-.993,1.118,3.139,3.139,0,0,1-3.037,0m3.073-.9a3.592,3.592,0,0,0,0-3.834,2.142,2.142,0,0,0-3.113,0,3.564,3.564,0,0,0,0,3.826,2.128,2.128,0,0,0,3.109,0" transform="translate(-216.405 -42.117)" fill="#fff"/>
              <path id="Trazado_2344" data-name="Trazado 2344" d="M358.882,64.836a.4.4,0,0,1,.089.272v5.621a.387.387,0,0,1-.094.272.337.337,0,0,1-.262.1.372.372,0,0,1-.294-.151l-3.7-4.944v4.721a.387.387,0,0,1-.093.272.327.327,0,0,1-.254.1.313.313,0,0,1-.249-.1.4.4,0,0,1-.089-.272V65.108a.387.387,0,0,1,.093-.272.339.339,0,0,1,.262-.1.38.38,0,0,1,.3.152l3.688,4.943V65.108a.389.389,0,0,1,.093-.272.328.328,0,0,1,.254-.1.314.314,0,0,1,.249.1" transform="translate(-230.551 -42.167)" fill="#fff"/>
              <path id="Trazado_2345" data-name="Trazado 2345" d="M374.456,71.044a.34.34,0,0,1-.1-.258V65.218a.34.34,0,0,1,.1-.258.377.377,0,0,1,.271-.1h3.331a.361.361,0,0,1,.25.08.323.323,0,0,1,0,.445.359.359,0,0,1-.25.08h-2.984V67.65h2.806a.361.361,0,0,1,.25.08.324.324,0,0,1,0,.446.361.361,0,0,1-.25.08h-2.806v2.28h2.984a.374.374,0,0,1,.25.076.329.329,0,0,1,0,.45.361.361,0,0,1-.25.08h-3.331a.376.376,0,0,1-.271-.1" transform="translate(-243.849 -42.25)" fill="#fff"/>
              <path id="Trazado_2346" data-name="Trazado 2346" d="M390.512,70.88a2.607,2.607,0,0,1-.975-.539.409.409,0,0,1-.134-.312.351.351,0,0,1,.071-.218.208.208,0,0,1,.169-.093.429.429,0,0,1,.249.1,3,3,0,0,0,1.888.641,2,2,0,0,0,1.176-.294.969.969,0,0,0,.41-.837.672.672,0,0,0-.2-.5,1.419,1.419,0,0,0-.517-.307,7.832,7.832,0,0,0-.864-.241,8.37,8.37,0,0,1-1.2-.356,1.86,1.86,0,0,1-.757-.534,1.371,1.371,0,0,1-.289-.908,1.614,1.614,0,0,1,.289-.949,1.876,1.876,0,0,1,.811-.641,2.953,2.953,0,0,1,1.189-.227,3.451,3.451,0,0,1,1.163.191,2.45,2.45,0,0,1,.9.548.434.434,0,0,1,.143.312.351.351,0,0,1-.071.218.208.208,0,0,1-.169.093.544.544,0,0,1-.258-.1,3.039,3.039,0,0,0-.811-.5,2.537,2.537,0,0,0-.9-.143,1.88,1.88,0,0,0-1.149.307,1.012,1.012,0,0,0-.41.86.79.79,0,0,0,.361.708,3.642,3.642,0,0,0,1.109.414q.81.2,1.274.361a1.905,1.905,0,0,1,.77.494,1.24,1.24,0,0,1,.307.882,1.541,1.541,0,0,1-.289.926,1.879,1.879,0,0,1-.815.624,3.058,3.058,0,0,1-1.2.223,4.07,4.07,0,0,1-1.278-.2" transform="translate(-253.652 -42.117)" fill="#fff"/>
            </g>
          </g>
        </g>
      </g>
    </g>
  </g>
</svg>
