<svg xmlns="http://www.w3.org/2000/svg" xmlns:xlink="http://www.w3.org/1999/xlink" width="134" height="114.679" viewBox="0 0 134 114.679"><defs><linearGradient id="a" x1="0.5" y1="0.403" x2="0.5" y2="0.874" gradientUnits="objectBoundingBox"><stop offset="0" stop-color="#fff" stop-opacity="0"/><stop offset="1" stop-color="#a0a2a8"/></linearGradient><linearGradient id="b" x1="0.5" y1="-0.067" x2="0.5" y2="1.034" xlink:href="#a"/><linearGradient id="c" x1="0.5" y1="0.425" x2="0.5" y2="0.825" xlink:href="#a"/><linearGradient id="d" x1="0.5" y1="-0.199" x2="0.5" y2="0.733" xlink:href="#a"/><linearGradient id="e" x1="0.5" y1="-0.133" x2="0.5" y2="0.765" xlink:href="#a"/><linearGradient id="f" x1="0.5" y1="-0.295" x2="0.5" y2="0.716" xlink:href="#a"/><linearGradient id="g" x1="0.5" y1="0.117" x2="0.5" y2="1.142" xlink:href="#a"/><linearGradient id="h" x1="0.5" y1="-0.402" x2="0.5" y2="0.717" xlink:href="#a"/><linearGradient id="i" x1="0.5" y1="-0.392" x2="0.5" y2="0.845" xlink:href="#a"/><linearGradient id="j" x1="0.5" y1="-0.833" x2="0.5" y2="0.873" xlink:href="#a"/></defs><g transform="translate(-551.492 280.861)"><path d="M634.678-166.182s46.259-1.361,50.34-48.593c4.305-49.823-21.225-62.453-56.689-65.579s-73.318,7.82-76.417,43.764,9.3,61.451,92.821,49.319c0,0,9.673-.68-7.644,11.712C624.19-166.329,634.678-166.182,634.678-166.182Z" fill="#12121a"/><g transform="translate(567.056 -256.548)"><g transform="translate(0.706 0.883)" style="mix-blend-mode:multiply;isolation:isolate"><path d="M575-211.691a2.884,2.884,0,0,1-2.229-1.486,7.437,7.437,0,0,1-1.114-2.546,49.394,49.394,0,0,1-1.591-12.308q0-1.325.53-5.836a56.8,56.8,0,0,1,2.918-11.405q1.22-2.759,2.229-2.759a1.416,1.416,0,0,1,.53.107,1.261,1.261,0,0,1,.8,1.114l-.106.477a21.373,21.373,0,0,1-1.167,3.872,61.641,61.641,0,0,0-2.918,18.781A24.382,24.382,0,0,0,574.1-215.3a4.8,4.8,0,0,0,.451,1.247.827.827,0,0,0,.769.4q.637,0,1.273-.9l.265-.318a18.05,18.05,0,0,0,1.91-3.183L582.8-226.6q.688-1.379,1.114-1.379c.07,0,.106.053.106.158a3.908,3.908,0,0,1-.424,1.167q-2.282,5.359-4.669,10.716a10.283,10.283,0,0,1-1.857,3.183A3.019,3.019,0,0,1,575-211.691Z" transform="translate(-570.071 251.586)" fill="url(#a)"/><path d="M586.763-214.556a4.2,4.2,0,0,1-1.8-.531q-1.592-.742-1.8-4.774,0-.37.053-1.565a11.9,11.9,0,0,1,.637-3q1.379-4.508,5.04-5.517a2.4,2.4,0,0,1,.849-.159,1.562,1.562,0,0,1,1.379.61,1.979,1.979,0,0,1,.425,1.088,2.3,2.3,0,0,1-.583,1.379,9.671,9.671,0,0,1-4.3,3.5,2.028,2.028,0,0,0-1.406,1.591,13.17,13.17,0,0,0-.186,2.175q0,3.661,2.016,3.661a3.246,3.246,0,0,0,1.114-.212q1.857-.8,5.57-4.987,2.918-3.183,3.661-4.191a.859.859,0,0,1,.637-.424q.424,0,.425.477,0,.318-1.008,1.273-2.76,3.555-5.253,6.26Q589.363-214.555,586.763-214.556Zm-.637-9.92a8.5,8.5,0,0,0,3.979-3.183.861.861,0,0,0,.159-.531.467.467,0,0,0-.132-.265.431.431,0,0,0-.345-.159,1.2,1.2,0,0,0-.371.159A6.842,6.842,0,0,0,586.126-224.476Z" transform="translate(-571.697 249.357)" fill="url(#b)"/><path d="M616.525-230.923q-1.379-3.024-4.19-3.024a7.938,7.938,0,0,0-5.253,2.228,16.419,16.419,0,0,0-3.449,4.563l-.424.69a4.453,4.453,0,0,1-1.008,1.485,3.236,3.236,0,0,1-.159-1.114v-.371a59.3,59.3,0,0,1,2.759-14.907,21.326,21.326,0,0,1,4.4-8.488,1.256,1.256,0,0,0,.478-.955,1.413,1.413,0,0,0-.213-.689,1.561,1.561,0,0,0-1.167-.583,3.124,3.124,0,0,0-2.441,1.432A20.1,20.1,0,0,0,603-246.308a32.97,32.97,0,0,0-3.1,9.92,64.8,64.8,0,0,0-.5,7.215,52.765,52.765,0,0,0,.371,6.207q.159,2.069,1.485,2.281a1.224,1.224,0,0,0,1.115-.425,4.217,4.217,0,0,0,.689-1.379q3.13-7.8,7.48-9.762a5.642,5.642,0,0,1,1.963-.424q3.235,0,3.237,5.517a15.524,15.524,0,0,1-.69,4.509,17.61,17.61,0,0,1-.637,2.016,19.187,19.187,0,0,1-4.986,8.171,3.886,3.886,0,0,1-2.865,1.432,1.975,1.975,0,0,1-1.273-.424,2.245,2.245,0,0,1-.743-1.8,1.159,1.159,0,0,1,.054-.371,9.9,9.9,0,0,1,1.947-4.452v-1.457a18.249,18.249,0,0,0-2.955,4.69,5.387,5.387,0,0,0-.477,2.334,3.2,3.2,0,0,0,1.008,2.1,3.1,3.1,0,0,0,1.645,1.061c.459.053.76.08.9.08a6.689,6.689,0,0,0,5.359-2.759,23.045,23.045,0,0,0,5.253-14.854A9.779,9.779,0,0,0,616.525-230.923Z" transform="translate(-573.715 252.09)" fill="url(#c)"/><path d="M663.971-208.765q-1.381,0-2.414-2.6a14.106,14.106,0,0,1-1.034-5.253q0-3.66,1.273-5.146a1.412,1.412,0,0,1,1.061-.531,2,2,0,0,1,.637.107,1.226,1.226,0,0,1,.743,1.166,6.487,6.487,0,0,1-.371,1.8,22.281,22.281,0,0,0-.8,5.888,6.969,6.969,0,0,0,.265,1.751q.371,1.327,1.114,1.327,1.166,0,4.085-4.244,2.069-3.024,2.573-3.767t.716-.743c.07.036.106.124.106.265a2.284,2.284,0,0,1-.425,1.273l-1.326,1.91q-1.646,2.494-3.5,4.88Q665.19-208.765,663.971-208.765Zm.743-16.552h-.106q-.744-.159-.743-.743,0-1.06.849-1.061.742,0,.743.689Q665.456-225.317,664.713-225.317Z" transform="translate(-581.312 248.987)" fill="url(#d)"/><path d="M685.03-209.347q-3.237-.637-3.289-17.614a13.494,13.494,0,0,0-3.714,5.2,37.6,37.6,0,0,0-2.44,7,.047.047,0,0,1-.053.053q-.159,1.273-1.114,1.379-1.964,0-1.963-5.571,0-4.88,2.016-4.88A1.273,1.273,0,0,1,675.9-222.4q0,1.54-.106,3.024l.371-.8q3.661-8.222,6.26-8.223,1.592,0,1.592,2.123,0,.743-.159,2.546v2.229q0,9.868,1.751,11.353l.054.212Q685.666-209.346,685.03-209.347Z" transform="translate(-582.795 249.145)" fill="url(#e)"/><path d="M605.374-208.657s-1.416-3.742,4.652-9.1a52.6,52.6,0,0,1,7.248-5.279c5.245-3.195,4.8-3.393-.351-.571a59.584,59.584,0,0,0-8.414,5.547c-5.5,4.364-4.881,8.84-4.881,8.84Z" transform="translate(-574.239 248.796)" fill="url(#f)"/><g transform="translate(43.203 16.26)"><path d="M626.982-218.957a9.147,9.147,0,0,1,1.143-3.233,9.392,9.392,0,0,0,1.144-3.1,1.066,1.066,0,0,0-.49-.882,7.6,7.6,0,0,0-1.763-.816q-1.274-.457-1.535-.588a26.993,26.993,0,0,1-5.291,3.136,1.049,1.049,0,0,1-.457.13q-.327,0-.327-.391c0-.218.153-.392.457-.523a18.473,18.473,0,0,0,4.768-3,1.189,1.189,0,0,1-.392-.849,4.621,4.621,0,0,1,1.568-2.776q1.567-1.666,2.612-1.666.849,0,.85.588,0,1.96-2.678,4.377a9.108,9.108,0,0,0,2.874,1.666c1.61.718,1.836,1.222,1.836,1.918a10.874,10.874,0,0,1-1.111,3.168c-.741,1.633-2.121,3.913-2.121,4.478C628.069-216.229,626.982-217.04,626.982-218.957Z" transform="translate(-619.405 233.523)" fill="url(#g)"/></g><g transform="translate(58.36 23.637)"><path d="M652.594-208.979a2.192,2.192,0,0,1-.8-.106c-.447-.133-.974-.6-1.539-1.592a8.152,8.152,0,0,1-.743-3.4v-1.485a15.1,15.1,0,0,1,.179-3.351,7.46,7.46,0,0,0,.106-1.061c0-.388-.278-.883-.433-.8-.539.3,1.3-3.5,1.653-3.5a.941.941,0,0,1,.424.107,1.068,1.068,0,0,1,.584,1.008,8.814,8.814,0,0,1-.319,2.016c-.778,3.43-.975,3.934-.975,5.95a9.631,9.631,0,0,0,.637,3.926q.583,1.061,1.327,1.06,1.538,0,7.214-9.231c.5-.671.85-1.008,1.061-1.008.106,0,.159.089.159.265a2.931,2.931,0,0,1-.425,1.167q-2.546,4.192-5.358,8.223A3.6,3.6,0,0,1,652.594-208.979Z" transform="translate(-638.273 224.995)" fill="url(#h)"/><path d="M649.679-222.825q-1.184.745-4.6,5.57t-4.147,5.286a4.107,4.107,0,0,1-2.235.7,1.689,1.689,0,0,1-1.534-.687q-1.454-2.309,1.779-6.234a30.045,30.045,0,0,1,7.179-6.408,3.532,3.532,0,0,1,1.184-.431q.734-.147.841.022t-.514.559a25.454,25.454,0,0,0-5.568,4.528,10.475,10.475,0,0,0-2.378,3.661,2.631,2.631,0,0,0,.067,2.044q.319.507,1,.081c.789-.5,2.17-2.294,4.4-5.218a36.3,36.3,0,0,1,4.316-5.018C649.649-224.488,649.941-222.99,649.679-222.825Z" transform="translate(-636.713 225.098)" fill="url(#i)"/></g><path d="M639.068-217.764q-.4-.221-1.559.553l-1.349.929q-5.155,3.849-6.436,3.141t.132-4.317c.5-1.291.659-1.479,1.329-2.886.836-1.769-1.346-1.786-1.969-.527a21.815,21.815,0,0,0-1.466,3.59,6.5,6.5,0,0,0,.1,4.349,2.257,2.257,0,0,0,1.061,1.011,3.106,3.106,0,0,0,2.7-.283,46.107,46.107,0,0,0,6.593-4.467,3.217,3.217,0,0,0,.913-.8C639.191-217.608,639.174-217.7,639.068-217.764Z" transform="translate(-577.198 248.32)" fill="url(#j)"/></g><g transform="translate(0)"><path d="M574.2-212.7a2.883,2.883,0,0,1-2.228-1.486,7.459,7.459,0,0,1-1.115-2.547,49.416,49.416,0,0,1-1.591-12.307q0-1.325.531-5.836a56.7,56.7,0,0,1,2.918-11.406q1.219-2.757,2.228-2.759a1.436,1.436,0,0,1,.531.106,1.262,1.262,0,0,1,.8,1.115l-.106.477a21.492,21.492,0,0,1-1.167,3.872,61.613,61.613,0,0,0-2.918,18.781,24.392,24.392,0,0,0,1.22,8.382,4.8,4.8,0,0,0,.451,1.247.828.828,0,0,0,.769.4q.637,0,1.273-.9l.265-.318a18.053,18.053,0,0,0,1.91-3.183L582-227.606q.689-1.379,1.114-1.38c.071,0,.107.053.107.159a3.893,3.893,0,0,1-.425,1.167q-2.282,5.359-4.668,10.716a10.3,10.3,0,0,1-1.857,3.183A3.018,3.018,0,0,1,574.2-212.7Z" transform="translate(-569.265 252.594)" fill="#fff"/><path d="M585.957-215.563a4.208,4.208,0,0,1-1.8-.531q-1.591-.742-1.8-4.774c0-.247.017-.77.052-1.565a11.894,11.894,0,0,1,.637-3q1.379-4.508,5.04-5.517a2.406,2.406,0,0,1,.849-.159,1.564,1.564,0,0,1,1.379.61,1.984,1.984,0,0,1,.424,1.087,2.3,2.3,0,0,1-.583,1.38,9.667,9.667,0,0,1-4.3,3.5,2.029,2.029,0,0,0-1.406,1.591,13.256,13.256,0,0,0-.186,2.175q0,3.661,2.017,3.661a3.253,3.253,0,0,0,1.114-.212q1.856-.8,5.571-4.987,2.916-3.183,3.661-4.191a.856.856,0,0,1,.637-.424c.282,0,.424.159.424.477q0,.318-1.008,1.273-2.758,3.555-5.252,6.26Q588.557-215.562,585.957-215.563Zm-.637-9.921a8.5,8.5,0,0,0,3.979-3.182.86.86,0,0,0,.158-.531.464.464,0,0,0-.132-.265.429.429,0,0,0-.345-.159,1.2,1.2,0,0,0-.371.159A6.846,6.846,0,0,0,585.32-225.484Z" transform="translate(-570.891 250.365)" fill="#fff"/><path d="M615.72-231.93q-1.381-3.024-4.191-3.024a7.938,7.938,0,0,0-5.253,2.228,16.435,16.435,0,0,0-3.448,4.563l-.425.69a4.434,4.434,0,0,1-1.008,1.485,3.236,3.236,0,0,1-.159-1.114v-.371A59.306,59.306,0,0,1,604-242.381a21.329,21.329,0,0,1,4.4-8.488,1.257,1.257,0,0,0,.477-.955,1.419,1.419,0,0,0-.212-.689,1.565,1.565,0,0,0-1.167-.584,3.126,3.126,0,0,0-2.441,1.433,20.1,20.1,0,0,0-2.865,4.351,32.974,32.974,0,0,0-3.1,9.92,65.005,65.005,0,0,0-.5,7.215,52.79,52.79,0,0,0,.371,6.207q.16,2.069,1.486,2.281a1.224,1.224,0,0,0,1.114-.425,4.216,4.216,0,0,0,.689-1.379q3.13-7.8,7.48-9.762a5.642,5.642,0,0,1,1.963-.424q3.235,0,3.236,5.517a15.525,15.525,0,0,1-.69,4.509,17.7,17.7,0,0,1-.636,2.016,19.2,19.2,0,0,1-4.987,8.171,3.884,3.884,0,0,1-2.865,1.432,1.977,1.977,0,0,1-1.273-.424,2.245,2.245,0,0,1-.743-1.8,1.187,1.187,0,0,1,.053-.371,9.9,9.9,0,0,1,1.947-4.452v-1.457a18.248,18.248,0,0,0-2.955,4.689,5.4,5.4,0,0,0-.477,2.334,3.206,3.206,0,0,0,1.008,2.1,3.1,3.1,0,0,0,1.645,1.061c.459.053.76.079.9.079a6.687,6.687,0,0,0,5.358-2.759,23.041,23.041,0,0,0,5.253-14.854A9.778,9.778,0,0,0,615.72-231.93Z" transform="translate(-572.909 253.098)" fill="#fff"/><path d="M663.165-209.772q-1.381,0-2.414-2.6a14.094,14.094,0,0,1-1.035-5.253q0-3.66,1.273-5.146a1.412,1.412,0,0,1,1.061-.531,2.022,2.022,0,0,1,.637.106,1.227,1.227,0,0,1,.743,1.167,6.487,6.487,0,0,1-.371,1.8,22.279,22.279,0,0,0-.8,5.888,7.005,7.005,0,0,0,.265,1.751q.37,1.327,1.114,1.327,1.167,0,4.085-4.245,2.069-3.024,2.573-3.766t.716-.743c.07.036.106.124.106.265a2.282,2.282,0,0,1-.425,1.273l-1.326,1.91q-1.645,2.495-3.5,4.88Q664.385-209.772,663.165-209.772Zm.743-16.552H663.8q-.743-.159-.743-.743,0-1.06.849-1.061c.495,0,.743.231.743.69Q664.65-226.324,663.907-226.324Z" transform="translate(-580.506 249.995)" fill="#fff"/><path d="M684.224-210.355q-3.237-.636-3.289-17.613a13.477,13.477,0,0,0-3.713,5.2,37.614,37.614,0,0,0-2.441,7,.047.047,0,0,1-.053.053q-.159,1.273-1.114,1.379-1.964,0-1.963-5.57,0-4.88,2.016-4.88A1.272,1.272,0,0,1,675.1-223.4q0,1.54-.106,3.024l.371-.8q3.661-8.222,6.261-8.223,1.591,0,1.591,2.122,0,.743-.159,2.547v2.229q0,9.868,1.751,11.353l.053.212C684.86-210.548,684.648-210.355,684.224-210.355Z" transform="translate(-581.989 250.153)" fill="#fff"/><path d="M604.568-209.664s-1.415-3.742,4.652-9.1a52.6,52.6,0,0,1,7.248-5.279c5.245-3.195,4.8-3.393-.351-.571a59.7,59.7,0,0,0-8.414,5.547c-5.5,4.364-4.881,8.84-4.881,8.84Z" transform="translate(-573.433 249.804)" fill="#fff"/><g transform="translate(43.203 16.261)"><path d="M626.177-219.964a9.123,9.123,0,0,1,1.143-3.233,9.4,9.4,0,0,0,1.143-3.1,1.065,1.065,0,0,0-.49-.882,7.627,7.627,0,0,0-1.764-.816q-1.274-.457-1.535-.588a26.986,26.986,0,0,1-5.291,3.136,1.046,1.046,0,0,1-.457.13c-.217,0-.327-.13-.327-.392,0-.217.153-.391.457-.522a18.435,18.435,0,0,0,4.768-3.005,1.185,1.185,0,0,1-.391-.849A4.618,4.618,0,0,1,625-232.864q1.567-1.666,2.612-1.666.849,0,.849.588,0,1.96-2.678,4.377a9.106,9.106,0,0,0,2.874,1.665c1.61.719,1.836,1.223,1.836,1.919a10.873,10.873,0,0,1-1.11,3.168c-.741,1.633-2.122,3.913-2.122,4.478C627.263-217.236,626.177-218.047,626.177-219.964Z" transform="translate(-618.599 234.53)" fill="#fff"/></g><g transform="translate(58.36 23.638)"><path d="M651.788-209.986a2.183,2.183,0,0,1-.8-.107c-.446-.133-.973-.6-1.539-1.591a8.153,8.153,0,0,1-.743-3.4v-1.485a15.1,15.1,0,0,1,.179-3.351,7.516,7.516,0,0,0,.107-1.061c0-.389-.279-.883-.434-.8-.539.3,1.3-3.5,1.653-3.5a.955.955,0,0,1,.425.106,1.071,1.071,0,0,1,.583,1.008,8.852,8.852,0,0,1-.318,2.017c-.778,3.43-.976,3.934-.976,5.95a9.651,9.651,0,0,0,.637,3.926q.583,1.061,1.327,1.06,1.538,0,7.215-9.231c.495-.671.849-1.008,1.061-1.008.107,0,.159.089.159.265a2.93,2.93,0,0,1-.425,1.167q-2.546,4.192-5.358,8.223A3.6,3.6,0,0,1,651.788-209.986Z" transform="translate(-637.468 226.002)" fill="#fff"/><path d="M648.873-223.833q-1.184.746-4.6,5.57t-4.147,5.286a4.1,4.1,0,0,1-2.235.7,1.693,1.693,0,0,1-1.534-.687q-1.454-2.309,1.78-6.234a30.065,30.065,0,0,1,7.178-6.409,3.573,3.573,0,0,1,1.185-.431q.733-.146.84.023t-.513.559a25.466,25.466,0,0,0-5.569,4.528,10.474,10.474,0,0,0-2.378,3.661,2.63,2.63,0,0,0,.067,2.044q.319.507,1,.081c.789-.5,2.17-2.294,4.4-5.218a36.427,36.427,0,0,1,4.317-5.018C648.843-225.495,649.136-224,648.873-223.833Z" transform="translate(-635.907 226.105)" fill="#fff"/></g><path d="M638.262-218.771q-.4-.221-1.559.553l-1.349.928q-5.153,3.85-6.436,3.142t.133-4.317a31.748,31.748,0,0,1,1.329-2.886c.835-1.769-1.347-1.786-1.97-.527a21.828,21.828,0,0,0-1.466,3.59,6.5,6.5,0,0,0,.1,4.349,2.253,2.253,0,0,0,1.062,1.011,3.107,3.107,0,0,0,2.7-.283,46.114,46.114,0,0,0,6.592-4.467,3.216,3.216,0,0,0,.913-.8C638.385-218.615,638.369-218.712,638.262-218.771Z" transform="translate(-576.393 249.328)" fill="#fff"/></g></g></g></svg>