<svg xmlns="http://www.w3.org/2000/svg" viewBox="0 0 187.21 64.96"><defs><style>.cls-1{fill:#fff;}</style></defs><g id="Capa_2" data-name="Capa 2"><g id="Landing"><path class="cls-1" d="M79.2,50.38a.53.53,0,0,1-.14-.4V43.63a.52.52,0,0,1,.14-.39.53.53,0,0,1,.39-.15.51.51,0,0,1,.39.15.5.5,0,0,1,.15.39V50a.49.49,0,0,1-.54.54A.56.56,0,0,1,79.2,50.38Z"/><path class="cls-1" d="M89.17,43.24a.56.56,0,0,1,.14.39V50a.53.53,0,0,1-.15.39.5.5,0,0,1-.37.15.49.49,0,0,1-.42-.21L84.3,44.94v5a.56.56,0,0,1-.14.39.54.54,0,0,1-.74,0,.57.57,0,0,1-.13-.4V43.63a.56.56,0,0,1,.14-.39.5.5,0,0,1,.38-.15.46.46,0,0,1,.41.21l4.08,5.38v-5a.56.56,0,0,1,.13-.39.47.47,0,0,1,.37-.15A.5.5,0,0,1,89.17,43.24Z"/><path class="cls-1" d="M98.27,43.08a.59.59,0,0,1,.37.14.44.44,0,0,1,.17.34.53.53,0,0,1-.06.2l-2.93,6.42a.53.53,0,0,1-.23.26.63.63,0,0,1-.33.09.69.69,0,0,1-.34-.09.58.58,0,0,1-.23-.26l-2.92-6.42a.48.48,0,0,1,0-.2.4.4,0,0,1,.17-.34.59.59,0,0,1,.38-.14.48.48,0,0,1,.46.29l2.54,5.71,2.55-5.71A.47.47,0,0,1,98.27,43.08Z"/><path class="cls-1" d="M101.35,50.33a.48.48,0,0,1-.14-.38V43.66a.5.5,0,0,1,.14-.38.53.53,0,0,1,.39-.14h3.82a.53.53,0,0,1,.37.12.38.38,0,0,1,.13.32.39.39,0,0,1-.13.32.58.58,0,0,1-.37.11h-3.3v2.3h3.09a.51.51,0,0,1,.37.12.46.46,0,0,1,0,.64.51.51,0,0,1-.37.12h-3.09v2.42h3.3c.33,0,.5.14.5.42a.42.42,0,0,1-.13.33.58.58,0,0,1-.37.11h-3.82A.53.53,0,0,1,101.35,50.33Z"/><path class="cls-1" d="M109.56,50.34a2.93,2.93,0,0,1-1.14-.61.53.53,0,0,1-.2-.42.5.5,0,0,1,.11-.32.3.3,0,0,1,.25-.13.69.69,0,0,1,.35.13,3.44,3.44,0,0,0,2.11.69,2.22,2.22,0,0,0,1.28-.31,1,1,0,0,0,.45-.9.73.73,0,0,0-.42-.68,5.64,5.64,0,0,0-1.33-.44,7.9,7.9,0,0,1-1.44-.42,2.17,2.17,0,0,1-.87-.65,1.64,1.64,0,0,1-.32-1.05,1.94,1.94,0,0,1,.35-1.13,2.28,2.28,0,0,1,1-.77,3.53,3.53,0,0,1,1.42-.27,4.22,4.22,0,0,1,1.36.21,2.84,2.84,0,0,1,1.06.61.54.54,0,0,1,.21.43.45.45,0,0,1-.11.31.3.3,0,0,1-.25.13.63.63,0,0,1-.34-.13,4,4,0,0,0-.9-.53,3,3,0,0,0-1-.16,2,2,0,0,0-1.24.33,1.06,1.06,0,0,0-.45.91.84.84,0,0,0,.39.75,4.42,4.42,0,0,0,1.27.47,9.1,9.1,0,0,1,1.48.43,2.32,2.32,0,0,1,.91.61,1.49,1.49,0,0,1,.34,1,1.86,1.86,0,0,1-.35,1.11,2.34,2.34,0,0,1-1,.75,3.83,3.83,0,0,1-1.45.26A5.23,5.23,0,0,1,109.56,50.34Z"/><path class="cls-1" d="M118.35,50.37a.53.53,0,0,1-.15-.39V44h-2.08c-.33,0-.5-.15-.5-.45a.42.42,0,0,1,.13-.33.53.53,0,0,1,.37-.12h5.24a.53.53,0,0,1,.37.12.39.39,0,0,1,.13.33c0,.3-.17.45-.5.45h-2.08V50a.56.56,0,0,1-.14.39.54.54,0,0,1-.4.15A.53.53,0,0,1,118.35,50.37Z"/><path class="cls-1" d="M124.34,50.38a.57.57,0,0,1-.14-.4V43.63a.56.56,0,0,1,.14-.39.53.53,0,0,1,.39-.15.51.51,0,0,1,.39.15.5.5,0,0,1,.15.39V50a.49.49,0,0,1-.54.54A.56.56,0,0,1,124.34,50.38Z"/><path class="cls-1" d="M135.31,43.24a.52.52,0,0,1,.14.39V50a.52.52,0,0,1-.13.38.45.45,0,0,1-.35.13.46.46,0,0,1-.35-.13.56.56,0,0,1-.12-.38V45.18l-2,3.88a.54.54,0,0,1-1,0l-2.05-3.84V50a.56.56,0,0,1-.12.38.45.45,0,0,1-.35.13.43.43,0,0,1-.35-.14.49.49,0,0,1-.13-.37V43.63a.56.56,0,0,1,.14-.39.52.52,0,0,1,.38-.15.6.6,0,0,1,.52.37L132,48.21l2.47-4.75a.59.59,0,0,1,.51-.37A.5.5,0,0,1,135.31,43.24Z"/><path class="cls-1" d="M138.77,50.33a.49.49,0,0,1-.15-.38V43.66a.5.5,0,0,1,.15-.38.52.52,0,0,1,.38-.14H143a.53.53,0,0,1,.37.12.38.38,0,0,1,.13.32.39.39,0,0,1-.13.32A.58.58,0,0,1,143,44h-3.31v2.3h3.1a.53.53,0,0,1,.37.12.46.46,0,0,1,0,.64.53.53,0,0,1-.37.12h-3.1v2.42H143c.33,0,.5.14.5.42a.42.42,0,0,1-.13.33.58.58,0,0,1-.37.11h-3.83A.52.52,0,0,1,138.77,50.33Z"/><path class="cls-1" d="M152,43.24a.56.56,0,0,1,.14.39V50a.53.53,0,0,1-.15.39.53.53,0,0,1-.79-.06l-4.07-5.37v5a.56.56,0,0,1-.14.39.48.48,0,0,1-.37.15.49.49,0,0,1-.36-.14.57.57,0,0,1-.14-.4V43.63a.53.53,0,0,1,.15-.39.53.53,0,0,1,.79.06l4.07,5.38v-5a.56.56,0,0,1,.14-.39.46.46,0,0,1,.36-.15A.48.48,0,0,1,152,43.24Z"/><path class="cls-1" d="M157.23,50.37a.53.53,0,0,1-.15-.39V44H155c-.34,0-.5-.15-.5-.45a.39.39,0,0,1,.13-.33.51.51,0,0,1,.37-.12h5.23a.51.51,0,0,1,.37.12.39.39,0,0,1,.13.33c0,.3-.16.45-.5.45h-2.07V50a.51.51,0,0,1-.54.54A.57.57,0,0,1,157.23,50.37Z"/><path class="cls-1" d="M164,50.1a3.1,3.1,0,0,1-1.18-1.3,5.06,5.06,0,0,1,0-4,2.92,2.92,0,0,1,1.18-1.3,3.49,3.49,0,0,1,1.8-.45,3.53,3.53,0,0,1,1.82.45,2.92,2.92,0,0,1,1.18,1.3,5,5,0,0,1,0,4,3,3,0,0,1-1.18,1.31,3.53,3.53,0,0,1-1.82.45A3.49,3.49,0,0,1,164,50.1Zm3.52-1.17a3.28,3.28,0,0,0,.61-2.13,3.23,3.23,0,0,0-.61-2.12,2.32,2.32,0,0,0-3.42,0,3.28,3.28,0,0,0-.6,2.12,3.33,3.33,0,0,0,.6,2.13,2.32,2.32,0,0,0,3.42,0Z"/><path class="cls-1" d="M173,50.34a3,3,0,0,1-1.13-.61.5.5,0,0,1-.2-.42.49.49,0,0,1,.1-.32.3.3,0,0,1,.25-.13.69.69,0,0,1,.36.13,3.39,3.39,0,0,0,2.1.69,2.18,2.18,0,0,0,1.28-.31,1,1,0,0,0,.45-.9.73.73,0,0,0-.42-.68,5.48,5.48,0,0,0-1.33-.44,7.54,7.54,0,0,1-1.43-.42,2.2,2.2,0,0,1-.88-.65,1.7,1.7,0,0,1-.32-1.05,1.94,1.94,0,0,1,.35-1.13,2.35,2.35,0,0,1,1-.77,3.58,3.58,0,0,1,1.43-.27,4.26,4.26,0,0,1,1.36.21,2.84,2.84,0,0,1,1.06.61.54.54,0,0,1,.21.43.51.51,0,0,1-.11.31.32.32,0,0,1-.26.13.66.66,0,0,1-.34-.13,4,4,0,0,0-.9-.53,3,3,0,0,0-1-.16,2.06,2.06,0,0,0-1.25.33,1.06,1.06,0,0,0-.45.91.85.85,0,0,0,.4.75,4.31,4.31,0,0,0,1.27.47,9.41,9.41,0,0,1,1.48.43,2.21,2.21,0,0,1,.9.61,1.44,1.44,0,0,1,.34,1,1.86,1.86,0,0,1-.35,1.11,2.31,2.31,0,0,1-1,.75,3.87,3.87,0,0,1-1.45.26A5.35,5.35,0,0,1,173,50.34Z"/><path class="cls-1" d="M79.2,62.8a.48.48,0,0,1-.14-.38V56.13a.48.48,0,0,1,.14-.37.49.49,0,0,1,.39-.14h3.82a.53.53,0,0,1,.37.11.39.39,0,0,1,.13.32.38.38,0,0,1-.13.32.58.58,0,0,1-.37.11h-3.3v2.31H83.2a.51.51,0,0,1,.37.11.39.39,0,0,1,.13.32.38.38,0,0,1-.13.32.51.51,0,0,1-.37.12H80.11v2.42h3.3c.33,0,.5.14.5.43a.39.39,0,0,1-.13.32.53.53,0,0,1-.37.11H79.59A.49.49,0,0,1,79.2,62.8Z"/><path class="cls-1" d="M90.94,62.85a.54.54,0,0,1-.15-.4V56.13a.51.51,0,0,1,.14-.37.52.52,0,0,1,.39-.14h2.51a2.65,2.65,0,0,1,1.81.57,2.08,2.08,0,0,1,.64,1.62,2.11,2.11,0,0,1-.64,1.62,2.61,2.61,0,0,1-1.81.58h-2v2.44a.53.53,0,0,1-.14.4.52.52,0,0,1-.4.14A.48.48,0,0,1,90.94,62.85Zm2.77-3.7c1,0,1.54-.45,1.54-1.34s-.51-1.33-1.54-1.33H91.86v2.67Z"/><path class="cls-1" d="M104.76,62.53a.41.41,0,0,1-.16.33.55.55,0,0,1-.36.13.45.45,0,0,1-.25-.07.55.55,0,0,1-.19-.23l-.68-1.56H99.31l-.68,1.56a.47.47,0,0,1-.45.3.56.56,0,0,1-.37-.13.41.41,0,0,1-.16-.33.63.63,0,0,1,0-.21l2.93-6.41a.55.55,0,0,1,.24-.26.61.61,0,0,1,.34-.1.58.58,0,0,1,.33.1.55.55,0,0,1,.24.26l2.93,6.41A.63.63,0,0,1,104.76,62.53ZM99.7,60.28h3l-1.52-3.44Z"/><path class="cls-1" d="M113.14,62.57a.42.42,0,0,1-.15.32.55.55,0,0,1-.82-.13l-1.39-2.17a1.49,1.49,0,0,0-.51-.52,1.47,1.47,0,0,0-.71-.15h-1.17v2.53a.57.57,0,0,1-.14.4.51.51,0,0,1-.39.14.52.52,0,0,1-.39-.14.57.57,0,0,1-.14-.4V56.13a.51.51,0,0,1,.14-.37.49.49,0,0,1,.39-.14h2.59a2.78,2.78,0,0,1,1.85.54,1.93,1.93,0,0,1,.64,1.58,2,2,0,0,1-.49,1.39,2.24,2.24,0,0,1-1.39.68,1.37,1.37,0,0,1,.49.26,2.32,2.32,0,0,1,.42.52l1.08,1.69A.5.5,0,0,1,113.14,62.57Zm-2.82-3.51a1.89,1.89,0,0,0,1.2-.32,1.19,1.19,0,0,0,.39-1,1.2,1.2,0,0,0-.38-1,2,2,0,0,0-1.21-.3h-1.94v2.58Z"/><path class="cls-1" d="M117.64,62.84a.53.53,0,0,1-.15-.39V56.51h-2.08c-.33,0-.49-.15-.49-.45a.42.42,0,0,1,.13-.33.5.5,0,0,1,.36-.11h5.24a.51.51,0,0,1,.37.11.42.42,0,0,1,.13.33c0,.3-.16.45-.5.45h-2.08v5.94a.52.52,0,0,1-.14.39.54.54,0,0,1-.4.15A.53.53,0,0,1,117.64,62.84Z"/><path class="cls-1" d="M123.64,62.85a.54.54,0,0,1-.15-.4V56.1a.53.53,0,0,1,.15-.39.49.49,0,0,1,.38-.15.54.54,0,0,1,.4.15.56.56,0,0,1,.14.39v6.35a.57.57,0,0,1-.14.4.52.52,0,0,1-.4.14A.48.48,0,0,1,123.64,62.85Z"/><path class="cls-1" d="M129.08,62.57a2.89,2.89,0,0,1-1.19-1.3,4.95,4.95,0,0,1,0-4,3,3,0,0,1,1.19-1.3,3.6,3.6,0,0,1,1.83-.45,3.74,3.74,0,0,1,1.3.22,3.05,3.05,0,0,1,1.07.61.53.53,0,0,1,.2.42.58.58,0,0,1-.1.32.34.34,0,0,1-.25.13.56.56,0,0,1-.35-.14,3.47,3.47,0,0,0-.91-.52,2.67,2.67,0,0,0-.93-.15,2.15,2.15,0,0,0-1.75.73,4,4,0,0,0,0,4.25,2.12,2.12,0,0,0,1.75.74,2.59,2.59,0,0,0,.91-.15,4.48,4.48,0,0,0,.93-.52.72.72,0,0,1,.35-.14.34.34,0,0,1,.25.13.55.55,0,0,1,.1.32.5.5,0,0,1-.2.41,3.07,3.07,0,0,1-1.07.62,3.74,3.74,0,0,1-1.3.22A3.5,3.5,0,0,1,129.08,62.57Z"/><path class="cls-1" d="M136.36,62.85a.54.54,0,0,1-.15-.4V56.1a.53.53,0,0,1,.15-.39.5.5,0,0,1,.38-.15.54.54,0,0,1,.4.15.52.52,0,0,1,.14.39v6.35a.53.53,0,0,1-.14.4.61.61,0,0,1-.78,0Z"/><path class="cls-1" d="M140.59,62.85a.54.54,0,0,1-.15-.4V56.13a.51.51,0,0,1,.14-.37.52.52,0,0,1,.39-.14h2.51a2.65,2.65,0,0,1,1.81.57,2,2,0,0,1,.64,1.62,2.07,2.07,0,0,1-.64,1.62,2.61,2.61,0,0,1-1.81.58h-2v2.44a.53.53,0,0,1-.14.4.61.61,0,0,1-.78,0Zm2.77-3.7c1,0,1.54-.45,1.54-1.34s-.51-1.33-1.54-1.33h-1.85v2.67Z"/><path class="cls-1" d="M154.41,62.53a.41.41,0,0,1-.16.33.52.52,0,0,1-.36.13.45.45,0,0,1-.25-.07.47.47,0,0,1-.18-.23l-.69-1.56H149l-.69,1.56a.43.43,0,0,1-.19.23.48.48,0,0,1-.26.07.58.58,0,0,1-.37-.13.44.44,0,0,1-.16-.33.48.48,0,0,1,.06-.21l2.93-6.41a.53.53,0,0,1,.23-.26.63.63,0,0,1,.68,0,.58.58,0,0,1,.23.26l2.93,6.41A.46.46,0,0,1,154.41,62.53Zm-5.06-2.25h3.05l-1.53-3.44Z"/><path class="cls-1" d="M162.4,61.46a.49.49,0,0,1,.1.32.5.5,0,0,1-.2.41,3,3,0,0,1-1,.59,4.13,4.13,0,0,1-1.18.24l-.05.38.26,0a.78.78,0,0,1,.54.19.65.65,0,0,1,.23.53.77.77,0,0,1-.33.63,1.63,1.63,0,0,1-1,.24,2.27,2.27,0,0,1-.72-.11.27.27,0,0,1-.18-.26.29.29,0,0,1,.08-.21.22.22,0,0,1,.24,0,2.52,2.52,0,0,0,.58.08,1,1,0,0,0,.42-.08.29.29,0,0,0,.14-.25.26.26,0,0,0-.08-.2.34.34,0,0,0-.22-.06,1.16,1.16,0,0,0-.28,0l-.22,0a.2.2,0,0,1-.15-.06.17.17,0,0,1-.06-.15l.09-.69a3.35,3.35,0,0,1-1.6-.58,2.93,2.93,0,0,1-1-1.28,4.57,4.57,0,0,1-.36-1.88,4.45,4.45,0,0,1,.42-2A3.06,3.06,0,0,1,158.1,56a3.6,3.6,0,0,1,1.83-.45,3.74,3.74,0,0,1,1.3.22,3.05,3.05,0,0,1,1.07.61.53.53,0,0,1,.2.42.51.51,0,0,1-.1.32.34.34,0,0,1-.25.13.56.56,0,0,1-.35-.14,3.47,3.47,0,0,0-.91-.52,2.67,2.67,0,0,0-.93-.15,2.15,2.15,0,0,0-1.75.73,4,4,0,0,0,0,4.25,2.12,2.12,0,0,0,1.75.74,2.59,2.59,0,0,0,.91-.15,4.48,4.48,0,0,0,.93-.52.72.72,0,0,1,.35-.14A.34.34,0,0,1,162.4,61.46Z"/><path class="cls-1" d="M166.46,62.57a3,3,0,0,1-1.18-1.3,4.39,4.39,0,0,1-.42-2,4.64,4.64,0,0,1,.41-2,3,3,0,0,1,1.18-1.3,3.52,3.52,0,0,1,1.81-.45,3.56,3.56,0,0,1,1.82.45,3.1,3.1,0,0,1,1.18,1.3,4.59,4.59,0,0,1,.41,2,4.53,4.53,0,0,1-.41,2,3.07,3.07,0,0,1-1.18,1.31,3.56,3.56,0,0,1-1.82.46A3.46,3.46,0,0,1,166.46,62.57ZM170,61.4a3.24,3.24,0,0,0,.62-2.13,3.29,3.29,0,0,0-.61-2.12,2.09,2.09,0,0,0-1.72-.74,2,2,0,0,0-1.7.74,4,4,0,0,0,0,4.25,2.06,2.06,0,0,0,1.7.75A2.09,2.09,0,0,0,170,61.4Zm-3.05-6.8a.55.55,0,0,1-.17-.41.53.53,0,0,1,.17-.41.63.63,0,0,1,.84,0,.52.52,0,0,1,.18.41.55.55,0,0,1-.17.41.61.61,0,0,1-.43.15A.6.6,0,0,1,166.92,54.6Zm1.84,0a.58.58,0,0,1,0-.82.56.56,0,0,1,.41-.16.57.57,0,0,1,.43.16.53.53,0,0,1,.17.41.55.55,0,0,1-.17.41.61.61,0,0,1-.43.15A.59.59,0,0,1,168.76,54.6Z"/><path class="cls-1" d="M174.72,62.8a.48.48,0,0,1-.14-.38V56.13a.48.48,0,0,1,.14-.37.49.49,0,0,1,.39-.14h3.82a.51.51,0,0,1,.37.11.39.39,0,0,1,.13.32.38.38,0,0,1-.13.32.56.56,0,0,1-.37.11h-3.3v2.31h3.09a.51.51,0,0,1,.37.11.39.39,0,0,1,.13.32.38.38,0,0,1-.13.32.51.51,0,0,1-.37.12h-3.09v2.42h3.3c.34,0,.5.14.5.43a.39.39,0,0,1-.13.32.51.51,0,0,1-.37.11h-3.82A.49.49,0,0,1,174.72,62.8Z"/><path class="cls-1" d="M182.93,62.81a3.14,3.14,0,0,1-1.14-.6.57.57,0,0,1-.2-.43.5.5,0,0,1,.11-.32.33.33,0,0,1,.25-.13.72.72,0,0,1,.35.14,3.5,3.5,0,0,0,2.11.68,2.2,2.2,0,0,0,1.28-.31,1,1,0,0,0,.45-.89.74.74,0,0,0-.42-.69,5.64,5.64,0,0,0-1.33-.44A7.54,7.54,0,0,1,183,59.4a2.14,2.14,0,0,1-.88-.65,1.66,1.66,0,0,1-.32-1,1.91,1.91,0,0,1,.35-1.12,2.21,2.21,0,0,1,1-.77,3.4,3.4,0,0,1,1.42-.28,4.28,4.28,0,0,1,1.37.21,3,3,0,0,1,1.06.61.57.57,0,0,1,.2.43.44.44,0,0,1-.11.31.31.31,0,0,1-.25.14.7.7,0,0,1-.34-.14,3.56,3.56,0,0,0-.9-.52,2.8,2.8,0,0,0-1-.16,2,2,0,0,0-1.24.32,1.06,1.06,0,0,0-.45.91.84.84,0,0,0,.4.76,4.26,4.26,0,0,0,1.26.46,10.23,10.23,0,0,1,1.48.43,2.32,2.32,0,0,1,.91.61,1.52,1.52,0,0,1,.34,1,1.85,1.85,0,0,1-.35,1.1,2.28,2.28,0,0,1-1,.75,3.64,3.64,0,0,1-1.45.27A5.23,5.23,0,0,1,182.93,62.81Z"/><path class="cls-1" d="M81.88,36.42a3.8,3.8,0,0,1-.92.11c-1.23,0-1.84-.52-1.84-1.55V11a4.21,4.21,0,0,1,.65-.19,4,4,0,0,1,.94-.11c1.2,0,1.8.52,1.8,1.55v24A4.57,4.57,0,0,1,81.88,36.42Z"/><path class="cls-1" d="M96.4,35.81a1.81,1.81,0,0,1-.5-1.33V12.71a1.72,1.72,0,0,1,1.84-1.84h13.89a2.6,2.6,0,0,1,.25.57,2.11,2.11,0,0,1,.13.77,1.77,1.77,0,0,1-.33,1.13,1.18,1.18,0,0,1-1,.42H99.29v8.08h11a4.5,4.5,0,0,1,.25.56,2.45,2.45,0,0,1,.12.78,1.66,1.66,0,0,1-.33,1.1,1.19,1.19,0,0,1-1,.4H99.29v8.79h12.55a2.75,2.75,0,0,1,.25.54,2.17,2.17,0,0,1,.13.8,1.66,1.66,0,0,1-.34,1.11,1.19,1.19,0,0,1-1,.4H97.74A1.8,1.8,0,0,1,96.4,35.81Z"/><path class="cls-1" d="M127.41,27.24v9c-.17.06-.39.12-.67.19a3.74,3.74,0,0,1-.92.11C124.59,36.53,124,36,124,35V12.71a1.46,1.46,0,0,1,.33-1,2.36,2.36,0,0,1,1-.57,14.88,14.88,0,0,1,3-.54c1.16-.11,2.28-.17,3.37-.17q5.31,0,7.76,2.24a7.8,7.8,0,0,1,2.45,6,8.07,8.07,0,0,1-2.51,6.21c-1.67,1.55-4.26,2.33-7.74,2.33Zm4-2.85A8.52,8.52,0,0,0,136.62,23a5,5,0,0,0,1.84-4.27,4.81,4.81,0,0,0-1.78-4.16,8.42,8.42,0,0,0-5.08-1.32c-.76,0-1.5,0-2.24.1s-1.41.16-2,.27V24.39Z"/><path class="cls-1" d="M56.4,43.68a23.42,23.42,0,0,0-11.06-14.9l-.15-.08a19.37,19.37,0,0,0,7.5-11.33.68.68,0,0,0-.47-.81,19.35,19.35,0,0,0-15.43,1.78,20.31,20.31,0,0,0-2.11,1.4,19.31,19.31,0,0,0,.17-2.53c0-.18,0-.35,0-.53.24-.16.49-.31.74-.45a22,22,0,0,1,17.34-2,.68.68,0,0,0,.86-.46.67.67,0,0,0-.46-.85A23.43,23.43,0,0,0,34.89,15l-.15.09A19.26,19.26,0,0,0,28.68,3a.68.68,0,0,0-.94,0,19.36,19.36,0,0,0-6.17,14.24,21.38,21.38,0,0,0,.16,2.54,19.74,19.74,0,0,0-2.1-1.41l-.47-.26q0-.43,0-.87a22.06,22.06,0,0,1,6.94-16,.69.69,0,1,0-.94-1,23.41,23.41,0,0,0-7.37,17v.18a19.62,19.62,0,0,0-9.5-1.6H8.2a19,19,0,0,0-4,.76.68.68,0,0,0-.47.81A19.38,19.38,0,0,0,13,29.84,18.51,18.51,0,0,0,15.26,31,21.87,21.87,0,0,0,13,32.08l-.45.28c-.26-.13-.51-.27-.76-.41a22,22,0,0,1-10.41-14,.69.69,0,0,0-.83-.51.67.67,0,0,0-.51.82,23.45,23.45,0,0,0,11.06,14.9l.15.08a19.37,19.37,0,0,0-7.5,11.33.7.7,0,0,0,.47.82,19.71,19.71,0,0,0,5.71.85,19.41,19.41,0,0,0,9.72-2.63,20.47,20.47,0,0,0,2.11-1.42,19.58,19.58,0,0,0-.17,2.54c0,.18,0,.36,0,.53l-.73.46a22.08,22.08,0,0,1-17.35,2A.69.69,0,1,0,3.1,49a23.45,23.45,0,0,0,18.43-2.13l.15-.09A19.36,19.36,0,0,0,27.74,59a.7.7,0,0,0,.94,0,19.65,19.65,0,0,0,6.17-14.25,21.08,21.08,0,0,0-.16-2.53,21.37,21.37,0,0,0,2.1,1.41l.48.25c0,.29,0,.58,0,.87a22.06,22.06,0,0,1-6.94,16,.69.69,0,0,0,0,1,.7.7,0,0,0,.5.21.69.69,0,0,0,.47-.18,23.46,23.46,0,0,0,7.38-17c0-.06,0-.12,0-.19a19.52,19.52,0,0,0,7.92,1.68c.51,0,1,0,1.55-.07h0l.09,0a20,20,0,0,0,4-.75.7.7,0,0,0,.47-.82,19.64,19.64,0,0,0-9.25-12.47A18.51,18.51,0,0,0,41.16,31a21.87,21.87,0,0,0,2.28-1.12l.46-.28.76.41a22.05,22.05,0,0,1,10.4,14,.7.7,0,0,0,.67.54l.16,0A.69.69,0,0,0,56.4,43.68ZM37.48,19.53a18,18,0,0,1,13.71-1.84,19.23,19.23,0,0,1-.88,2.52A19.29,19.29,0,0,0,36.17,25.1a4,4,0,0,0-2.87-2.22A18,18,0,0,1,37.48,19.53ZM28.12,37.6c-5.89-4.4-7.43-8.54-6.89-11a2.89,2.89,0,0,1,2.33-2.34,2.64,2.64,0,0,1,.55-.06c2.38,0,3.3,3.19,3.34,3.34a.71.71,0,0,0,.65.5.68.68,0,0,0,.67-.47s1.37-3.92,4.21-3.38a2.71,2.71,0,0,1,2.21,2.22C35.74,28.9,34.15,33.1,28.12,37.6Zm5.36-20.39a18.41,18.41,0,0,1-.43,3.93,18.07,18.07,0,0,0-1.62,1.78,4.61,4.61,0,0,0-2,1.15,18.27,18.27,0,0,1-1.35-6.86,18,18,0,0,1,2.71-9.52A18,18,0,0,1,33.48,17.21ZM28.21,4.43a19.53,19.53,0,0,1,1.74,2,19.36,19.36,0,0,0-1.5,18.78,4.17,4.17,0,0,0-.29.44,4.66,4.66,0,0,0-4.3-2.81A18,18,0,0,1,28.21,4.43Zm-9.27,15.1a17.93,17.93,0,0,1,3.18,2.33c.11.44.24.88.38,1.31A4.24,4.24,0,0,0,20,25.83a17.84,17.84,0,0,1-3.79-1.63,18,18,0,0,1-6.89-7.1A17.89,17.89,0,0,1,18.94,19.53Zm-5.27,9.12a18,18,0,0,1-8.44-11,18.56,18.56,0,0,1,2.62-.49,19.25,19.25,0,0,0,11.93,10A8.4,8.4,0,0,0,20.52,31,18.23,18.23,0,0,1,13.67,28.65Zm-.77,5.1h0c.25-.16.5-.32.76-.47a18.47,18.47,0,0,1,3.65-1.6,19.42,19.42,0,0,0,3.92.7c.16.27.33.54.52.82A18.21,18.21,0,0,1,16.37,38a18,18,0,0,1-9.6,2.42A17.93,17.93,0,0,1,12.9,33.75Zm6,8.65A18,18,0,0,1,5.23,44.23a17.91,17.91,0,0,1,.89-2.52c.4,0,.8,0,1.2,0a19.39,19.39,0,0,0,9.74-2.62,19.59,19.59,0,0,0,5.55-4.82,21.56,21.56,0,0,0,2.33,2.45A18,18,0,0,1,18.94,42.4Zm4,2.31a18,18,0,0,1,.44-4A19.19,19.19,0,0,0,26,37.66c.42.35.87.7,1.34,1.05a18,18,0,0,1,1,6,18.1,18.1,0,0,1-2.7,9.52A17.92,17.92,0,0,1,22.94,44.71Zm5.27,12.78a18.54,18.54,0,0,1-1.74-2,19.38,19.38,0,0,0,3.25-10.76,19.51,19.51,0,0,0-.94-5.89,32.34,32.34,0,0,0,2.75-2.28,18.12,18.12,0,0,1-3.32,21ZM37.48,42.4a18.89,18.89,0,0,1-3.18-2.34,19.37,19.37,0,0,0-1.74-4.54,1.21,1.21,0,0,0,.16-.16,18.28,18.28,0,0,1,7.46,2.36,18,18,0,0,1,6.89,7.11A18.07,18.07,0,0,1,37.48,42.4Zm5.27-9.13a18,18,0,0,1,8.44,11,18.56,18.56,0,0,1-2.62.49A19.45,19.45,0,0,0,33.8,34.11a15,15,0,0,0,2-3.14,17.56,17.56,0,0,1,3.13.64h0A18.53,18.53,0,0,1,42.75,33.27Zm0-4.62a18.51,18.51,0,0,1-3.62,1.59,18.39,18.39,0,0,0-2.84-.6,7.27,7.27,0,0,0,.32-3.07A18.62,18.62,0,0,1,40.05,24a18.11,18.11,0,0,1,9.6-2.41A18,18,0,0,1,42.75,28.65Z"/></g></g></svg>